<svg width="301" height="626" viewBox="0 0 301 626" fill="none" xmlns="http://www.w3.org/2000/svg">
<path d="M94.0717 557.208H217.777L149.498 378.923L92.6437 382.31L94.0717 557.208Z" fill="#3D2119"/>
<path d="M239.265 490.929L240.627 528.419L253.446 499.164L239.265 490.929Z" fill="#3D2119"/>
<path d="M71.9216 536.192L42.5975 510.125L71.9216 479.973V536.192Z" fill="#3D2119"/>
<path d="M94.2068 139.504L115.295 97.2317L193.669 98.5268L221.765 142.127L94.2068 139.504Z" fill="#30201C"/>
<path d="M141.494 123.036L137.111 151.561L174.272 151.461L167.132 114.702L141.494 123.036Z" fill="#515028"/>
<path d="M112.537 154.218C107.223 147.079 18.4871 208.81 12.7086 213.758C6.93013 218.705 34.0292 237.666 47.9772 240.588C52.0288 241.452 55.6154 222.259 68.1354 223.454C94.7695 225.978 126.85 173.312 112.537 154.218Z" fill="#6B6B38"/>
<path d="M108.848 170.588C104.697 175.369 86.7303 172.514 84.9701 167.433C83.21 162.353 108.615 152.656 110.641 153.453C112.667 154.25 115.855 162.419 108.848 170.588Z" fill="#8E8C40"/>
<path d="M112.535 154.218C112.535 154.218 112.369 154.219 112.269 154.052C115.358 169.892 75.9712 162.255 44.0901 190.879C32.4667 201.339 34.3929 224.915 22.205 227.406C29.878 233.423 38.6228 237.93 47.9756 240.689C52.0272 241.552 55.6137 222.358 68.1337 223.554C94.7678 225.978 126.848 173.312 112.535 154.218Z" fill="#515028"/>
<path d="M79.9888 301.619L80.8523 284.717L202.532 285.979L206.119 299.062L79.9888 301.619Z" fill="#C14081"/>
<path d="M76.6041 625.649H117.153L107.888 523.97L86.733 523.24C86.733 523.24 115.094 609.311 106.659 617.347C98.2235 625.383 74.0802 616.882 76.6041 625.649Z" fill="#54352E"/>
<path d="M94.9699 594.437L118.648 592.245L116.091 518.327L77.236 526.397L94.9699 594.437Z" fill="#845042"/>
<path d="M84.0771 553.294L108.785 565.447L118.648 592.245L116.091 518.327L77.236 526.397L84.0771 553.294Z" fill="#5B382C"/>
<path d="M263.307 625.651H233.419L200.774 526.032L221.928 525.301C221.928 525.301 231.692 607.587 240.127 615.623C248.562 623.659 265.864 616.885 263.307 625.651Z" fill="#54352E"/>
<path d="M218.539 598.087L242.218 595.895L235.443 522.741L196.588 530.047L218.539 598.087Z" fill="#845042"/>
<path d="M206.85 561.792L230.329 568.666L242.218 595.895L235.443 522.741L196.588 530.047L206.85 561.792Z" fill="#5B382C"/>
<path d="M133.224 545.524C133.224 545.524 83.4101 548.845 64.7795 535.562V472.47L131.199 470.644C131.199 470.644 137.442 525.766 133.224 545.524Z" fill="#A57459"/>
<path d="M193.302 548.042C193.302 548.042 233.154 551.363 248.164 534.76L243.947 471.103L176.332 471.302C176.332 471.302 184.269 529.547 193.302 548.042Z" fill="#A57459"/>
<path d="M42.5975 509.99C42.5975 509.99 123.297 516.964 144.352 509.99L144.119 452.776L149.632 453.008L159.595 509.094C159.595 509.094 237.139 505.142 253.578 499.132L234.383 399.911L206.918 293.65L84.3752 297.867C84.3752 297.867 58.1729 403.497 59.0363 406.021C59.8998 408.545 42.5975 509.99 42.5975 509.99Z" fill="#634B40"/>
<path d="M234.214 399.945L206.75 293.685L84.2067 297.902C84.2067 297.902 68.1998 362.389 61.6243 391.81C84.1071 393.669 125.32 407.184 138.006 454.902C156.969 455.367 174.537 459.219 233.982 463.868C233.982 463.868 238.432 484.556 242.915 501.524C246.501 501.188 250.035 500.43 253.443 499.266L234.214 399.945Z" fill="#442F28"/>
<path d="M151.625 454.967L52.5612 453.141L56.2142 419.602L137.279 402.534L151.625 454.967Z" fill="#442F28"/>
<path d="M45.7528 443.577C45.7528 443.577 121.803 447.362 124.36 442.946C126.917 438.53 140.201 292.72 140.201 292.72L78.0657 297.8C78.0657 297.8 46.3838 365.608 45.7528 443.577Z" fill="#513834"/>
<path d="M245.939 443.579C245.939 443.579 161.52 447.564 158.631 443.114C155.742 438.664 137.875 292.722 137.875 292.722L205.158 290.829C205.158 290.829 239.696 361.825 245.939 443.579Z" fill="#513834"/>
<path d="M43.5236 430.692C43.4817 431.772 43.8495 432.828 44.5532 433.648C44.8967 434.036 45.3148 434.35 45.7827 434.573C46.2507 434.795 46.7586 434.921 47.2763 434.943C59.431 435.275 97.6551 435.574 112.533 435.707C114.17 435.717 115.753 435.124 116.979 434.039C118.205 432.954 118.987 431.455 119.175 429.829L120.105 422.424C120.17 421.917 120.13 421.401 119.988 420.91C119.845 420.418 119.602 419.962 119.275 419.568C118.933 419.189 118.519 418.882 118.057 418.665C117.595 418.448 117.095 418.327 116.585 418.307L48.6711 416.248C47.4239 416.259 46.2311 416.76 45.3502 417.642C44.4269 418.586 43.8933 419.843 43.8557 421.162L43.5236 430.692Z" fill="#8C6C67"/>
<path d="M44.6217 407.382C44.5336 407.967 44.5677 408.565 44.7221 409.136C44.8764 409.708 45.1475 410.241 45.5183 410.702C45.872 411.152 46.32 411.519 46.8306 411.777C47.3412 412.035 47.9022 412.179 48.474 412.197C61.7579 412.429 100.945 412.396 115.126 412.396C116.557 412.394 117.939 411.876 119.019 410.936C120.099 409.997 120.804 408.699 121.004 407.282L121.934 400.442C122.015 399.898 121.977 399.343 121.822 398.815C121.667 398.288 121.399 397.8 121.037 397.387C120.685 396.965 120.25 396.62 119.758 396.374C119.267 396.128 118.73 395.987 118.181 395.959L51.1308 393.369C49.8574 393.352 48.623 393.807 47.6661 394.648C46.7092 395.488 46.0979 396.653 45.9501 397.918L44.6217 407.382Z" fill="#8C6C67"/>
<path d="M48.2423 385.864C48.1762 386.275 48.1983 386.694 48.3071 387.095C48.4159 387.496 48.6089 387.869 48.8733 388.189C49.119 388.5 49.4318 388.751 49.7884 388.923C50.145 389.096 50.5361 389.185 50.9322 389.185C62.5224 389.185 104.067 388.953 118.68 388.853C120.145 388.829 121.554 388.285 122.656 387.318C123.757 386.35 124.478 385.023 124.691 383.573L125.587 376.932C125.661 376.409 125.625 375.876 125.482 375.367C125.339 374.859 125.092 374.385 124.757 373.976C124.406 373.578 123.978 373.254 123.499 373.026C123.019 372.798 122.498 372.669 121.967 372.648L53.6887 370.523C52.7602 370.516 51.8614 370.85 51.1634 371.463C50.4654 372.075 50.0168 372.922 49.9028 373.844L48.2423 385.864Z" fill="#8C6C67"/>
<path d="M53.3239 361.391C53.1954 361.962 53.1911 362.554 53.3114 363.127C53.4318 363.7 53.6738 364.241 54.0213 364.712C54.3719 365.184 54.8275 365.567 55.3521 365.832C55.8766 366.097 56.4556 366.237 57.0434 366.239C70.0947 366.239 106.426 365.675 120.607 365.409C122.238 365.421 123.817 364.832 125.042 363.754C126.267 362.676 127.053 361.185 127.248 359.565L128.045 353.455C128.115 352.929 128.073 352.395 127.925 351.886C127.776 351.377 127.523 350.905 127.182 350.499C126.837 350.085 126.406 349.751 125.918 349.522C125.43 349.292 124.898 349.173 124.359 349.171L60.8293 347.345C59.6456 347.333 58.494 347.729 57.5685 348.467C56.643 349.205 56.0002 350.239 55.7482 351.396L53.3239 361.391Z" fill="#8C6C67"/>
<path d="M58.3054 340.637C58.181 341.127 58.1702 341.639 58.2738 342.134C58.3774 342.629 58.5927 343.093 58.9032 343.493C59.1987 343.88 59.5809 344.193 60.0192 344.407C60.4575 344.62 60.9397 344.728 61.4271 344.721C73.4158 344.721 109.415 343.791 123.761 343.426C125.411 343.354 126.982 342.701 128.197 341.583C129.412 340.465 130.194 338.954 130.403 337.316L131.234 330.974C131.285 330.508 131.238 330.037 131.094 329.591C130.95 329.145 130.714 328.734 130.4 328.386C130.086 328.038 129.703 327.76 129.274 327.571C128.845 327.381 128.381 327.285 127.913 327.288L64.8145 325.926C63.861 325.919 62.9353 326.247 62.2003 326.855C61.4653 327.462 60.968 328.309 60.7961 329.247L58.3054 340.637Z" fill="#8C6C67"/>
<path d="M65.6761 316.365C65.5308 316.998 65.5238 317.655 65.6556 318.291C65.7874 318.927 66.055 319.527 66.4399 320.05C66.83 320.56 67.3329 320.972 67.9091 321.254C68.4854 321.537 69.1192 321.681 69.7609 321.678C82.2809 321.678 114.195 320.881 126.715 320.549C128.149 320.518 129.524 319.971 130.586 319.006C131.648 318.042 132.326 316.726 132.494 315.302L133.224 308.661C133.303 308.066 133.252 307.461 133.074 306.887C132.896 306.314 132.596 305.786 132.195 305.34C131.801 304.897 131.322 304.538 130.785 304.287C130.248 304.036 129.666 303.897 129.073 303.879L72.6168 302.883C71.5641 302.881 70.5423 303.238 69.7208 303.897C68.8994 304.555 68.3276 305.474 68.1004 306.502L65.6761 316.365Z" fill="#8C6C67"/>
<path d="M247.065 430.629C247.096 431.173 247.018 431.717 246.836 432.231C246.653 432.744 246.37 433.216 246.002 433.618C245.246 434.411 244.209 434.876 243.113 434.913C229.231 435.278 184.83 435.643 171.779 435.743C170.766 435.743 169.785 435.388 169.008 434.738C168.231 434.089 167.707 433.187 167.528 432.19L165.868 422.493C165.786 422.011 165.806 421.516 165.926 421.042C166.046 420.567 166.263 420.123 166.565 419.737C166.871 419.35 167.259 419.036 167.701 418.818C168.144 418.6 168.629 418.483 169.122 418.475L241.021 415.952C241.708 415.922 242.394 416.03 243.038 416.269C243.683 416.509 244.273 416.875 244.773 417.346C245.801 418.266 246.422 419.556 246.5 420.933L247.065 430.629Z" fill="#8C6C67"/>
<path d="M245.276 406.851C245.377 407.434 245.353 408.032 245.204 408.605C245.055 409.178 244.785 409.712 244.413 410.172C244.009 410.659 243.501 411.05 242.926 411.314C242.352 411.579 241.725 411.71 241.092 411.7C226.513 412.098 183.174 412.397 169.459 412.497C168.285 412.508 167.145 412.104 166.239 411.357C165.334 410.61 164.722 409.567 164.511 408.412L163.149 400.907C163.05 400.336 163.072 399.749 163.216 399.187C163.359 398.625 163.619 398.099 163.98 397.645C164.34 397.19 164.793 396.817 165.308 396.549C165.823 396.282 166.389 396.126 166.968 396.092L237.771 392.473C239.117 392.412 240.44 392.844 241.491 393.688C242.542 394.531 243.25 395.728 243.483 397.055L245.276 406.851Z" fill="#8C6C67"/>
<path d="M240.826 384.801C240.909 385.216 240.895 385.644 240.786 386.053C240.676 386.462 240.474 386.84 240.195 387.158C239.925 387.491 239.587 387.762 239.203 387.951C238.819 388.14 238.398 388.244 237.97 388.254C224.952 388.586 178.359 388.985 164.543 389.084C163.462 389.086 162.413 388.709 161.582 388.017C160.75 387.325 160.188 386.363 159.994 385.299L158.466 376.997C158.371 376.494 158.384 375.976 158.504 375.478C158.624 374.98 158.848 374.513 159.162 374.108C159.476 373.703 159.872 373.369 160.325 373.129C160.777 372.889 161.276 372.747 161.787 372.713L234.416 368.994C235.404 368.938 236.377 369.245 237.154 369.856C237.931 370.468 238.457 371.342 238.634 372.315L240.826 384.801Z" fill="#8C6C67"/>
<path d="M234.645 359.53C234.813 360.144 234.84 360.788 234.725 361.415C234.61 362.041 234.356 362.634 233.981 363.149C233.594 363.665 233.093 364.083 232.516 364.371C231.94 364.659 231.304 364.81 230.66 364.81C215.948 365.208 174.702 365.507 161.351 365.606C160.169 365.618 159.02 365.211 158.109 364.457C157.197 363.704 156.581 362.652 156.37 361.489L154.942 353.387C154.836 352.894 154.844 352.384 154.965 351.895C155.086 351.406 155.317 350.951 155.639 350.564C155.951 350.168 156.343 349.842 156.789 349.607C157.236 349.372 157.726 349.235 158.23 349.203L226.077 345.251C227.339 345.182 228.586 345.546 229.613 346.283C230.64 347.019 231.384 348.085 231.722 349.302L234.645 359.53Z" fill="#8C6C67"/>
<path d="M228.635 337.882C228.77 338.39 228.79 338.923 228.692 339.44C228.595 339.957 228.382 340.446 228.07 340.87C227.762 341.304 227.353 341.657 226.879 341.9C226.405 342.143 225.88 342.268 225.347 342.265C211.665 342.663 169.854 342.962 156.736 343.062C155.627 343.07 154.55 342.684 153.699 341.973C152.847 341.261 152.276 340.27 152.087 339.177L150.659 331.008C150.576 330.491 150.597 329.964 150.723 329.456C150.848 328.948 151.075 328.471 151.39 328.053C151.719 327.649 152.128 327.317 152.59 327.077C153.053 326.837 153.56 326.694 154.08 326.658L220.897 322.673C221.911 322.633 222.909 322.94 223.724 323.544C224.539 324.148 225.124 325.012 225.381 325.994L228.635 337.882Z" fill="#8C6C67"/>
<path d="M219.738 312.777C219.931 313.445 219.969 314.148 219.848 314.833C219.727 315.517 219.45 316.165 219.04 316.726C218.629 317.287 218.096 317.747 217.48 318.07C216.864 318.392 216.182 318.57 215.487 318.588C201.672 319.119 166.669 319.684 154.083 319.883C152.806 319.899 151.567 319.454 150.591 318.631C149.616 317.808 148.969 316.661 148.769 315.4L147.408 306.7C147.333 306.246 147.353 305.781 147.468 305.335C147.582 304.889 147.788 304.472 148.072 304.11C148.675 303.4 149.535 302.958 150.463 302.881L211.801 298.93C212.924 298.874 214.032 299.202 214.944 299.86C215.855 300.517 216.516 301.466 216.816 302.549L219.738 312.777Z" fill="#8C6C67"/>
<path d="M52.8254 417.643C51.9811 418.625 51.5003 419.868 51.4638 421.162L51.1981 430.693C51.165 431.76 51.5056 432.805 52.1611 433.648C52.4494 434.024 52.8148 434.335 53.233 434.558C53.6511 434.781 54.1123 434.913 54.5855 434.943L63.552 435.142C70.1489 429.77 76.17 423.727 81.5183 417.111L55.9138 416.248C55.3288 416.244 54.7499 416.366 54.2168 416.607C53.6836 416.848 53.2089 417.201 52.8254 417.643V417.643Z" fill="#AA8581"/>
<path d="M53.3894 397.884L52.3932 407.381C52.2139 408.55 52.5001 409.742 53.1902 410.702C53.4815 411.145 53.8748 411.512 54.337 411.772C54.7992 412.032 55.317 412.177 55.847 412.196C61.7583 412.196 73.5145 412.362 85.4367 412.396C89.6192 406.826 93.4885 401.028 97.0268 395.028L58.2048 393.368C56.9802 393.374 55.803 393.842 54.9097 394.68C54.0165 395.518 53.4733 396.663 53.3894 397.884V397.884Z" fill="#AA8581"/>
<path d="M56.9776 373.844L55.45 385.898C55.3429 386.716 55.5441 387.544 56.0145 388.222C56.2258 388.521 56.5039 388.767 56.8267 388.94C57.1495 389.113 57.5082 389.208 57.8742 389.218C64.9811 389.218 84.442 389.218 100.283 389.218C101.877 386.296 103.438 383.307 104.932 380.219C106.427 377.131 107.39 374.94 108.519 372.283L60.365 370.523C59.488 370.555 58.6545 370.913 58.0279 371.527C57.4013 372.141 57.0267 372.968 56.9776 373.844V373.844Z" fill="#AA8581"/>
<path d="M62.1579 351.532L60.0325 361.494C59.7978 362.641 60.0245 363.834 60.6635 364.815C60.9574 365.273 61.3595 365.652 61.8343 365.918C62.3092 366.185 62.8423 366.33 63.3867 366.342C72.8182 366.342 95.6995 365.977 111.009 365.678C112.982 360.236 114.667 354.694 116.057 349.075L66.7409 347.514C65.6269 347.54 64.5575 347.956 63.7197 348.691C62.8819 349.425 62.3291 350.431 62.1579 351.532V351.532Z" fill="#AA8581"/>
<path d="M66.9376 329.015L64.5133 340.505C64.3109 341.489 64.5016 342.514 65.0447 343.36C65.2886 343.737 65.6231 344.047 66.0175 344.262C66.412 344.476 66.8538 344.589 67.3029 344.589C76.668 344.589 102.239 343.892 117.316 343.46C118.435 337.974 119.256 332.431 119.774 326.856L70.5575 325.694C69.6557 325.72 68.7935 326.07 68.1287 326.68C67.4639 327.29 67.0411 328.119 66.9376 329.015V329.015Z" fill="#AA8581"/>
<path d="M73.3173 306.568L71.2915 316.53C71.1465 317.157 71.1306 317.808 71.2448 318.441C71.359 319.075 71.6009 319.679 71.9558 320.216C72.2845 320.709 72.7283 321.115 73.249 321.399C73.7698 321.682 74.3517 321.835 74.9446 321.843C84.5754 321.843 106.925 321.245 120.276 320.88C120.572 315.237 120.516 309.581 120.11 303.945L77.4021 303.115C76.4304 303.142 75.4967 303.498 74.7544 304.126C74.0121 304.753 73.5053 305.615 73.3173 306.568V306.568Z" fill="#AA8581"/>
<path d="M173.606 419.738C173.072 420.551 172.859 421.533 173.008 422.494L174.403 432.191C174.472 433.11 174.869 433.974 175.521 434.626C176.173 435.278 177.037 435.675 177.956 435.744L196.587 435.544C199.195 429.655 201.338 423.571 202.996 417.347L175.731 418.476C175.303 418.507 174.888 418.637 174.519 418.856C174.15 419.075 173.838 419.377 173.606 419.738V419.738Z" fill="#AA8581"/>
<path d="M171.551 397.721C170.902 398.697 170.653 399.886 170.854 401.041L171.983 408.546C172.068 409.612 172.535 410.611 173.297 411.361C174.06 412.111 175.067 412.562 176.134 412.63L204.262 412.365C205.591 406.653 206.72 400.576 207.583 394.167L174.075 396.226C173.568 396.265 173.077 396.421 172.639 396.68C172.201 396.939 171.829 397.295 171.551 397.721V397.721Z" fill="#AA8581"/>
<path d="M167.431 374.077C166.885 374.946 166.673 375.985 166.833 376.999L168.095 385.3C168.179 386.282 168.609 387.202 169.309 387.895C170.008 388.589 170.932 389.011 171.914 389.086L208.179 388.687C208.81 382.743 209.208 376.6 209.341 370.291L169.656 372.715C169.204 372.752 168.767 372.894 168.381 373.131C167.994 373.367 167.669 373.691 167.431 374.077Z" fill="#AA8581"/>
<path d="M164.509 350.597C163.987 351.439 163.787 352.441 163.944 353.419L165.14 361.489C165.217 362.564 165.679 363.576 166.442 364.338C167.204 365.1 168.216 365.562 169.291 365.64C176.763 365.64 194.663 365.407 209.375 365.208C209.375 358.733 209.11 352.423 208.611 346.346L166.668 349.236C166.228 349.284 165.806 349.432 165.432 349.668C165.058 349.904 164.742 350.222 164.509 350.597V350.597Z" fill="#AA8581"/>
<path d="M160.921 328.055C160.375 328.938 160.152 329.982 160.29 331.01L161.486 339.179C161.556 340.192 161.993 341.145 162.714 341.859C163.435 342.574 164.391 343.002 165.404 343.064C173.209 343.064 193.234 342.832 208.245 342.566C207.58 335.925 206.617 329.649 205.422 323.672L163.146 326.66C162.694 326.71 162.259 326.862 161.874 327.103C161.489 327.345 161.163 327.67 160.921 328.055Z" fill="#AA8581"/>
<path d="M158.13 304.11C157.644 304.881 157.445 305.797 157.566 306.7L158.695 315.4C158.772 316.558 159.265 317.649 160.082 318.473C160.9 319.297 161.988 319.797 163.145 319.883C171.315 319.883 190.676 319.352 204.391 318.92C202.928 312.453 200.986 306.104 198.58 299.926L160.123 302.881C159.722 302.932 159.337 303.068 158.993 303.279C158.65 303.491 158.355 303.775 158.13 304.11V304.11Z" fill="#AA8581"/>
<path d="M157.271 311.018C157.251 310.53 157.089 310.059 156.803 309.662C156.518 309.266 156.123 308.963 155.666 308.789C155.21 308.616 154.712 308.58 154.236 308.688C153.759 308.795 153.325 309.039 152.987 309.391C152.648 309.743 152.421 310.187 152.332 310.667C152.244 311.147 152.299 311.643 152.49 312.092C152.681 312.541 153 312.925 153.407 313.194C153.814 313.464 154.292 313.607 154.78 313.608C155.114 313.604 155.444 313.533 155.751 313.4C156.058 313.267 156.335 313.075 156.567 312.834C156.799 312.593 156.98 312.308 157.101 311.996C157.222 311.685 157.279 311.352 157.271 311.018V311.018Z" fill="#513834"/>
<path d="M161.423 336.219C161.404 335.731 161.241 335.26 160.956 334.863C160.671 334.467 160.275 334.163 159.819 333.99C159.362 333.817 158.865 333.781 158.388 333.888C157.912 333.996 157.478 334.24 157.139 334.592C156.801 334.944 156.573 335.388 156.485 335.868C156.396 336.348 156.451 336.844 156.642 337.293C156.833 337.742 157.152 338.125 157.56 338.395C157.967 338.664 158.444 338.808 158.933 338.809C159.267 338.805 159.597 338.734 159.904 338.601C160.211 338.468 160.488 338.275 160.72 338.034C160.951 337.793 161.133 337.509 161.254 337.197C161.375 336.885 161.432 336.553 161.423 336.219V336.219Z" fill="#513834"/>
<path d="M164.742 358.339C164.722 357.852 164.56 357.38 164.274 356.984C163.989 356.588 163.594 356.284 163.137 356.111C162.681 355.937 162.183 355.902 161.707 356.009C161.231 356.116 160.796 356.361 160.458 356.713C160.119 357.065 159.892 357.508 159.803 357.989C159.715 358.469 159.77 358.964 159.961 359.414C160.152 359.863 160.471 360.246 160.878 360.516C161.285 360.785 161.763 360.929 162.251 360.929C162.585 360.925 162.915 360.855 163.222 360.722C163.529 360.589 163.806 360.396 164.038 360.155C164.27 359.914 164.451 359.63 164.572 359.318C164.693 359.006 164.751 358.674 164.742 358.339V358.339Z" fill="#513834"/>
<path d="M168.894 379.921C168.875 379.433 168.712 378.962 168.427 378.566C168.142 378.169 167.746 377.866 167.29 377.693C166.833 377.519 166.336 377.484 165.86 377.591C165.383 377.698 164.949 377.943 164.61 378.295C164.272 378.646 164.044 379.09 163.956 379.57C163.868 380.051 163.922 380.546 164.114 380.995C164.305 381.445 164.624 381.828 165.031 382.098C165.438 382.367 165.915 382.511 166.404 382.511C166.738 382.507 167.068 382.436 167.375 382.303C167.682 382.171 167.959 381.978 168.191 381.737C168.422 381.496 168.604 381.211 168.725 380.9C168.846 380.588 168.903 380.255 168.894 379.921Z" fill="#513834"/>
<path d="M172.214 404.562C172.194 404.075 172.032 403.603 171.747 403.207C171.461 402.811 171.066 402.507 170.609 402.334C170.153 402.16 169.656 402.125 169.179 402.232C168.703 402.339 168.268 402.584 167.93 402.936C167.592 403.288 167.364 403.731 167.276 404.212C167.187 404.692 167.242 405.187 167.433 405.637C167.624 406.086 167.943 406.469 168.35 406.739C168.758 407.008 169.235 407.152 169.723 407.153C170.058 407.148 170.388 407.078 170.695 406.945C171.001 406.812 171.279 406.619 171.51 406.378C171.742 406.137 171.924 405.853 172.044 405.541C172.165 405.229 172.223 404.897 172.214 404.562Z" fill="#513834"/>
<path d="M175.533 426.71C175.514 426.222 175.351 425.751 175.066 425.354C174.781 424.958 174.385 424.654 173.929 424.481C173.472 424.308 172.975 424.272 172.499 424.379C172.022 424.487 171.588 424.731 171.249 425.083C170.911 425.435 170.683 425.879 170.595 426.359C170.507 426.839 170.561 427.335 170.752 427.784C170.944 428.233 171.263 428.617 171.67 428.886C172.077 429.156 172.554 429.3 173.043 429.3C173.377 429.296 173.707 429.225 174.014 429.092C174.321 428.959 174.598 428.766 174.83 428.525C175.061 428.285 175.243 428 175.364 427.688C175.485 427.376 175.542 427.044 175.533 426.71Z" fill="#513834"/>
<path d="M120.939 310.752C120.906 310.427 120.942 310.098 121.044 309.786C121.146 309.475 121.312 309.189 121.53 308.945C121.749 308.701 122.016 308.506 122.314 308.371C122.613 308.236 122.936 308.165 123.263 308.162C123.946 308.186 124.594 308.466 125.08 308.946C125.566 309.426 125.854 310.07 125.887 310.752C125.919 311.078 125.883 311.407 125.782 311.718C125.68 312.03 125.514 312.316 125.296 312.56C125.077 312.803 124.81 312.999 124.511 313.134C124.213 313.268 123.89 313.34 123.562 313.343C122.88 313.318 122.231 313.039 121.746 312.559C121.26 312.079 120.972 311.434 120.939 310.752V310.752Z" fill="#513834"/>
<path d="M118.348 335.859C118.311 335.536 118.342 335.209 118.44 334.9C118.538 334.591 118.701 334.306 118.918 334.064C119.134 333.822 119.4 333.629 119.697 333.498C119.994 333.366 120.315 333.3 120.64 333.302C121.323 333.317 121.975 333.589 122.467 334.062C122.959 334.536 123.255 335.177 123.297 335.859C123.329 336.184 123.293 336.513 123.191 336.825C123.089 337.136 122.924 337.422 122.705 337.666C122.486 337.909 122.219 338.105 121.921 338.24C121.622 338.375 121.299 338.446 120.972 338.449C120.287 338.432 119.634 338.155 119.146 337.674C118.659 337.192 118.373 336.543 118.348 335.859V335.859Z" fill="#513834"/>
<path d="M116.389 357.939C116.357 357.618 116.392 357.293 116.492 356.986C116.592 356.679 116.755 356.396 116.971 356.155C117.187 355.914 117.45 355.722 117.744 355.588C118.039 355.455 118.358 355.385 118.681 355.382C119.364 355.397 120.016 355.669 120.508 356.143C121 356.616 121.296 357.257 121.338 357.939C121.37 358.265 121.334 358.594 121.232 358.905C121.13 359.216 120.965 359.503 120.746 359.746C120.527 359.99 120.26 360.185 119.962 360.32C119.663 360.455 119.34 360.526 119.013 360.529C118.328 360.513 117.675 360.236 117.188 359.754C116.7 359.273 116.415 358.624 116.389 357.939V357.939Z" fill="#513834"/>
<path d="M113.563 379.492C113.531 379.166 113.567 378.837 113.669 378.526C113.771 378.215 113.936 377.928 114.155 377.685C114.374 377.441 114.641 377.245 114.939 377.111C115.237 376.976 115.561 376.905 115.888 376.902C116.57 376.926 117.219 377.206 117.705 377.685C118.191 378.165 118.479 378.81 118.511 379.492C118.544 379.818 118.508 380.147 118.406 380.458C118.304 380.769 118.139 381.055 117.92 381.299C117.701 381.543 117.434 381.738 117.136 381.873C116.837 382.007 116.514 382.079 116.187 382.082C115.504 382.057 114.856 381.778 114.37 381.298C113.884 380.818 113.596 380.174 113.563 379.492Z" fill="#513834"/>
<path d="M111.741 404.064C111.714 403.739 111.753 403.412 111.857 403.103C111.961 402.794 112.127 402.509 112.344 402.267C112.562 402.024 112.827 401.829 113.123 401.692C113.419 401.556 113.74 401.482 114.066 401.474C114.752 401.497 115.404 401.776 115.895 402.255C116.387 402.734 116.682 403.379 116.723 404.064C116.75 404.388 116.71 404.716 116.607 405.025C116.503 405.334 116.337 405.618 116.119 405.861C115.902 406.103 115.637 406.299 115.341 406.435C115.045 406.571 114.724 406.646 114.398 406.654C113.712 406.63 113.06 406.352 112.568 405.873C112.077 405.394 111.782 404.749 111.741 404.064V404.064Z" fill="#513834"/>
<path d="M109.814 426.147C109.791 425.826 109.835 425.502 109.943 425.199C110.052 424.895 110.223 424.617 110.444 424.383C110.666 424.149 110.934 423.963 111.232 423.838C111.529 423.713 111.849 423.651 112.172 423.657C112.857 423.68 113.51 423.959 114.001 424.438C114.492 424.917 114.787 425.562 114.828 426.247C114.856 426.572 114.816 426.899 114.713 427.208C114.609 427.517 114.443 427.801 114.225 428.044C114.008 428.286 113.743 428.482 113.446 428.618C113.15 428.755 112.83 428.829 112.504 428.837C111.793 428.828 111.114 428.542 110.611 428.04C110.109 427.537 109.822 426.858 109.814 426.147V426.147Z" fill="#513834"/>
<path d="M143.321 288.5C143.321 288.5 154.645 349.335 151.125 351.593C147.605 353.851 130.834 352.855 130.834 352.855L139.834 287.803L143.321 288.5Z" fill="#C14081"/>
<path d="M135.153 286.809C135.153 286.809 153.883 351.031 151.126 351.462C148.37 351.894 130.835 352.724 130.835 352.724L129.673 285.979L135.153 286.809Z" fill="#E5619D"/>
<path d="M110.578 392.873L123.629 290.631L129.673 291.062L125.389 389.918L110.578 392.873Z" fill="#C14081"/>
<path d="M123.262 292.953L100.812 389.949L114.063 394.996L125.387 389.949L115.457 385.898L113.863 384.636L127.944 293.584L123.262 292.953Z" fill="#E5619D"/>
<path d="M79.5567 287.675C83.2098 290.996 198.281 289.767 202.432 285.55C206.583 281.333 204.856 218.074 212.993 208.644C229.033 190.081 218.472 155.845 204.956 152.193C191.44 148.54 124.456 140.404 110.309 153.886C83.7744 179.09 69.8263 278.809 79.5567 287.675Z" fill="#70534D"/>
<path d="M207.385 153.024C196.293 147.811 160.891 147.047 155.379 164.015C139.338 214.19 122.734 217.976 114.863 231.259C101.911 253.142 80.2586 280.736 77.004 280.437C77.0903 283.056 77.9833 285.584 79.5611 287.676C83.2142 290.997 198.285 289.768 202.437 285.551C206.588 281.334 204.861 218.076 212.997 208.645C228.207 191.211 219.706 159.765 207.385 153.024Z" fill="#49322E"/>
<path d="M197.885 266.488H75.0099C75.0099 266.488 73.0506 274.557 75.5745 278.94H200.608C201.279 274.595 200.308 270.156 197.885 266.488V266.488Z" fill="#8C6C67"/>
<path d="M193.47 251.71H75.6419C75.6419 251.71 72.6199 259.746 75.1106 264.13H197.521C198.517 259.115 195.196 256.359 193.47 251.71Z" fill="#8C6C67"/>
<path d="M188.554 236.902H77.0695C77.0695 236.902 74.0475 244.938 76.505 249.321H192.738C192.959 247.073 192.7 244.803 191.979 242.662C191.257 240.521 190.09 238.558 188.554 236.902Z" fill="#8C6C67"/>
<path d="M184.963 222.09H79.7554C79.7554 222.09 75.0396 230.159 77.4639 234.509H188.052C188.435 232.338 188.359 230.111 187.827 227.971C187.295 225.832 186.319 223.828 184.963 222.09V222.09Z" fill="#8C6C67"/>
<path d="M187.688 207.282H82.4472C82.4472 207.282 77.7315 215.351 80.189 219.701H186.161C187.204 215.645 187.717 211.47 187.688 207.282V207.282Z" fill="#8C6C67"/>
<path d="M189.149 192.47H88.391C88.391 192.47 81.251 200.539 83.6753 204.889H187.787C188.763 200.823 189.22 196.651 189.149 192.47V192.47Z" fill="#8C6C67"/>
<path d="M192.638 177.69H93.9062C93.9062 177.69 86.9987 185.726 89.3565 190.109H189.981C191.365 186.092 192.257 181.922 192.638 177.69V177.69Z" fill="#8C6C67"/>
<path d="M195.894 162.884H99.9521C99.9521 162.884 93.3101 170.92 95.5352 175.303H193.304C194.651 171.279 195.521 167.111 195.894 162.884V162.884Z" fill="#8C6C67"/>
<path d="M201.005 148.774H109.413C109.413 148.774 102.007 155.914 103.635 159.799H196.987C198.751 156.293 200.099 152.593 201.005 148.774V148.774Z" fill="#8C6C67"/>
<path d="M85.8359 278.94H126.385C132.148 275.385 137.505 271.209 142.359 266.488H85.3378C85.3378 266.488 83.5777 274.557 85.8359 278.94Z" fill="#AA8581"/>
<path d="M85.603 264.266H144.849C148.57 260.392 151.989 256.24 155.077 251.846H85.9683C85.9683 251.846 83.2784 259.749 85.603 264.266Z" fill="#AA8581"/>
<path d="M86.7978 249.321H156.538L157.866 247.362C160.004 243.978 161.966 240.487 163.744 236.902H87.3624C87.3624 236.902 84.5727 244.938 86.7978 249.321Z" fill="#AA8581"/>
<path d="M87.6614 234.379H164.973C166.868 230.341 168.52 226.194 169.922 221.959H89.6872C89.6872 221.959 85.6024 230.161 87.6614 234.379Z" fill="#AA8581"/>
<path d="M90.0889 219.701H170.689C171.945 215.624 172.965 211.477 173.744 207.282H92.2475C92.2475 207.282 87.897 215.351 90.0889 219.701Z" fill="#AA8581"/>
<path d="M93.2069 204.889H174.172C174.837 200.778 175.258 196.631 175.434 192.47H97.4578C97.4578 192.47 91.0483 200.539 93.2069 204.889Z" fill="#AA8581"/>
<path d="M98.2872 190.109H175.499C175.591 185.963 175.414 181.814 174.968 177.69H102.372C102.372 177.69 96.195 185.726 98.2872 190.109Z" fill="#AA8581"/>
<path d="M103.835 175.303H174.638C174.088 171.104 173.222 166.953 172.047 162.884H107.82C107.82 162.884 101.809 170.92 103.835 175.303Z" fill="#AA8581"/>
<path d="M111.108 159.799H171.085C169.817 156.006 168.251 152.32 166.402 148.774H116.256C116.256 148.774 109.614 155.914 111.108 159.799Z" fill="#AA8581"/>
<path d="M88.3951 192.169H186.43C186.43 192.169 147.076 196.552 126.487 195.49C105.897 194.427 88.3951 192.169 88.3951 192.169Z" fill="#BC9693"/>
<path d="M79.7898 272.832C79.7897 272.443 79.6739 272.063 79.4571 271.74C79.2403 271.417 78.9323 271.166 78.5724 271.019C78.2124 270.871 77.8167 270.835 77.4357 270.913C77.0548 270.991 76.7057 271.181 76.4331 271.458C76.1604 271.736 75.9765 272.088 75.9047 272.47C75.8329 272.852 75.8764 273.247 76.0298 273.605C76.1832 273.962 76.4396 274.266 76.7661 274.477C77.0927 274.688 77.4748 274.797 77.8636 274.791C78.1194 274.791 78.3726 274.74 78.6084 274.641C78.8443 274.542 79.0582 274.397 79.2375 274.215C79.4168 274.033 79.5579 273.817 79.6527 273.579C79.7476 273.341 79.7942 273.087 79.7898 272.832Z" fill="#513834"/>
<path d="M80.8899 257.885C80.8833 257.506 80.7648 257.137 80.5493 256.825C80.3337 256.512 80.0307 256.271 79.6782 256.13C79.3257 255.989 78.9394 255.956 78.568 256.034C78.1966 256.112 77.8565 256.298 77.5905 256.568C77.3244 256.839 77.1442 257.182 77.0725 257.555C77.0008 257.928 77.0409 258.313 77.1876 258.663C77.3343 259.013 77.5812 259.312 77.8972 259.522C78.2132 259.732 78.5842 259.844 78.9638 259.844C79.2195 259.844 79.4728 259.794 79.7087 259.695C79.9446 259.596 80.1583 259.451 80.3376 259.269C80.5169 259.086 80.6581 258.87 80.753 258.633C80.8478 258.395 80.8943 258.141 80.8899 257.885V257.885Z" fill="#513834"/>
<path d="M82.2815 243.511C82.2881 243.12 82.178 242.737 81.9652 242.41C81.7525 242.083 81.4468 241.826 81.0875 241.674C80.7281 241.522 80.3315 241.48 79.9484 241.555C79.5652 241.629 79.213 241.816 78.937 242.092C78.661 242.368 78.4737 242.721 78.3992 243.104C78.3247 243.487 78.3663 243.883 78.5187 244.243C78.6711 244.602 78.9273 244.907 79.2546 245.12C79.5818 245.333 79.9652 245.443 80.3555 245.437C80.8663 245.437 81.3561 245.233 81.7173 244.872C82.0785 244.511 82.2815 244.021 82.2815 243.511V243.511Z" fill="#513834"/>
<path d="M83.9419 228.302C83.9485 227.911 83.8384 227.528 83.6256 227.201C83.4129 226.874 83.1072 226.617 82.7479 226.465C82.3885 226.313 81.9919 226.271 81.6088 226.346C81.2256 226.42 80.8734 226.608 80.5974 226.884C80.3214 227.16 80.1341 227.512 80.0596 227.895C79.9851 228.278 80.0267 228.674 80.1791 229.034C80.3315 229.393 80.5877 229.699 80.915 229.911C81.2422 230.124 81.6256 230.234 82.0159 230.228C82.5267 230.228 83.0165 230.025 83.3777 229.664C83.7389 229.302 83.9419 228.812 83.9419 228.302Z" fill="#513834"/>
<path d="M86.7019 212.794C86.7019 212.413 86.5889 212.04 86.3773 211.724C86.1656 211.407 85.8649 211.16 85.5129 211.014C85.161 210.869 84.7737 210.83 84.4 210.905C84.0264 210.979 83.6832 211.162 83.4139 211.432C83.1445 211.701 82.9611 212.044 82.8868 212.418C82.8124 212.791 82.8505 213.179 82.9963 213.531C83.1421 213.883 83.389 214.183 83.7057 214.395C84.0225 214.607 84.3949 214.72 84.7758 214.72C85.2867 214.72 85.7766 214.517 86.1378 214.155C86.499 213.794 86.7019 213.304 86.7019 212.794V212.794Z" fill="#513834"/>
<path d="M91.9803 198.679C91.9716 198.165 91.7613 197.675 91.3947 197.314C91.0282 196.954 90.5348 196.752 90.0209 196.752C89.51 196.752 89.0202 196.956 88.6589 197.317C88.2977 197.678 88.0947 198.168 88.0947 198.679C88.0947 199.189 88.2977 199.679 88.6589 200.04C89.0202 200.402 89.51 200.605 90.0209 200.605C90.5348 200.605 91.0282 200.403 91.3947 200.043C91.7613 199.682 91.9716 199.192 91.9803 198.679V198.679Z" fill="#513834"/>
<path d="M95.5649 184.566C95.5714 184.176 95.4613 183.792 95.2486 183.465C95.0358 183.138 94.7302 182.882 94.3708 182.729C94.0114 182.577 93.6148 182.535 93.2316 182.61C92.8485 182.684 92.4963 182.872 92.2203 183.147C91.9443 183.423 91.757 183.776 91.6824 184.159C91.6079 184.542 91.6495 184.938 91.8019 185.298C91.9543 185.657 92.2105 185.963 92.5378 186.175C92.8651 186.388 93.2485 186.498 93.6388 186.492C94.1496 186.492 94.6395 186.289 95.0007 185.927C95.3619 185.566 95.5649 185.077 95.5649 184.566V184.566Z" fill="#513834"/>
<path d="M102.472 168.791C102.472 168.41 102.359 168.038 102.148 167.721C101.936 167.405 101.635 167.158 101.283 167.012C100.931 166.866 100.544 166.828 100.17 166.902C99.7967 166.977 99.4535 167.16 99.1841 167.43C98.9148 167.699 98.7313 168.042 98.657 168.416C98.5827 168.789 98.6208 169.177 98.7666 169.528C98.9124 169.88 99.1593 170.181 99.476 170.393C99.7928 170.604 100.165 170.717 100.546 170.717C101.057 170.717 101.547 170.514 101.908 170.153C102.269 169.792 102.472 169.302 102.472 168.791Z" fill="#513834"/>
<path d="M112.735 152.754C112.741 152.365 112.632 151.983 112.421 151.656C112.209 151.33 111.906 151.074 111.548 150.92C111.191 150.767 110.796 150.723 110.414 150.795C110.032 150.867 109.679 151.051 109.402 151.323C109.125 151.596 108.935 151.945 108.856 152.326C108.778 152.707 108.815 153.102 108.962 153.462C109.109 153.822 109.36 154.13 109.683 154.347C110.006 154.564 110.386 154.68 110.775 154.68C111.031 154.684 111.285 154.637 111.523 154.543C111.76 154.448 111.976 154.307 112.159 154.127C112.341 153.948 112.486 153.734 112.585 153.498C112.684 153.263 112.735 153.009 112.735 152.754V152.754Z" fill="#513834"/>
<path d="M196.289 152.756C196.289 152.375 196.176 152.003 195.964 151.686C195.752 151.37 195.452 151.123 195.1 150.977C194.748 150.831 194.36 150.793 193.987 150.867C193.613 150.942 193.27 151.125 193 151.394C192.731 151.664 192.548 152.007 192.473 152.38C192.399 152.754 192.437 153.141 192.583 153.493C192.729 153.845 192.976 154.146 193.292 154.358C193.609 154.569 193.981 154.682 194.362 154.682C194.615 154.682 194.866 154.632 195.1 154.536C195.333 154.439 195.546 154.297 195.725 154.118C195.903 153.939 196.045 153.727 196.142 153.493C196.239 153.26 196.289 153.009 196.289 152.756Z" fill="#513834"/>
<path d="M191.608 168.53C191.608 168.011 191.401 167.512 191.034 167.145C190.666 166.777 190.168 166.571 189.648 166.571C189.177 166.633 188.744 166.864 188.43 167.221C188.117 167.579 187.944 168.038 187.944 168.514C187.944 168.989 188.117 169.448 188.43 169.806C188.744 170.163 189.177 170.394 189.648 170.456C190.162 170.456 190.656 170.254 191.022 169.894C191.389 169.534 191.599 169.044 191.608 168.53V168.53Z" fill="#513834"/>
<path d="M188.289 183.474C188.289 183.216 188.238 182.962 188.14 182.724C188.042 182.486 187.897 182.27 187.715 182.088C187.533 181.906 187.317 181.762 187.08 181.664C186.842 181.565 186.587 181.515 186.33 181.515C185.858 181.576 185.425 181.808 185.112 182.165C184.798 182.522 184.625 182.982 184.625 183.457C184.625 183.933 184.798 184.392 185.112 184.749C185.425 185.107 185.858 185.338 186.33 185.4C186.844 185.4 187.337 185.198 187.704 184.838C188.07 184.477 188.28 183.987 188.289 183.474V183.474Z" fill="#513834"/>
<path d="M185.234 198.943C185.234 198.554 185.119 198.174 184.902 197.852C184.685 197.529 184.377 197.277 184.017 197.13C183.657 196.983 183.261 196.946 182.88 197.025C182.5 197.103 182.151 197.293 181.878 197.57C181.605 197.847 181.421 198.2 181.349 198.582C181.278 198.964 181.321 199.359 181.475 199.716C181.628 200.074 181.884 200.377 182.211 200.589C182.537 200.8 182.92 200.909 183.308 200.903C183.564 200.903 183.817 200.852 184.053 200.753C184.289 200.654 184.503 200.509 184.682 200.327C184.861 200.144 185.003 199.928 185.097 199.691C185.192 199.453 185.239 199.199 185.234 198.943V198.943Z" fill="#513834"/>
<path d="M184.136 213.887C184.136 213.5 184.021 213.121 183.806 212.799C183.591 212.476 183.285 212.225 182.927 212.077C182.569 211.929 182.175 211.89 181.795 211.966C181.415 212.041 181.066 212.228 180.792 212.502C180.518 212.776 180.331 213.125 180.255 213.505C180.18 213.885 180.218 214.279 180.367 214.637C180.515 214.995 180.766 215.301 181.088 215.516C181.411 215.731 181.789 215.846 182.177 215.846C182.436 215.851 182.692 215.803 182.932 215.706C183.172 215.61 183.39 215.465 183.573 215.282C183.755 215.1 183.899 214.882 183.996 214.642C184.093 214.402 184.141 214.146 184.136 213.887Z" fill="#513834"/>
<path d="M183.569 228.568C183.576 228.178 183.465 227.795 183.253 227.468C183.04 227.14 182.734 226.884 182.375 226.732C182.016 226.579 181.619 226.538 181.236 226.612C180.853 226.687 180.501 226.874 180.225 227.15C179.949 227.426 179.761 227.778 179.687 228.161C179.612 228.544 179.654 228.941 179.806 229.3C179.959 229.66 180.215 229.965 180.542 230.178C180.869 230.391 181.253 230.501 181.643 230.494C182.154 230.494 182.644 230.291 183.005 229.93C183.366 229.569 183.569 229.079 183.569 228.568Z" fill="#513834"/>
<path d="M187.156 242.948C187.15 242.568 187.031 242.199 186.816 241.887C186.6 241.574 186.297 241.333 185.945 241.192C185.592 241.051 185.206 241.018 184.834 241.096C184.463 241.174 184.123 241.36 183.857 241.631C183.591 241.901 183.411 242.244 183.339 242.617C183.267 242.99 183.307 243.375 183.454 243.725C183.601 244.075 183.848 244.374 184.164 244.584C184.48 244.794 184.851 244.907 185.23 244.907C185.486 244.907 185.739 244.856 185.975 244.757C186.211 244.658 186.425 244.513 186.604 244.331C186.783 244.148 186.925 243.932 187.019 243.695C187.114 243.457 187.161 243.203 187.156 242.948V242.948Z" fill="#513834"/>
<path d="M191.041 258.188C191.048 257.798 190.938 257.414 190.725 257.087C190.512 256.76 190.207 256.504 189.847 256.351C189.488 256.199 189.091 256.157 188.708 256.232C188.325 256.306 187.973 256.494 187.697 256.77C187.421 257.046 187.234 257.398 187.159 257.781C187.085 258.164 187.126 258.561 187.279 258.92C187.431 259.279 187.687 259.585 188.014 259.798C188.342 260.01 188.725 260.121 189.115 260.114C189.626 260.114 190.116 259.911 190.477 259.55C190.839 259.189 191.041 258.699 191.041 258.188V258.188Z" fill="#513834"/>
<path d="M194.927 273.131C194.934 272.743 194.824 272.361 194.613 272.034C194.402 271.708 194.098 271.451 193.741 271.298C193.383 271.145 192.988 271.101 192.606 271.173C192.224 271.245 191.872 271.429 191.594 271.701C191.317 271.974 191.127 272.323 191.049 272.704C190.97 273.085 191.007 273.48 191.154 273.84C191.302 274.2 191.553 274.508 191.876 274.725C192.199 274.942 192.579 275.057 192.968 275.057C193.223 275.062 193.477 275.015 193.715 274.92C193.952 274.826 194.169 274.684 194.351 274.505C194.534 274.326 194.678 274.112 194.777 273.876C194.876 273.64 194.927 273.387 194.927 273.131V273.131Z" fill="#513834"/>
<g style="mix-blend-mode:multiply" opacity="0.7">
<path d="M168.859 289.465C168.859 289.465 165.903 241.116 205.39 254.332L200.275 286.21L168.859 289.465Z" fill="#754B46"/>
</g>
<path d="M131.135 298.667L115.925 290.1L121.604 280.57L135.984 279.075L141.696 291.627L131.135 298.667Z" fill="#FF88C4"/>
<path d="M63.6496 302.083C63.6496 302.083 70.8229 301.518 69.9594 299.526C63.9485 285.247 61.657 222.088 34.259 210.831C15.1635 202.961 5.93121 219.498 6.86108 227.435C7.82416 236.268 54.7494 278.971 63.6496 302.083Z" fill="#8E8C40"/>
<path d="M36.2525 209.539C32.5459 207.926 28.4765 207.33 24.463 207.812C26.5368 212.495 27.5789 217.568 27.5183 222.689C27.5183 232.252 24.1974 240.554 19.2823 244.771C34.127 261.773 57.6062 286.412 63.6503 302.085C63.6503 302.085 70.8236 301.521 69.9601 299.528C63.9492 285.25 63.6503 220.796 36.2525 209.539Z" fill="#6B6B38"/>
<path d="M69.9584 299.527C64.7113 287.041 68.6633 220.329 34.2582 208.574C39.5053 220.329 40.734 236.933 20.0776 230.856C5.73109 226.639 59.4642 280.666 57.206 290.362C59.7628 294.03 61.9225 297.959 63.6486 302.084C63.6486 302.084 70.8219 301.519 69.9584 299.527Z" fill="#515028"/>
<path d="M183.507 269.645C183.507 269.645 181.282 275.854 183.507 275.987C198.816 276.917 254.409 302.718 275.132 284.588C289.545 272.002 279.25 254.503 271.612 251.912C263.176 249.09 207.916 271.903 183.507 269.645Z" fill="#6B6B38"/>
<path d="M275.195 250.982C272.538 250.086 264.701 251.912 254.472 254.735C254.857 257.986 254.454 261.282 253.298 264.344C252.142 267.407 250.267 270.148 247.83 272.334C235.078 284.554 205.82 278.975 182.474 273.563C182.308 274.858 182.474 276.02 183.304 276.053C198.614 276.983 257.262 303.548 277.984 285.451C292.497 272.766 282.833 253.473 275.195 250.982Z" fill="#515028"/>
<path d="M199.149 243.312C204.529 247.064 227.045 168.531 210.141 158.37C193.237 148.208 185.234 233.582 199.149 243.312Z" fill="#515028"/>
<path d="M209.277 159.232C217.314 154.882 275.065 247.428 278.419 254.302C281.773 261.176 261.582 264.264 242.254 255.664C231.461 250.915 235.778 245.27 226.181 246.698C213.461 248.558 210.904 221.793 201.672 218.804C183.042 212.728 197.189 165.707 209.277 159.232Z" fill="#6B6B38"/>
<path d="M280.544 255.364C277.223 248.49 217.446 154.881 209.277 159.065C197.188 165.707 180.783 213.557 199.314 219.601C200.609 220.032 204.03 219.966 205.092 221.128C205.508 220.308 206.159 219.629 206.961 219.178C207.763 218.727 208.681 218.524 209.598 218.596C210.516 218.667 211.392 219.008 212.115 219.577C212.838 220.146 213.376 220.917 213.66 221.792C220.535 240.62 228.239 221.527 241.722 245.535C247.335 255.497 253.08 260.544 260.22 262.138C272.674 264.064 282.902 260.179 280.544 255.364Z" fill="#515028"/>
<path d="M227.737 245.702L246.069 231.589L249.124 235.839L232.021 249.487L227.737 245.702Z" fill="#513A31"/>
<path d="M229.037 258.253L234.085 277.778L228.97 278.475L223.79 260.112L229.037 258.253Z" fill="#513A31"/>
<path d="M195.761 284.186L198.285 271.501C198.285 271.501 273.936 262.204 276.892 268.181C279.848 274.158 278.154 296.506 268.025 298.067C257.896 299.627 195.761 284.186 195.761 284.186Z" fill="#513834"/>
<path d="M199.942 285.151L204.524 277.846C204.524 277.846 270.445 267.087 273.401 272.997C276.357 278.908 278.15 296.541 268.021 298.234C257.892 299.928 199.942 285.151 199.942 285.151Z" fill="#8C6C67"/>
<path d="M61.392 288.507L54.7501 294.351C54.7501 294.351 0.552184 240.822 3.37499 234.845C6.1978 228.868 17.3894 219.072 24.9944 225.979C32.5994 232.886 61.392 288.507 61.392 288.507Z" fill="#8C6C67"/>
<path d="M280.712 253.634C277.723 255.959 259.358 257.353 255.572 254.63C251.786 251.907 209.909 192.169 229.37 186.291C248.83 180.414 280.712 253.634 280.712 253.634Z" fill="#8C6C67"/>
<path d="M237.174 190.713C237.975 190.497 238.802 190.396 239.631 190.414C235.447 187.093 231.428 185.599 227.875 186.662C208.381 192.539 250.292 251.68 254.077 254.403C256.265 255.439 258.665 255.95 261.085 255.897C251.653 244.042 219.706 195.992 237.174 190.713Z" fill="#513834"/>
<g style="mix-blend-mode:multiply" opacity="0.7">
<path d="M238.829 231.388C241.253 229.761 256.364 217.342 265.829 223.552C265.829 223.552 252.545 200.872 253.142 199.244L227.737 215.449L238.829 231.388Z" fill="#754B46"/>
</g>
<path d="M220.266 227.238C228.302 229.363 240.192 217.276 253.21 215.416C266.228 213.556 277.32 221.559 276.456 214.586C274.763 200.639 238.763 138.576 202.1 147.409C179.285 152.888 220.266 227.238 220.266 227.238Z" fill="#513834"/>
<path d="M134.485 194.529C172.875 196.289 194.793 149.169 194.793 149.169C194.793 149.169 165.635 140.203 117.847 151.925C111.57 153.618 107.153 193.433 134.485 194.529Z" fill="#49322E"/>
<path d="M133.559 192.77C171.086 194.563 193.171 148.739 193.171 148.739C193.171 148.739 167.068 137.847 119.578 149.668C113.368 151.362 106.859 191.508 133.559 192.77Z" fill="#A37674"/>
<path d="M119.574 149.668C118.651 150.074 117.899 150.791 117.449 151.694C129.172 149.303 138.769 152.524 145.112 160.095C152.916 169.459 151.754 180.849 140.264 192.604C173.706 189.283 193.166 148.739 193.166 148.739C193.166 148.739 167.064 137.847 119.574 149.668Z" fill="#8C6461"/>
<path d="M114.962 177.658L133.493 150.263L116.058 180.414L114.962 177.658Z" fill="#513834"/>
<path d="M124.224 191.209L142.29 151.561L127.744 192.869L124.224 191.209Z" fill="#513834"/>
<path d="M146.276 192.141L149.132 154.286L150.593 191.211L146.276 192.141Z" fill="#513834"/>
<path d="M165.309 183.936L157.836 153.22L167.6 181.877L165.309 183.936Z" fill="#513834"/>
<path d="M179.221 170.885L162.816 149.069L181.513 168.163L179.221 170.885Z" fill="#513834"/>
<path d="M189.184 157.601L164.476 146.377L190.646 155.31L189.184 157.601Z" fill="#513834"/>
<path d="M113.765 159.995L132.528 148.24L113.698 162.685L113.765 159.995Z" fill="#513834"/>
<path d="M145.282 510.823L145.98 450.487L141.629 447.73L133.327 511.985L145.282 510.823Z" fill="#513A31"/>
<path d="M136.516 456.496C136.516 455.6 144.586 416.881 144.586 416.881L149.634 451.15L136.516 456.496Z" fill="#634B40"/>
<path d="M151.656 465.994C151.423 465.098 144.848 417.579 144.848 417.579L157.567 465.662L151.656 465.994Z" fill="#634B40"/>
<path d="M51.1969 227.339C53.4884 231.058 48.0752 242.249 44.3889 242.315C40.7027 242.382 39.4407 223.719 40.3706 222.391C41.3005 221.063 47.2782 221.096 51.1969 227.339Z" fill="#6B6B38"/>
<path d="M44.9202 200.606L58.6357 227.569L65.0451 224.216L54.0528 194.197L44.9202 200.606Z" fill="#513A31"/>
<path d="M15.3344 203.993C16.8288 207.314 21.9763 215.151 26.7585 214.553C31.5406 213.955 88.4286 176.963 90.9858 164.278C94.9377 144.354 15.3344 203.993 15.3344 203.993Z" fill="#8C6C67"/>
<path d="M25.064 225.977C24.2086 225.184 23.205 224.568 22.1109 224.163C21.0167 223.758 19.8535 223.574 18.6879 223.619C25.7061 230.498 31.7307 238.321 36.5877 246.864C46.5506 264.032 51.2664 280.701 48.7093 288.14C52.4288 291.892 54.8198 294.25 54.8198 294.25L61.4617 288.405C61.4617 288.405 32.669 232.884 25.064 225.977Z" fill="#513834"/>
<path d="M86.566 160.36C86.6957 160.996 86.6957 161.651 86.566 162.286C84.0421 174.938 26.988 212.096 22.3387 212.528H21.7408C22.4057 213.191 23.1999 213.71 24.0741 214.053C24.9482 214.395 25.8836 214.554 26.8219 214.52C31.438 213.922 88.1933 180.185 91.0493 164.246C91.5807 160.925 89.887 159.862 86.566 160.36Z" fill="#513834"/>
<path d="M67.8674 520.35V532.769C67.8674 532.769 90.0182 545.72 124.058 540.34L67.8674 520.35Z" fill="#D19479"/>
<path d="M62.3576 459.32C73.3649 464.291 83.8453 470.354 93.641 477.418C109.216 488.011 125.257 500.662 133.493 511.986C133.493 511.986 68.1029 518.461 43.8267 510.126L62.3576 459.32Z" fill="#70574C"/>
<path d="M128.909 535.193L108.385 528.718L130.802 526.559L128.909 535.193Z" fill="#D19479"/>
<path d="M39.9409 249.287L62.0917 242.612L63.4201 247.66L42.5976 254.334L39.9409 249.287Z" fill="#513A31"/>
<path d="M21.9068 226.011C21.9068 226.011 12.6414 225.713 3.87405 236.936C0.984819 240.622 -0.177529 237.933 0.0217285 235.907C0.220986 233.881 12.9734 221.528 20.2795 223.986L21.9068 226.011Z" fill="#513834"/>
<path d="M28.6137 212.159C28.6137 212.159 21.4736 212.823 15.9941 201.898C14.2008 198.312 13.0052 201.035 12.9387 203.061C12.8723 205.086 21.2412 217.008 27.1193 214.285L28.6137 212.159Z" fill="#513834"/>
<path d="M159.43 509.064L151.725 461.745L193.868 479.178L215.753 473.899L233.155 503.785C233.155 503.785 174.806 509.795 159.43 509.064Z" fill="#70574C"/>
<path d="M6.49795 237.132C5.43524 235.273 18.055 227.17 20.4793 228C22.9036 228.831 37.2833 255.96 35.0582 258.816C32.8332 261.672 9.95175 243.209 6.49795 237.132Z" fill="#BC9693"/>
<path d="M21.6725 201.168L29.2443 204.688C29.2443 204.688 70.2913 175.001 65.7748 174.437C61.2583 173.872 21.6725 201.168 21.6725 201.168Z" fill="#BC9693"/>
<path d="M190.612 525.329C192.166 531.733 194.335 537.972 197.088 543.958C197.088 543.958 228.305 542.364 240.028 533.83L190.612 525.329Z" fill="#D19479"/>
<path d="M215.751 522.509L243.282 528.586L241.688 516.034L215.751 522.509Z" fill="#D19479"/>
<g style="mix-blend-mode:multiply" opacity="0.7">
<path d="M239.631 377.731L238.701 372.352C238.524 371.379 237.998 370.504 237.221 369.893C236.444 369.281 235.471 368.974 234.483 369.031H232.923C232.524 367.57 232.126 366.075 231.76 364.648C232.645 364.387 233.424 363.852 233.985 363.12C234.36 362.605 234.615 362.012 234.729 361.386C234.844 360.759 234.817 360.115 234.65 359.501L231.96 349.804L228.174 345.521C227.533 345.303 226.858 345.202 226.181 345.222H225.982C225.683 344.226 225.351 343.196 225.019 342.233H225.351C212.233 327.124 199.148 310.986 184.536 291.361L172.88 291.726L170.09 294.117C196.259 326.991 215.82 351.498 239.631 377.731Z" fill="#754B46"/>
</g>
<path d="M172.78 288.206L182.743 279.539C223.624 335.16 251.553 362.556 299.972 414.258C304.223 418.774 294.127 425.283 290.806 422.028C239.232 371.488 214.391 340.341 172.78 288.206Z" fill="#442F28"/>
<path d="M181.911 282.824L176.298 287.672C218.441 339.474 248.33 367.201 298.144 415.849C251.817 366.604 221.762 335.854 181.911 282.824Z" fill="#E0A246"/>
<path d="M201.573 284.19L205.06 278.246C205.06 278.246 268.988 268.715 268.158 277.183C266.365 299.465 201.573 284.19 201.573 284.19Z" fill="#BC9693"/>
<path d="M273.136 271.634C273.933 275.154 268.819 294.049 264.468 297.834C260.118 301.62 262.609 302.948 268.819 301.62C275.029 300.292 281.239 287.308 277.719 274.324C274.199 261.341 273.136 271.634 273.136 271.634Z" fill="#513834"/>
<path d="M221.93 219.533C228.572 221.292 238.07 211.496 248.498 209.836C258.926 208.176 272.176 214.12 271.479 208.408C270.117 196.985 238.568 143.622 208.946 150.861C190.581 155.378 221.93 219.533 221.93 219.533Z" fill="#BC9693"/>
<path d="M216.086 198.713C214.924 199.61 215.92 203.163 217.979 202.698C221.798 201.834 241.225 190.743 236.809 191.573C231.728 192.503 219.772 195.824 216.086 198.713Z" fill="#D8B4B2"/>
<path d="M220.731 210.072C219.569 210.968 220.565 214.521 222.624 214.056C226.477 213.16 245.871 202.102 241.454 202.899C236.24 203.862 224.451 207.149 220.731 210.072Z" fill="#D8B4B2"/>
<path d="M211.8 183.271C210.637 184.068 211.202 187.223 213.228 187.521C216.283 187.92 235.378 178.29 230.862 178.755C225.382 179.319 215.486 180.648 211.8 183.271Z" fill="#D8B4B2"/>
<path d="M207.017 171.519C205.788 172.25 206.685 174.541 208.843 174.84C212.164 175.437 232.455 167.468 227.64 167.634C221.961 167.966 211.068 169.128 207.017 171.519Z" fill="#D8B4B2"/>
<path d="M203.795 161.324C202.5 161.954 203.031 164.644 205.19 165.109C208.511 165.939 230.993 158.468 226.112 158.169C220.366 158.003 208.012 159.165 203.795 161.324Z" fill="#D8B4B2"/>
<path d="M208.48 150.531C206.839 150.908 205.403 151.893 204.461 153.287C217.081 151.029 231.726 163.515 238.103 182.476C241.709 192.545 241.709 203.554 238.103 213.623C241.546 211.976 245.218 210.857 248.995 210.303C259.722 208.609 273.238 214.653 272.541 208.842C271.013 197.352 238.7 143.159 208.48 150.531Z" fill="#8C6C67"/>
<path d="M201.84 162.287C210.839 158.103 229.271 153.886 239.2 159.498C231.031 157.373 221.533 157.372 201.84 162.287Z" fill="#513834"/>
<g style="mix-blend-mode:multiply" opacity="0.5">
<path d="M175.035 164.376C194.932 163.235 214.678 160.233 234.016 155.41C224.053 148.503 213.093 144.751 202.101 147.407C201.044 147.656 200.049 148.12 199.179 148.769H193.168C186.643 146.501 179.838 145.138 172.943 144.718L169.39 126.421C159.194 127.185 149.464 128.28 140.464 129.742L138.737 141.729C138.108 141.424 137.498 141.08 136.911 140.7C136.568 141.109 136.288 141.568 136.081 142.061C136.833 142.814 137.597 143.511 138.372 144.153L138.106 146.013C136.512 146.245 134.785 146.544 133.258 146.843C129.184 147.171 125.143 147.814 121.169 148.769H109.546C107.677 150.595 106.058 152.661 104.731 154.912C101.327 156.061 97.9991 157.426 94.7678 158.996C109.579 164.376 140.099 166.733 175.035 164.376Z" fill="#AA3529"/>
</g>
<path d="M124.492 88.271C124.492 86.4869 123.976 84.7409 123.007 83.2428C122.038 81.7447 120.657 80.5581 119.031 79.8257C117.404 79.0933 115.6 78.8462 113.836 79.1141C112.072 79.3819 110.422 80.1534 109.086 81.3358C107.75 82.5182 106.784 84.0611 106.303 85.7793C105.823 87.4975 105.849 89.3179 106.378 91.0217C106.907 92.7255 107.917 94.2402 109.287 95.3839C110.656 96.5276 112.327 97.2518 114.098 97.4692C115.385 97.5502 116.675 97.3761 117.895 96.9573C119.114 96.5384 120.239 95.883 121.205 95.0284C122.171 94.1738 122.958 93.1369 123.522 91.9773C124.087 90.8177 124.416 89.5582 124.492 88.271V88.271Z" fill="#543C36"/>
<path d="M82.7477 139.437L110.411 97.2317L123.396 98.5268L95.8322 139.437H82.7477Z" fill="#775650"/>
<path d="M111.506 97.3677C111.517 105.58 109.498 113.668 105.628 120.911C102.307 127.993 97.5451 134.304 91.6464 139.44H95.8307L123.362 98.53L111.506 97.3677Z" fill="#543C36"/>
<path d="M113.733 99.1634C118.382 116.265 127.98 135.325 138.109 143.627L140.334 141.767L126.021 98.9309L113.733 99.1634Z" fill="#E5619D"/>
<path d="M149.098 146.482C139.136 150.334 122.531 120.282 120.405 101.421C138.04 74.5237 178.954 101.222 178.954 101.222C178.954 101.222 173.009 137.151 149.098 146.482Z" fill="#9B7A75"/>
<g style="mix-blend-mode:multiply" opacity="0.7">
<path d="M124.689 109.587C154.312 109.587 166.002 118.387 168.393 129.113C173.5 120.496 177.073 111.058 178.954 101.22C178.954 101.22 138.04 74.6545 120.405 101.419C120.764 104.189 121.319 106.93 122.066 109.621L124.689 109.587Z" fill="#754B46"/>
</g>
<path d="M179.519 100.556L158.863 141.035L159.892 142.064L187.821 111.05L179.519 100.556Z" fill="#E5619D"/>
<path d="M225.978 142.53L194.03 98.2319L190.709 91.5906C189.945 75.7843 183.602 56.4248 154.743 55.5947C132.028 54.9305 113.563 70.5045 113.264 93.6494L107.552 102.25L174.835 102.516L178.953 138.08L225.978 142.53Z" fill="#775650"/>
<path d="M115.891 85.4462C120.341 70.8354 127.215 60.7405 144.219 58.084C144.219 58.084 118.813 83.6199 115.891 85.4462Z" fill="#AD827D"/>
<path d="M194.03 98.23L190.709 91.5887C190.144 80.0993 186.591 66.7502 173.639 59.9761C173.916 60.8333 174.126 61.7104 174.27 62.5995C176.993 78.6383 159.093 95.0091 134.418 99.1267C125.684 100.588 134.717 102.281 134.717 102.281L174.934 102.447L178.952 138.078L225.977 142.66L194.03 98.23Z" fill="#543C36"/>
<path d="M149.299 148.569C153.78 147.438 157.81 144.972 160.856 141.496C160.841 141.23 160.768 140.97 160.642 140.734C160.516 140.499 160.339 140.295 160.125 140.135C156.339 141.893 152.288 143.015 148.137 143.455C144.144 143.913 140.118 142.936 136.779 140.699C136.436 141.109 136.156 141.568 135.949 142.061C140.631 146.809 145.38 149.267 149.299 148.569Z" fill="#543C36"/>
<path d="M245.507 227.733L256.034 224.91C256.034 224.91 270.613 252.87 265.765 253.07C260.916 253.269 245.507 227.733 245.507 227.733Z" fill="#BC9693"/>
<path d="M254.208 250.518C262.312 252.483 270.806 252.126 278.717 249.489C291.303 245.039 287.417 255.067 277.123 256.13C270.23 257.031 263.236 256.761 256.433 255.333L254.208 250.518Z" fill="#513834"/>
<path d="M259.29 192.77L258.892 207.779C258.892 207.779 270.415 212.628 270.415 206.152C270.415 199.677 259.29 192.77 259.29 192.77Z" fill="#9E7672"/>
<path d="M197.882 85.2157C197.619 83.4513 196.853 81.8002 195.674 80.4607C194.496 79.1213 192.956 78.1505 191.239 77.665C189.522 77.1796 187.702 77.2001 185.997 77.724C184.291 78.2479 182.773 79.2529 181.625 80.6184C180.477 81.984 179.748 83.6519 179.525 85.4218C179.302 87.1918 179.595 88.9886 180.368 90.5961C181.141 92.2037 182.362 93.5537 183.885 94.4843C185.407 95.4148 187.165 95.8863 188.949 95.8418C191.528 95.5807 193.903 94.3248 195.571 92.3408C197.239 90.3568 198.068 87.8009 197.882 85.2157Z" fill="#543C36"/>
<path d="M82.4473 207.282H186.692C186.692 207.282 144.848 211.698 122.963 210.602C101.078 209.507 82.4473 207.282 82.4473 207.282Z" fill="#BC9693"/>
<path d="M82.4473 222.423H186.692C186.692 222.423 144.848 226.807 122.963 225.744C101.078 224.681 82.4473 222.423 82.4473 222.423Z" fill="#BC9693"/>
<path d="M82.2836 236.999H186.528C186.528 236.999 144.684 241.382 122.799 240.319C100.914 239.257 82.2836 236.999 82.2836 236.999Z" fill="#BC9693"/>
<path d="M82.2836 251.846H186.528C186.528 251.846 144.684 256.229 122.799 255.167C100.914 254.104 82.2836 251.846 82.2836 251.846Z" fill="#BC9693"/>
<path d="M82.2836 266.686H186.528C186.528 266.686 144.684 271.103 122.799 270.007C100.914 268.911 82.2836 266.686 82.2836 266.686Z" fill="#BC9693"/>
<path d="M219.37 211.133C226.318 205.698 234.462 202.001 243.127 200.35C251.791 198.698 260.725 199.139 269.185 201.636C254.241 199.51 239.595 201.901 219.37 211.133Z" fill="#513834"/>
<path d="M215.52 199.046C222.468 193.614 230.613 189.919 239.277 188.267C247.941 186.616 256.874 187.055 265.334 189.549C250.39 187.557 235.744 189.948 215.52 199.046Z" fill="#513834"/>
<path d="M209.373 184.566C216.171 179.749 224.025 176.631 232.277 175.476C240.529 174.32 248.937 175.16 256.797 177.925C242.948 175.435 229 176.929 209.373 184.566Z" fill="#513834"/>
<path d="M204.926 172.217C215.686 167.203 237.605 162.255 249.461 168.897C239.863 166.373 228.572 166.373 204.926 172.217Z" fill="#513834"/>
<path d="M147.936 106.363C149.231 109.684 160.987 124.427 169.156 107.492L147.936 106.363Z" fill="#543330"/>
<path d="M143.121 106.102C141.826 109.622 130.336 124.732 122.365 107.231L143.121 106.102Z" fill="#543330"/>
<path d="M136.976 137.546C136.86 137.595 136.736 137.62 136.611 137.62C136.485 137.62 136.361 137.595 136.245 137.546C136.13 137.484 136.029 137.399 135.949 137.296C135.869 137.193 135.812 137.074 135.78 136.948C135.336 135.463 135.216 133.9 135.428 132.365C135.64 130.829 136.179 129.357 137.009 128.048C138.208 126.603 139.744 125.475 141.481 124.763C143.218 124.051 145.104 123.776 146.972 123.964C148.977 123.773 150.998 124.062 152.869 124.807C154.74 125.551 156.407 126.731 157.732 128.248C159.245 130.415 159.917 133.059 159.625 135.686C159.607 135.924 159.538 136.156 159.422 136.365C159.306 136.574 159.147 136.756 158.955 136.898C158.762 137.04 158.542 137.138 158.308 137.187C158.074 137.236 157.832 137.233 157.599 137.18C157.337 137.098 157.111 136.927 156.959 136.697C156.808 136.467 156.741 136.192 156.769 135.918C157.09 133.892 156.64 131.818 155.507 130.107C154.444 128.962 153.127 128.083 151.662 127.541C150.196 126.998 148.624 126.808 147.072 126.986C145.687 126.834 144.286 127.01 142.982 127.5C141.678 127.991 140.508 128.782 139.566 129.808C138.561 131.446 138.217 133.405 138.603 135.287C138.682 135.76 138.597 136.245 138.361 136.662C138.125 137.079 137.754 137.403 137.308 137.579L136.976 137.546Z" fill="#543330"/>
<path d="M142.953 124.201C137.142 128.883 132.559 137.185 141.791 149.671C151.023 162.156 141.027 172.915 134.02 175.904C134.02 175.904 147.105 162.256 137.009 152.128C127.81 142.963 128.773 126.824 142.953 124.201Z" fill="#F4D4D3"/>
<path d="M155.71 125.656C160.027 130.703 163.249 136.946 155.245 148.901C147.242 160.855 151.094 174.835 156.441 178.222C156.441 178.222 149.965 163.611 158.732 155.509C168.628 146.31 166.868 129.242 155.71 125.656Z" fill="#F4D4D3"/>
<path d="M142.057 148.039C135.049 139.139 133.289 129.974 142.621 124.031C139.4 131.602 136.079 137.413 142.057 148.039Z" fill="#F4D4D3"/>
<path d="M156.11 141.398C161.025 134.358 161.656 127.717 153.453 124.562C156.84 129.643 160.095 133.362 156.11 141.398Z" fill="#F4D4D3"/>
<path d="M136.148 157.668C128.011 146.212 125.952 134.424 136.712 126.886C132.926 136.549 129.107 143.987 136.148 157.668Z" fill="#F4D4D3"/>
<path d="M164.109 156.773C169.987 144.221 169.854 132.499 157.899 127.219C163.411 135.82 168.625 142.262 164.109 156.773Z" fill="#F4D4D3"/>
<path d="M161.72 176.965C153.683 165.375 152.023 153.72 163.513 146.746C159.196 156.077 154.912 163.217 161.72 176.965Z" fill="#F4D4D3"/>
<path d="M140.233 121.175C143.938 122.094 147.827 121.956 151.457 120.776C153.184 119.348 146.077 105.966 146.077 105.966C146.077 105.966 138.439 119.249 140.233 121.175Z" fill="#BC9693"/>
<path d="M152.021 119.982C152.021 119.484 150.692 119.351 149.43 119.75C148.168 120.148 147.272 120.846 147.405 121.344C147.537 121.842 148.733 121.975 149.995 121.609C151.257 121.244 152.253 120.514 152.021 119.982Z" fill="#543330"/>
<path d="M144.152 121.241C144.152 120.709 143.322 120.078 142.06 119.813C140.798 119.547 139.668 119.813 139.536 120.311C139.403 120.809 140.366 121.473 141.628 121.739C142.89 122.004 144.019 121.772 144.152 121.241Z" fill="#543330"/>
<path d="M152.258 107.926C152.258 107.926 157.604 116.626 165.542 108.59L152.258 107.926Z" fill="#30201C"/>
<path d="M138.904 107.83C138.904 107.83 134.52 116.663 127.447 108.826L138.904 107.83Z" fill="#30201C"/>
<path d="M179.153 98.7949H111.903V102.846H179.153V98.7949Z" fill="#FFC466"/>
<path d="M193.17 85.6102C193.294 84.5828 193.187 83.5407 192.859 82.5595C192.53 81.5784 191.986 80.6829 191.268 79.9377C190.55 79.1925 189.675 78.6163 188.707 78.2512C187.739 77.8861 186.701 77.7411 185.67 77.8266C184.639 77.9121 183.639 78.2261 182.744 78.7457C181.849 79.2654 181.081 79.9776 180.496 80.8309C179.91 81.6842 179.522 82.657 179.359 83.6789C179.196 84.7008 179.263 85.7462 179.554 86.7391C179.43 87.7665 179.537 88.8087 179.866 89.7898C180.195 90.771 180.738 91.6665 181.456 92.4116C182.174 93.1568 183.049 93.733 184.017 94.0981C184.986 94.4633 186.023 94.6082 187.054 94.5227C188.086 94.4372 189.085 94.1232 189.98 93.6036C190.875 93.0839 191.643 92.3717 192.229 91.5184C192.814 90.6652 193.202 89.6923 193.365 88.6704C193.528 87.6485 193.462 86.6032 193.17 85.6102V85.6102Z" fill="#775650"/>
<path d="M223.986 223.851C223.941 223.377 223.759 222.927 223.463 222.554C223.167 222.182 222.77 221.904 222.319 221.753C221.868 221.602 221.382 221.585 220.922 221.704C220.462 221.824 220.046 222.074 219.725 222.426C219.404 222.777 219.192 223.213 219.115 223.683C219.037 224.152 219.098 224.634 219.288 225.069C219.479 225.505 219.793 225.876 220.19 226.137C220.588 226.398 221.053 226.538 221.528 226.54C222.209 226.506 222.85 226.204 223.31 225.7C223.77 225.197 224.013 224.532 223.986 223.851V223.851Z" fill="#FFC466"/>
<path d="M276.625 214.652C276.573 214.187 276.389 213.747 276.093 213.385C275.798 213.023 275.404 212.754 274.959 212.61C274.514 212.467 274.037 212.455 273.585 212.577C273.134 212.698 272.727 212.947 272.414 213.295C272.101 213.642 271.895 214.072 271.821 214.534C271.747 214.996 271.808 215.469 271.997 215.896C272.186 216.324 272.494 216.688 272.885 216.944C273.276 217.201 273.733 217.339 274.2 217.342C274.536 217.325 274.866 217.242 275.169 217.097C275.473 216.953 275.745 216.75 275.971 216.5C276.196 216.25 276.37 215.958 276.482 215.641C276.594 215.324 276.643 214.988 276.625 214.652V214.652Z" fill="#FFC466"/>
<path d="M203.431 274.588C203.431 273.945 203.176 273.328 202.721 272.874C202.266 272.419 201.65 272.164 201.007 272.164C200.364 272.164 199.747 272.419 199.293 272.874C198.838 273.328 198.582 273.945 198.582 274.588C198.582 275.231 198.838 275.847 199.293 276.302C199.747 276.757 200.364 277.012 201.007 277.012C201.65 277.012 202.266 276.757 202.721 276.302C203.176 275.847 203.431 275.231 203.431 274.588V274.588Z" fill="#FFC466"/>
<path d="M53.0935 192.605C53.0935 191.962 52.8381 191.346 52.3835 190.891C51.9288 190.437 51.3122 190.181 50.6693 190.181C50.0263 190.181 49.4097 190.437 48.955 190.891C48.5004 191.346 48.245 191.962 48.245 192.605C48.245 193.248 48.5004 193.865 48.955 194.319C49.4097 194.774 50.0263 195.029 50.6693 195.029C51.3122 195.029 51.9288 194.774 52.3835 194.319C52.8381 193.865 53.0935 193.248 53.0935 192.605V192.605Z" fill="#FFC466"/>
<path d="M58.1375 288.104C58.0862 287.639 57.9017 287.2 57.6061 286.837C57.3105 286.475 56.9165 286.206 56.4715 286.063C56.0265 285.919 55.5495 285.908 55.0981 286.029C54.6466 286.15 54.2399 286.4 53.9269 286.747C53.6139 287.094 53.408 287.525 53.334 287.986C53.26 288.448 53.3211 288.921 53.5099 289.349C53.6986 289.776 54.007 290.14 54.398 290.397C54.7889 290.653 55.2456 290.791 55.7131 290.794C56.0491 290.777 56.3784 290.694 56.6822 290.549C56.986 290.405 57.2583 290.202 57.4835 289.952C57.7087 289.702 57.8823 289.41 57.9946 289.093C58.1068 288.776 58.1554 288.44 58.1375 288.104V288.104Z" fill="#FFC466"/>
<path d="M28.9456 180.187C28.9456 180.187 41.1666 202.269 54.1516 197.321C67.1365 192.374 98.3535 172.383 96.5269 153.688C96.0288 148.641 32.4658 171.586 28.9456 180.187Z" fill="#8C6C67"/>
<path d="M95.5651 152.886C96.9599 148.536 33.0314 171.216 29.9429 179.019C31.2964 180.451 32.5398 181.983 33.6623 183.602C44.9868 176.562 90.1519 169.888 95.5651 152.886Z" fill="#BC9693"/>
<path d="M97.8585 152.822C97.8585 152.125 96.497 151.959 94.3716 152.191C90.4528 169.392 66.874 185.796 54.9185 190.345C44.9557 194.064 35.7566 183.007 31.3397 176.664C29.8356 177.594 28.5635 178.855 27.6202 180.35C27.6202 180.35 40.3395 203.296 53.8226 198.182C67.3057 193.068 99.7515 172.248 97.8585 152.822Z" fill="#513834"/>
<path d="M41.402 171.183L55.1839 188.716L44.3908 169.556L41.402 171.183Z" fill="#513834"/>
<path d="M54.6517 165.139L64.4155 183.103L57.4082 163.943L54.6517 165.139Z" fill="#513834"/>
<path d="M65.7432 160.861L73.8132 176.036L68.0346 159.865L65.7432 160.861Z" fill="#513834"/>
<path d="M79.0601 156.739L83.5766 170.42L80.9198 156.075L79.0601 156.739Z" fill="#513834"/>
<path d="M179.953 297.305L189.949 288.904L183.208 278.112L171.319 288.107L179.953 297.305Z" fill="#FFC466"/>
<path d="M175.068 271.471C173.241 280.337 189.082 277.581 189.082 277.581L189.414 266.291C189.414 266.291 176.894 262.638 175.068 271.471Z" fill="#BC9693"/>
<path d="M146.878 506.307C98.6907 509.993 75.1451 509.993 42.7658 503.352L40.74 510.624C40.74 510.624 74.7465 521.15 147.01 512.649L146.878 506.307Z" fill="#E0A246"/>
<path d="M158.097 504.48C201.967 503.052 225.446 500.628 253.741 495.614L256.232 502.654C256.232 502.654 220.996 512.383 158.662 510.856L158.097 504.48Z" fill="#E0A246"/>
<path d="M66.2418 314.075C66.2418 314.075 85.5034 318.525 85.9019 301.722L69.4963 302.918L66.2418 314.075Z" fill="#513834"/>
<path d="M65.6779 307.434C69.663 308.131 73.0504 307.434 73.2829 306.172C73.5154 304.91 70.4933 303.117 66.641 302.452C62.7886 301.788 61.9251 302.751 61.6927 304.113C61.4602 305.474 61.7923 306.902 65.6779 307.434Z" fill="#8C6C67"/>
<path d="M64.9441 310.418C68.896 311.082 72.3166 310.418 72.5491 309.123C72.7815 307.828 69.7595 306.067 65.9072 305.403C62.0549 304.739 61.2246 305.702 60.9921 307.097C60.7596 308.492 60.9589 309.72 64.9441 310.418Z" fill="#8C6C67"/>
<path d="M59.7667 296.477L70.0284 291.628C70.0284 291.628 79.2274 307.069 73.8475 309.892C68.4676 312.714 62.3571 308.398 59.7667 296.477Z" fill="#BC9693"/>
<path d="M194.296 101.554L183.469 103.978C183.469 103.978 186.093 136.388 186.591 136.587C188.716 137.384 216.945 138.413 216.945 138.413L194.296 101.554Z" fill="#775650"/>
<path d="M193.601 86.6439C193.601 83.8214 192.438 81.53 191.01 81.53C189.582 81.53 188.453 83.8214 188.453 86.6439C188.453 89.4664 189.615 91.7908 191.01 91.7908C192.405 91.7908 193.601 89.4996 193.601 86.6439Z" fill="#AD827D"/>
<g style="mix-blend-mode:multiply" opacity="0.5">
<path d="M144.549 79.3693C158.338 79.8265 171.888 75.6918 183.072 67.6144C181.375 65.4449 179.373 63.5322 177.128 61.936C169.444 67.4042 160.288 70.4249 150.859 70.6028C140.631 70.304 137.11 65.4558 137.808 58.084C132.851 59.9135 128.328 62.7516 124.524 66.4188C124.225 74.0562 129.671 78.9709 144.549 79.3693Z" fill="#75302D"/>
</g>
<path d="M175.269 7.01206C175.003 4.58799 173.741 2.89435 172.346 2.96076C170.951 3.02718 169.855 4.8535 169.689 7.27757C167.697 39.5543 159.726 67.0493 139.568 66.3851C118.779 65.5218 112.602 36.4994 111.539 3.85741C111.539 1.93143 110.61 0.304228 109.514 0.0385755C108.418 -0.227077 107.388 0.901937 107.056 2.72829C106.193 7.76462 105.727 12.8609 105.661 17.9702C105.097 51.1767 110.311 78.1735 139.336 79.369C168.361 80.5644 175.435 54.0323 175.866 20.9254C175.991 16.2793 175.791 11.6304 175.269 7.01206Z" fill="#543C36"/>
<path d="M110.809 3.85542C111.839 36.3646 117.916 65.5197 138.273 66.3831C138.805 66.3831 139.303 66.3831 139.834 66.3831C119.909 65.0216 113.964 36.132 112.901 3.95494C112.901 2.02896 112.038 0.401964 110.942 0.136312C110.694 0.0863675 110.438 0.103075 110.198 0.184752C109.959 0.266429 109.746 0.409994 109.58 0.601049C110.36 1.50744 110.795 2.6599 110.809 3.85542V3.85542Z" fill="#30201C"/>
<path d="M175.267 7.00997C174.968 4.5859 173.772 2.89226 172.411 2.95867C172.043 2.97505 171.692 3.1155 171.414 3.35714C172.446 4.30197 173.066 5.61341 173.141 7.00997C173.696 11.626 173.93 16.2749 173.839 20.9233C173.307 53.2665 166.632 79.3005 139.732 79.3337H140.031C168.492 80.5291 175.433 53.9972 175.964 20.8903C176.037 16.2532 175.804 11.6164 175.267 7.00997V7.00997Z" fill="#30201C"/>
<path d="M140.667 66.3877C160.826 67.2179 168.763 39.5569 170.789 7.28027C170.739 6.44577 170.921 5.61382 171.313 4.87572C171.706 4.13763 172.294 3.5219 173.014 3.09623C172.817 3.04703 172.612 3.04703 172.416 3.09623C171.054 3.09623 169.925 4.98916 169.759 7.41323C167.767 39.2914 159.996 66.587 140.402 66.4874L140.667 66.3877Z" fill="#30201C"/>
<path d="M106.723 17.969C106.816 12.8598 107.293 7.76468 108.151 2.72708C108.191 2.1996 108.357 1.68935 108.634 1.23882C108.911 0.788291 109.292 0.410625 109.745 0.13707C109.745 0.13707 109.745 0.13707 109.745 0.13707C108.649 -0.161789 107.62 1.00043 107.287 2.82679C106.425 7.86312 105.958 12.9592 105.893 18.0685C105.328 51.275 110.542 78.2719 139.567 79.4674H140.431C111.372 78.0395 106.192 51.0095 106.723 17.969Z" fill="#30201C"/>
<path d="M177.793 133.893L223.456 137.413L227.508 143.092L178.623 139.04L177.793 133.893Z" fill="#E0A246"/>
<path d="M99.7517 135.79L96.796 139.309L80.5897 140.671L83.5454 134.993L99.7517 135.79Z" fill="#FFC466"/>
<path d="M208.079 166.572C209.069 166.572 209.872 165.769 209.872 164.778C209.872 163.788 209.069 162.985 208.079 162.985C207.088 162.985 206.286 163.788 206.286 164.778C206.286 165.769 207.088 166.572 208.079 166.572Z" fill="#513834"/>
<path d="M210.271 177.923C211.262 177.923 212.065 177.12 212.065 176.13C212.065 175.14 211.262 174.337 210.271 174.337C209.281 174.337 208.478 175.14 208.478 176.13C208.478 177.12 209.281 177.923 210.271 177.923Z" fill="#513834"/>
<path d="M215.953 191.774C216.943 191.774 217.746 190.971 217.746 189.981C217.746 188.99 216.943 188.188 215.953 188.188C214.962 188.188 214.159 188.99 214.159 189.981C214.159 190.971 214.962 191.774 215.953 191.774Z" fill="#513834"/>
<path d="M220.099 205.187C221.089 205.187 221.892 204.384 221.892 203.393C221.892 202.403 221.089 201.6 220.099 201.6C219.109 201.6 218.306 202.403 218.306 203.393C218.306 204.384 219.109 205.187 220.099 205.187Z" fill="#513834"/>
<path d="M224.552 216.244C225.543 216.244 226.346 215.442 226.346 214.451C226.346 213.461 225.543 212.658 224.552 212.658C223.562 212.658 222.759 213.461 222.759 214.451C222.759 215.442 223.562 216.244 224.552 216.244Z" fill="#513834"/>
<path d="M259.689 249.586C260.679 249.586 261.482 248.783 261.482 247.793C261.482 246.802 260.679 246 259.689 246C258.699 246 257.896 246.802 257.896 247.793C257.896 248.783 258.699 249.586 259.689 249.586Z" fill="#513834"/>
<path d="M271.579 248.622C272.569 248.622 273.372 247.82 273.372 246.829C273.372 245.839 272.569 245.036 271.579 245.036C270.588 245.036 269.785 245.839 269.785 246.829C269.785 247.82 270.588 248.622 271.579 248.622Z" fill="#513834"/>
<path d="M266.593 277.943C267.583 277.943 268.386 277.141 268.386 276.15C268.386 275.16 267.583 274.357 266.593 274.357C265.603 274.357 264.8 275.16 264.8 276.15C264.8 277.141 265.603 277.943 266.593 277.943Z" fill="#513834"/>
<path d="M250.292 277.943C251.282 277.943 252.085 277.141 252.085 276.15C252.085 275.16 251.282 274.357 250.292 274.357C249.301 274.357 248.498 275.16 248.498 276.15C248.498 277.141 249.301 277.943 250.292 277.943Z" fill="#513834"/>
<path d="M235.609 279.341C236.599 279.341 237.402 278.539 237.402 277.548C237.402 276.558 236.599 275.755 235.609 275.755C234.619 275.755 233.816 276.558 233.816 277.548C233.816 278.539 234.619 279.341 235.609 279.341Z" fill="#513834"/>
<path d="M221.499 280.435C222.489 280.435 223.292 279.632 223.292 278.642C223.292 277.652 222.489 276.849 221.499 276.849C220.508 276.849 219.706 277.652 219.706 278.642C219.706 279.632 220.508 280.435 221.499 280.435Z" fill="#513834"/>
<path d="M206.816 283.221C207.807 283.221 208.61 282.418 208.61 281.428C208.61 280.438 207.807 279.635 206.816 279.635C205.826 279.635 205.023 280.438 205.023 281.428C205.023 282.418 205.826 283.221 206.816 283.221Z" fill="#513834"/>
<path d="M46.0504 281.829C47.0409 281.829 47.8438 281.026 47.8438 280.036C47.8438 279.045 47.0409 278.243 46.0504 278.243C45.06 278.243 44.2571 279.045 44.2571 280.036C44.2571 281.026 45.06 281.829 46.0504 281.829Z" fill="#513834"/>
<path d="M39.6724 261.641C40.6628 261.641 41.4656 260.838 41.4656 259.847C41.4656 258.857 40.6628 258.054 39.6724 258.054C38.6819 258.054 37.879 258.857 37.879 259.847C37.879 260.838 38.6819 261.641 39.6724 261.641Z" fill="#513834"/>
<path d="M32.4668 249.455C33.4573 249.455 34.2602 248.652 34.2602 247.662C34.2602 246.672 33.4573 245.869 32.4668 245.869C31.4764 245.869 30.6735 246.672 30.6735 247.662C30.6735 248.652 31.4764 249.455 32.4668 249.455Z" fill="#513834"/>
<path d="M21.5397 235.073C22.5302 235.073 23.3331 234.27 23.3331 233.279C23.3331 232.289 22.5302 231.486 21.5397 231.486C20.5493 231.486 19.7465 232.289 19.7465 233.279C19.7465 234.27 20.5493 235.073 21.5397 235.073Z" fill="#513834"/>
<path d="M37.6164 201.301C38.6068 201.301 39.4098 200.498 39.4098 199.508C39.4098 198.518 38.6068 197.715 37.6164 197.715C36.626 197.715 35.8231 198.518 35.8231 199.508C35.8231 200.498 36.626 201.301 37.6164 201.301Z" fill="#513834"/>
<path d="M46.3169 187.191C47.3074 187.191 48.1102 186.389 48.1102 185.398C48.1102 184.408 47.3074 183.605 46.3169 183.605C45.3265 183.605 44.5236 184.408 44.5236 185.398C44.5236 186.389 45.3265 187.191 46.3169 187.191Z" fill="#513834"/>
<path d="M57.674 184.965C58.6645 184.965 59.4674 184.162 59.4674 183.172C59.4674 182.182 58.6645 181.379 57.674 181.379C56.6836 181.379 55.8806 182.182 55.8806 183.172C55.8806 184.162 56.6836 184.965 57.674 184.965Z" fill="#513834"/>
<path d="M68.4652 178.887C69.4556 178.887 70.2585 178.084 70.2585 177.094C70.2585 176.104 69.4556 175.301 68.4652 175.301C67.4748 175.301 66.6719 176.104 66.6719 177.094C66.6719 178.084 67.4748 178.887 68.4652 178.887Z" fill="#513834"/>
<path d="M77.3016 173.34C78.292 173.34 79.0949 172.538 79.0949 171.547C79.0949 170.557 78.292 169.754 77.3016 169.754C76.3112 169.754 75.5083 170.557 75.5083 171.547C75.5083 172.538 76.3112 173.34 77.3016 173.34Z" fill="#513834"/>
<path d="M85.3398 163.116C86.3302 163.116 87.1331 162.314 87.1331 161.323C87.1331 160.333 86.3302 159.53 85.3398 159.53C84.3494 159.53 83.5465 160.333 83.5465 161.323C83.5465 162.314 84.3494 163.116 85.3398 163.116Z" fill="#513834"/>
<path d="M243.349 231.886C250.054 227.777 257.973 226.111 265.765 227.17C265.765 227.17 250.821 229.395 245.275 235.206L243.349 231.886Z" fill="#513834"/>
<path d="M260.919 269.042C261.35 278.08 259.134 287.047 254.542 294.843C254.542 294.843 259.59 278.24 257.166 269.374L260.919 269.042Z" fill="#513834"/>
<path d="M243.482 267.95C244.327 276.027 242.595 284.163 238.534 291.195C238.534 291.195 242.652 276.086 239.863 267.95H243.482Z" fill="#513834"/>
<path d="M229.103 270.708C229.453 274.02 229.143 277.369 228.191 280.561C227.239 283.753 225.664 286.724 223.557 289.303C223.557 289.303 228.04 277.382 225.416 270.409L229.103 270.708Z" fill="#513834"/>
<path d="M30.8085 236.336C30.8085 236.336 19.0191 239.856 15.0339 249.951C15.0339 249.951 24.6315 240.388 32.635 239.989L30.8085 236.336Z" fill="#513834"/>
<path d="M36.852 207.815C36.852 207.815 35.5235 199.979 29.5126 197.455C29.5126 197.455 34.7929 203.764 34.494 209.111L36.852 207.815Z" fill="#513834"/>
<path d="M40.6394 251.245C40.6394 251.245 30.2448 253.736 26.6914 261.772C26.6914 261.772 35.1931 254.3 42.2335 254.168L40.6394 251.245Z" fill="#513834"/>
<path d="M45.218 262.965C45.218 262.965 37.148 264.99 35.4543 271.798C35.4543 271.798 41.266 265.522 46.9781 265.455L45.218 262.965Z" fill="#513834"/>
<path d="M51.6949 193.133C51.6949 192.49 51.4395 191.873 50.9849 191.418C50.5302 190.964 49.9136 190.708 49.2706 190.708C48.6277 190.708 48.0111 190.964 47.5564 191.418C47.1018 191.873 46.8463 192.49 46.8463 193.133C46.8463 193.776 47.1018 194.392 47.5564 194.847C48.0111 195.301 48.6277 195.557 49.2706 195.557C49.9136 195.557 50.5302 195.301 50.9849 194.847C51.4395 194.392 51.6949 193.776 51.6949 193.133V193.133Z" fill="#FFC466"/>
<path d="M140.401 77.2099C140.401 74.5866 139.039 72.4946 137.345 72.4946C135.652 72.4946 134.323 74.5866 134.323 77.2099C134.323 79.8332 135.685 81.8921 137.345 81.8921C139.006 81.8921 140.401 79.8 140.401 77.2099Z" fill="#FFC466"/>
<path d="M173.941 8.57007C173.941 7.10897 173.177 5.91357 172.214 5.91357C171.25 5.91357 170.52 7.10897 170.52 8.57007C170.52 10.0312 171.284 11.2266 172.214 11.2266C173.143 11.2266 173.941 10.0312 173.941 8.57007Z" fill="#FFC466"/>
<path d="M110.843 5.25098C110.843 3.78988 110.079 2.59448 109.116 2.59448C108.153 2.59448 107.422 3.78988 107.422 5.25098C107.422 6.71207 108.186 7.90747 109.116 7.90747C110.046 7.90747 110.843 6.71207 110.843 5.25098Z" fill="#FFC466"/>
<path d="M174.239 270.902L176.73 266.12C176.73 266.12 168.826 266.552 174.239 270.902Z" fill="#BC9693"/>
<path d="M174.938 276.982L173.975 271.802C173.975 271.802 167.964 276.915 174.938 276.982Z" fill="#BC9693"/>
<path d="M179.755 279.274L175.205 276.65C175.205 276.65 175.271 284.554 179.755 279.274Z" fill="#BC9693"/>
</svg>
