<svg width="403" height="626" viewBox="0 0 403 626" fill="none" xmlns="http://www.w3.org/2000/svg">
<path d="M79.9666 172.665C79.6935 163.157 195.018 156.146 203.143 156.467C211.268 156.789 201.1 190.646 191.337 202.337C188.51 205.746 172.787 192.024 163.077 201.321C142.41 221.083 80.6109 198.163 79.9666 172.665Z" fill="#6B6B38"/>
<path d="M76.0701 171.794C76.0701 171.794 76.214 171.681 76.1867 171.469C84.3542 187.313 113.266 153.726 160.498 156.71C177.735 157.819 192.207 179.574 204.477 173.388C201.945 183.857 197.451 193.751 191.233 202.546C188.312 206.068 172.062 191.887 162.028 201.495C140.601 221.831 76.736 198.145 76.0701 171.794Z" fill="#515028"/>
<path d="M10.0769 194.506C10.0769 194.506 8.11751 201.258 10.2367 201.156C25.3629 200.589 83.8854 220.291 103.63 199.132C117.414 184.393 105.484 170.247 97.9084 168.358C89.5021 166.19 34.2741 194.346 10.0769 194.506Z" fill="#8E8C40"/>
<path d="M103.307 201.548C106.148 198.626 108.16 195 109.134 191.043C103.979 191.331 98.8224 190.508 94.014 188.627C84.9933 185.221 78.3453 179.132 76.1177 172.995C54.7945 180.942 23.1923 194.315 6.25595 194.434C6.25595 194.434 4.23401 201.402 6.42082 201.297C22.0298 200.712 82.9322 223.383 103.307 201.548Z" fill="#6B6B38"/>
<path d="M6.42191 200.212C20.0676 199.709 81.5864 227.194 104.926 198.927C91.9698 199.69 75.8712 194.937 88.9591 177.617C98.046 165.586 27.95 197.03 19.6081 191.447C15.2378 192.553 10.7622 193.19 6.25704 193.35C6.25704 193.35 4.2351 200.317 6.42191 200.212Z" fill="#515028"/>
<path d="M170.903 167.529L176.853 197.19L169.744 198.531L159.764 168.161L170.903 167.529Z" fill="#513A31"/>
<path d="M196.219 151.849C197.105 155.381 197.923 164.722 193.8 167.217C189.677 169.712 122.106 175.944 112.237 167.575C96.7858 154.39 196.219 151.849 196.219 151.849Z" fill="#8C6C67"/>
<path d="M113.276 161.761C113.569 162.34 113.974 162.854 114.47 163.272C124.293 171.636 192.097 165.431 196.013 162.888L196.482 162.518C196.371 163.45 196.07 164.35 195.596 165.16C195.123 165.971 194.487 166.676 193.73 167.231C189.737 169.623 124.287 178.326 112.166 167.589C109.691 165.312 110.362 163.429 113.276 161.761Z" fill="#513834"/>
<path d="M190.86 166.488C190.86 166.488 196.875 162.584 194.403 150.614C193.588 146.688 196.214 148.084 197.521 149.633C198.829 151.181 199.651 165.723 193.35 167.23L190.86 166.488Z" fill="#513834"/>
<path d="M189.494 153.561L185.734 161.016C185.734 161.016 135.122 163.163 138.317 159.92C141.511 156.678 189.494 153.561 189.494 153.561Z" fill="#BC9693"/>
<path d="M159.53 166.317C159.131 165.813 158.95 165.17 159.025 164.532C159.1 163.893 159.425 163.311 159.93 162.912C160.434 162.514 161.076 162.332 161.715 162.407C162.354 162.482 162.936 162.807 163.335 163.312C163.733 163.816 163.915 164.459 163.84 165.097C163.765 165.736 163.439 166.318 162.935 166.717C162.43 167.115 161.788 167.297 161.15 167.222C160.511 167.147 159.928 166.822 159.53 166.317V166.317Z" fill="#FFC466"/>
<path d="M170.782 141.604C170.782 141.604 174.879 166.508 161.623 170.674C148.366 174.84 111.479 178.502 101.324 162.699C98.5865 158.43 162.689 137.037 170.782 141.604Z" fill="#8C6C67"/>
<path d="M101.582 161.473C97.7907 158.924 162.015 137.097 169.276 141.306C169.101 143.269 169.075 145.241 169.198 147.208C155.947 148.703 116.368 171.46 101.582 161.473Z" fill="#BC9693"/>
<path d="M99.7424 162.845C99.3101 162.298 100.276 161.323 102.088 160.188C115.825 171.258 144.495 169.515 156.697 165.675C166.82 162.418 167.185 148.039 166.72 140.324C168.477 140.121 170.256 140.322 171.923 140.911C171.923 140.911 176.165 166.801 162.414 171.145C148.664 175.49 110.298 179.262 99.7424 162.845Z" fill="#513834"/>
<path d="M155.426 142.259L155.479 164.561L152.072 142.835L155.426 142.259Z" fill="#513834"/>
<path d="M141.282 145.729L144.756 165.878L138.378 146.499L141.282 145.729Z" fill="#513834"/>
<path d="M129.927 149.247L133 166.158L127.511 149.886L129.927 149.247Z" fill="#513834"/>
<path d="M116.922 154.267L121.858 167.802L115.051 154.898L116.922 154.267Z" fill="#513834"/>
<path d="M177.065 163.548C176.288 164.162 175.16 164.029 174.546 163.252C173.933 162.475 174.065 161.348 174.842 160.734C175.62 160.12 176.747 160.252 177.361 161.029C177.975 161.806 177.842 162.934 177.065 163.548Z" fill="#513834"/>
<path d="M161.492 157.868C160.715 158.482 159.587 158.35 158.973 157.573C158.359 156.796 158.492 155.668 159.269 155.054C160.046 154.44 161.174 154.573 161.788 155.35C162.402 156.127 162.269 157.255 161.492 157.868Z" fill="#513834"/>
<path d="M151.2 163.161C150.422 163.775 149.295 163.642 148.681 162.865C148.067 162.088 148.2 160.96 148.977 160.346C149.754 159.733 150.882 159.865 151.496 160.642C152.109 161.419 151.977 162.547 151.2 163.161Z" fill="#513834"/>
<path d="M138.964 165.08C138.187 165.694 137.059 165.562 136.446 164.785C135.832 164.007 135.964 162.88 136.741 162.266C137.519 161.652 138.646 161.784 139.26 162.561C139.874 163.339 139.741 164.466 138.964 165.08Z" fill="#513834"/>
<path d="M128.592 166.204C127.815 166.818 126.687 166.686 126.073 165.909C125.459 165.132 125.592 164.004 126.369 163.39C127.146 162.776 128.274 162.909 128.888 163.686C129.502 164.463 129.369 165.59 128.592 166.204Z" fill="#513834"/>
<path d="M115.947 163.164C115.17 163.778 114.042 163.645 113.428 162.868C112.814 162.091 112.947 160.963 113.724 160.35C114.501 159.736 115.629 159.868 116.243 160.645C116.857 161.422 116.724 162.55 115.947 163.164Z" fill="#513834"/>
<path d="M181.703 168.186C181.703 168.186 177.888 161.213 181.041 155.507C181.041 155.507 180.808 163.731 184.356 167.741L181.703 168.186Z" fill="#513834"/>
<path d="M160.954 165.864C160.556 165.36 160.374 164.717 160.449 164.079C160.524 163.44 160.85 162.858 161.354 162.459C161.859 162.061 162.501 161.879 163.139 161.954C163.778 162.029 164.361 162.354 164.759 162.859C165.158 163.363 165.339 164.006 165.264 164.644C165.189 165.283 164.864 165.865 164.359 166.264C163.855 166.662 163.212 166.844 162.574 166.769C161.935 166.694 161.353 166.369 160.954 165.864V165.864Z" fill="#FFC466"/>
<path d="M196.072 557.208H319.777L251.498 378.923L194.644 382.31L196.072 557.208Z" fill="#3D2119"/>
<path d="M341.265 490.929L342.627 528.419L355.446 499.164L341.265 490.929Z" fill="#3D2119"/>
<path d="M173.921 536.192L144.597 510.125L173.921 479.974V536.192Z" fill="#3D2119"/>
<path d="M196.207 139.504L217.295 97.2317L295.669 98.5268L323.765 142.127L196.207 139.504Z" fill="#30201C"/>
<path d="M243.494 123.036L239.111 151.561L276.272 151.461L269.132 114.702L243.494 123.036Z" fill="#515028"/>
<path d="M181.989 301.619L182.852 284.717L304.532 285.979L308.119 299.062L181.989 301.619Z" fill="#C14081"/>
<path d="M178.604 625.649H219.153L209.887 523.97L188.733 523.24C188.733 523.24 217.094 609.311 208.659 617.347C200.223 625.383 176.08 616.882 178.604 625.649Z" fill="#54352E"/>
<path d="M196.97 594.436L220.648 592.245L218.091 518.327L179.236 526.396L196.97 594.436Z" fill="#845042"/>
<path d="M186.077 553.293L210.785 565.447L220.648 592.245L218.091 518.327L179.236 526.396L186.077 553.293Z" fill="#5B382C"/>
<path d="M365.307 625.651H335.419L302.774 526.032L323.928 525.301C323.928 525.301 333.692 607.587 342.127 615.623C350.562 623.659 367.864 616.885 365.307 625.651Z" fill="#54352E"/>
<path d="M320.539 598.087L344.218 595.895L337.443 522.741L298.588 530.046L320.539 598.087Z" fill="#845042"/>
<path d="M308.849 561.792L332.329 568.666L344.218 595.895L337.443 522.741L298.588 530.046L308.849 561.792Z" fill="#5B382C"/>
<path d="M235.224 545.524C235.224 545.524 185.41 548.845 166.779 535.562V472.47L233.199 470.644C233.199 470.644 239.442 525.766 235.224 545.524Z" fill="#A57459"/>
<path d="M295.302 548.042C295.302 548.042 335.154 551.363 350.164 534.76L345.947 471.103L278.332 471.302C278.332 471.302 286.269 529.547 295.302 548.042Z" fill="#A57459"/>
<path d="M144.597 509.99C144.597 509.99 225.297 516.964 246.352 509.99L246.119 452.776L251.632 453.008L261.595 509.094C261.595 509.094 339.139 505.142 355.578 499.132L336.383 399.911L308.918 293.65L186.375 297.867C186.375 297.867 160.173 403.497 161.036 406.021C161.9 408.545 144.597 509.99 144.597 509.99Z" fill="#634B40"/>
<path d="M336.214 399.945L308.75 293.685L186.207 297.902C186.207 297.902 170.2 362.389 163.624 391.81C186.107 393.669 227.32 407.184 240.006 454.902C258.969 455.367 276.537 459.219 335.982 463.868C335.982 463.868 340.432 484.556 344.915 501.524C348.501 501.188 352.035 500.43 355.443 499.266L336.214 399.945Z" fill="#442F28"/>
<path d="M253.625 454.967L154.561 453.141L158.214 419.602L239.279 402.534L253.625 454.967Z" fill="#442F28"/>
<path d="M147.753 443.577C147.753 443.577 223.803 447.363 226.36 442.946C228.917 438.53 242.201 292.72 242.201 292.72L180.066 297.801C180.066 297.801 148.384 365.608 147.753 443.577Z" fill="#513834"/>
<path d="M347.939 443.579C347.939 443.579 263.52 447.564 260.631 443.114C257.742 438.664 239.875 292.722 239.875 292.722L307.157 290.829C307.157 290.829 341.695 361.825 347.939 443.579Z" fill="#513834"/>
<path d="M145.524 430.693C145.482 431.772 145.849 432.828 146.553 433.648C146.897 434.036 147.315 434.351 147.783 434.573C148.251 434.796 148.759 434.922 149.276 434.943C161.431 435.275 199.655 435.574 214.533 435.707C216.17 435.718 217.753 435.124 218.979 434.039C220.205 432.954 220.987 431.455 221.175 429.829L222.105 422.424C222.17 421.917 222.13 421.401 221.988 420.91C221.845 420.419 221.602 419.962 221.275 419.569C220.933 419.189 220.519 418.882 220.057 418.665C219.595 418.449 219.094 418.327 218.585 418.307L150.671 416.248C149.424 416.259 148.231 416.76 147.35 417.643C146.427 418.586 145.893 419.843 145.856 421.163L145.524 430.693Z" fill="#8C6C67"/>
<path d="M146.622 407.382C146.534 407.967 146.568 408.565 146.722 409.136C146.876 409.708 147.147 410.241 147.518 410.702C147.872 411.152 148.32 411.519 148.831 411.777C149.341 412.035 149.902 412.179 150.474 412.197C163.758 412.429 202.945 412.396 217.126 412.396C218.557 412.394 219.939 411.876 221.019 410.936C222.099 409.997 222.804 408.699 223.004 407.282L223.934 400.442C224.015 399.898 223.977 399.343 223.822 398.815C223.667 398.288 223.399 397.8 223.037 397.387C222.685 396.965 222.25 396.62 221.758 396.374C221.267 396.128 220.73 395.987 220.181 395.959L153.131 393.369C151.857 393.352 150.623 393.807 149.666 394.648C148.709 395.488 148.098 396.653 147.95 397.918L146.622 407.382Z" fill="#8C6C67"/>
<path d="M150.242 385.864C150.176 386.275 150.198 386.694 150.307 387.095C150.416 387.496 150.609 387.869 150.873 388.189C151.119 388.5 151.432 388.751 151.788 388.923C152.145 389.096 152.536 389.185 152.932 389.185C164.522 389.185 206.067 388.953 220.68 388.853C222.145 388.829 223.554 388.285 224.656 387.318C225.757 386.35 226.478 385.023 226.691 383.573L227.587 376.932C227.661 376.409 227.625 375.876 227.482 375.367C227.339 374.859 227.092 374.385 226.757 373.976C226.406 373.578 225.978 373.254 225.499 373.026C225.019 372.798 224.498 372.669 223.967 372.648L155.689 370.523C154.76 370.516 153.861 370.85 153.163 371.463C152.465 372.075 152.017 372.922 151.903 373.844L150.242 385.864Z" fill="#8C6C67"/>
<path d="M155.324 361.391C155.195 361.962 155.191 362.554 155.311 363.127C155.432 363.7 155.674 364.24 156.021 364.712C156.372 365.183 156.828 365.567 157.352 365.832C157.877 366.097 158.456 366.237 159.043 366.239C172.095 366.239 208.426 365.675 222.607 365.409C224.238 365.421 225.817 364.831 227.042 363.754C228.267 362.676 229.053 361.184 229.248 359.565L230.045 353.454C230.115 352.929 230.073 352.395 229.925 351.886C229.776 351.377 229.523 350.905 229.182 350.499C228.837 350.085 228.406 349.751 227.918 349.522C227.43 349.292 226.898 349.172 226.359 349.171L162.829 347.344C161.646 347.333 160.494 347.729 159.569 348.467C158.643 349.205 158 350.239 157.748 351.396L155.324 361.391Z" fill="#8C6C67"/>
<path d="M160.305 340.637C160.181 341.127 160.17 341.639 160.274 342.134C160.377 342.629 160.593 343.093 160.903 343.493C161.199 343.88 161.581 344.193 162.019 344.407C162.457 344.62 162.94 344.728 163.427 344.721C175.416 344.721 211.415 343.791 225.761 343.426C227.411 343.354 228.982 342.701 230.197 341.583C231.412 340.465 232.194 338.954 232.403 337.316L233.233 330.974C233.285 330.508 233.237 330.037 233.094 329.591C232.95 329.145 232.714 328.734 232.4 328.386C232.086 328.038 231.703 327.76 231.274 327.571C230.845 327.381 230.381 327.285 229.913 327.288L166.814 325.926C165.861 325.919 164.935 326.247 164.2 326.855C163.465 327.462 162.968 328.309 162.796 329.247L160.305 340.637Z" fill="#8C6C67"/>
<path d="M167.676 316.365C167.531 316.998 167.524 317.655 167.656 318.291C167.787 318.927 168.055 319.527 168.44 320.05C168.83 320.56 169.333 320.972 169.909 321.254C170.485 321.537 171.119 321.681 171.761 321.678C184.281 321.678 216.195 320.881 228.715 320.549C230.149 320.518 231.524 319.971 232.586 319.006C233.648 318.042 234.326 316.726 234.494 315.302L235.224 308.661C235.303 308.066 235.252 307.461 235.074 306.887C234.896 306.314 234.596 305.786 234.195 305.34C233.801 304.897 233.322 304.538 232.785 304.287C232.248 304.036 231.666 303.897 231.073 303.879L174.617 302.883C173.564 302.881 172.542 303.238 171.721 303.897C170.899 304.555 170.328 305.474 170.1 306.502L167.676 316.365Z" fill="#8C6C67"/>
<path d="M349.065 430.629C349.096 431.173 349.018 431.717 348.836 432.231C348.653 432.744 348.37 433.216 348.002 433.618C347.246 434.411 346.208 434.876 345.113 434.913C331.231 435.278 286.83 435.643 273.779 435.743C272.766 435.743 271.785 435.388 271.008 434.738C270.231 434.089 269.707 433.187 269.528 432.19L267.868 422.493C267.786 422.011 267.805 421.516 267.926 421.042C268.046 420.567 268.263 420.123 268.565 419.737C268.871 419.35 269.259 419.036 269.701 418.818C270.143 418.6 270.629 418.483 271.122 418.475L343.021 415.952C343.708 415.922 344.394 416.03 345.038 416.269C345.683 416.509 346.273 416.875 346.773 417.346C347.801 418.266 348.422 419.556 348.5 420.933L349.065 430.629Z" fill="#8C6C67"/>
<path d="M347.276 406.851C347.377 407.434 347.353 408.032 347.204 408.605C347.055 409.178 346.785 409.712 346.413 410.172C346.009 410.659 345.501 411.05 344.926 411.314C344.351 411.579 343.724 411.71 343.092 411.7C328.513 412.098 285.174 412.397 271.459 412.497C270.285 412.508 269.145 412.104 268.239 411.357C267.334 410.61 266.722 409.567 266.51 408.412L265.149 400.907C265.05 400.336 265.072 399.749 265.215 399.187C265.359 398.625 265.619 398.099 265.98 397.645C266.34 397.19 266.793 396.817 267.308 396.549C267.823 396.282 268.389 396.126 268.968 396.092L339.771 392.473C341.117 392.412 342.44 392.844 343.491 393.688C344.542 394.531 345.25 395.728 345.483 397.055L347.276 406.851Z" fill="#8C6C67"/>
<path d="M342.826 384.801C342.909 385.216 342.895 385.644 342.786 386.053C342.676 386.462 342.474 386.84 342.195 387.158C341.925 387.491 341.587 387.762 341.203 387.951C340.819 388.14 340.398 388.244 339.97 388.254C326.952 388.586 280.359 388.985 266.543 389.084C265.462 389.086 264.413 388.709 263.582 388.017C262.75 387.325 262.188 386.363 261.994 385.299L260.466 376.997C260.371 376.494 260.384 375.976 260.504 375.478C260.624 374.98 260.848 374.513 261.162 374.108C261.476 373.703 261.872 373.369 262.325 373.129C262.777 372.889 263.276 372.747 263.787 372.713L336.416 368.994C337.403 368.938 338.377 369.245 339.154 369.856C339.931 370.468 340.457 371.342 340.634 372.315L342.826 384.801Z" fill="#8C6C67"/>
<path d="M336.645 359.53C336.812 360.144 336.84 360.788 336.725 361.415C336.61 362.041 336.355 362.634 335.981 363.149C335.594 363.665 335.093 364.083 334.516 364.371C333.94 364.659 333.304 364.81 332.66 364.81C317.948 365.208 276.702 365.507 263.351 365.606C262.169 365.618 261.02 365.211 260.109 364.457C259.197 363.704 258.581 362.652 258.37 361.489L256.942 353.387C256.836 352.894 256.844 352.384 256.965 351.895C257.086 351.406 257.316 350.951 257.639 350.564C257.951 350.168 258.343 349.842 258.789 349.607C259.236 349.372 259.726 349.235 260.23 349.203L328.077 345.251C329.339 345.182 330.586 345.546 331.613 346.283C332.64 347.019 333.384 348.085 333.722 349.302L336.645 359.53Z" fill="#8C6C67"/>
<path d="M330.635 337.881C330.77 338.39 330.79 338.922 330.692 339.44C330.594 339.957 330.382 340.446 330.07 340.87C329.762 341.304 329.353 341.657 328.879 341.9C328.405 342.142 327.88 342.267 327.347 342.265C313.665 342.663 271.854 342.962 258.736 343.061C257.627 343.07 256.55 342.684 255.698 341.972C254.847 341.261 254.276 340.27 254.087 339.176L252.659 331.008C252.575 330.491 252.597 329.963 252.723 329.456C252.848 328.948 253.075 328.47 253.39 328.052C253.719 327.649 254.128 327.317 254.59 327.077C255.053 326.837 255.56 326.694 256.079 326.658L322.897 322.673C323.911 322.632 324.908 322.94 325.724 323.543C326.539 324.147 327.124 325.012 327.38 325.994L330.635 337.881Z" fill="#8C6C67"/>
<path d="M321.738 312.777C321.931 313.445 321.969 314.148 321.848 314.833C321.727 315.517 321.45 316.165 321.04 316.726C320.629 317.287 320.096 317.747 319.48 318.07C318.864 318.393 318.182 318.57 317.487 318.588C303.672 319.119 268.669 319.684 256.083 319.883C254.806 319.899 253.567 319.455 252.591 318.631C251.616 317.808 250.969 316.661 250.769 315.4L249.408 306.7C249.333 306.246 249.353 305.781 249.468 305.335C249.582 304.889 249.788 304.472 250.072 304.11C250.675 303.4 251.535 302.959 252.463 302.882L313.801 298.93C314.924 298.874 316.032 299.202 316.944 299.86C317.855 300.518 318.515 301.466 318.816 302.55L321.738 312.777Z" fill="#8C6C67"/>
<path d="M154.825 417.643C153.981 418.625 153.5 419.868 153.464 421.163L153.198 430.693C153.165 431.76 153.506 432.805 154.161 433.648C154.449 434.025 154.815 434.335 155.233 434.558C155.651 434.782 156.112 434.913 156.585 434.943L165.552 435.143C172.149 429.77 178.17 423.728 183.518 417.112L157.914 416.248C157.329 416.244 156.75 416.366 156.217 416.607C155.684 416.848 155.209 417.201 154.825 417.643V417.643Z" fill="#AA8581"/>
<path d="M155.389 397.884L154.393 407.381C154.214 408.55 154.5 409.742 155.19 410.702C155.481 411.145 155.875 411.512 156.337 411.772C156.799 412.032 157.317 412.177 157.847 412.196C163.758 412.196 175.514 412.362 187.437 412.396C191.619 406.826 195.488 401.028 199.027 395.028L160.205 393.368C158.98 393.374 157.803 393.842 156.91 394.68C156.016 395.518 155.473 396.663 155.389 397.884V397.884Z" fill="#AA8581"/>
<path d="M158.977 373.844L157.45 385.898C157.343 386.716 157.544 387.544 158.014 388.222C158.226 388.521 158.504 388.767 158.827 388.94C159.149 389.113 159.508 389.208 159.874 389.218C166.981 389.218 186.442 389.218 202.283 389.218C203.877 386.296 205.438 383.307 206.932 380.219C208.427 377.131 209.39 374.94 210.519 372.283L162.365 370.523C161.488 370.555 160.654 370.913 160.028 371.527C159.401 372.141 159.027 372.968 158.977 373.844V373.844Z" fill="#AA8581"/>
<path d="M164.158 351.532L162.032 361.494C161.798 362.64 162.024 363.834 162.663 364.814C162.957 365.273 163.359 365.652 163.834 365.918C164.309 366.184 164.842 366.33 165.387 366.342C174.818 366.342 197.699 365.976 213.009 365.678C214.982 360.236 216.667 354.693 218.057 349.074L168.741 347.514C167.627 347.539 166.557 347.956 165.72 348.69C164.882 349.425 164.329 350.431 164.158 351.532V351.532Z" fill="#AA8581"/>
<path d="M168.938 329.015L166.513 340.505C166.311 341.489 166.502 342.514 167.045 343.36C167.289 343.737 167.623 344.047 168.017 344.262C168.412 344.476 168.854 344.589 169.303 344.589C178.668 344.589 204.239 343.892 219.316 343.46C220.435 337.974 221.256 332.431 221.774 326.856L172.557 325.694C171.656 325.72 170.793 326.07 170.129 326.68C169.464 327.29 169.041 328.119 168.938 329.015V329.015Z" fill="#AA8581"/>
<path d="M175.317 306.568L173.291 316.53C173.146 317.157 173.131 317.808 173.245 318.441C173.359 319.075 173.601 319.679 173.956 320.216C174.284 320.709 174.728 321.115 175.249 321.399C175.77 321.682 176.352 321.835 176.945 321.843C186.575 321.843 208.925 321.245 222.276 320.88C222.572 315.237 222.516 309.581 222.11 303.945L179.402 303.115C178.43 303.142 177.497 303.498 176.754 304.126C176.012 304.753 175.505 305.615 175.317 306.568V306.568Z" fill="#AA8581"/>
<path d="M275.606 419.738C275.072 420.551 274.858 421.533 275.008 422.494L276.403 432.191C276.472 433.11 276.868 433.974 277.521 434.626C278.173 435.278 279.037 435.675 279.956 435.744L298.587 435.544C301.195 429.655 303.338 423.571 304.996 417.347L277.731 418.476C277.303 418.507 276.888 418.637 276.519 418.856C276.15 419.075 275.838 419.377 275.606 419.738V419.738Z" fill="#AA8581"/>
<path d="M273.551 397.721C272.902 398.697 272.653 399.886 272.854 401.041L273.983 408.546C274.068 409.612 274.535 410.611 275.297 411.361C276.06 412.111 277.067 412.562 278.134 412.63L306.262 412.365C307.591 406.653 308.72 400.576 309.583 394.167L276.075 396.226C275.568 396.265 275.076 396.421 274.639 396.68C274.201 396.939 273.829 397.295 273.551 397.721V397.721Z" fill="#AA8581"/>
<path d="M269.431 374.077C268.885 374.946 268.673 375.985 268.833 376.999L270.095 385.3C270.179 386.282 270.609 387.202 271.309 387.895C272.008 388.589 272.932 389.011 273.914 389.086L310.179 388.687C310.81 382.743 311.208 376.6 311.341 370.291L271.656 372.715C271.204 372.752 270.767 372.894 270.381 373.131C269.994 373.367 269.669 373.691 269.431 374.077Z" fill="#AA8581"/>
<path d="M266.509 350.597C265.987 351.439 265.787 352.442 265.944 353.42L267.14 361.489C267.217 362.564 267.679 363.576 268.442 364.338C269.204 365.101 270.216 365.563 271.291 365.64C278.763 365.64 296.663 365.407 311.375 365.208C311.375 358.733 311.11 352.423 310.611 346.347L268.668 349.236C268.228 349.285 267.806 349.433 267.432 349.668C267.058 349.904 266.742 350.222 266.509 350.597V350.597Z" fill="#AA8581"/>
<path d="M262.921 328.055C262.375 328.938 262.152 329.982 262.29 331.01L263.486 339.179C263.556 340.192 263.993 341.145 264.714 341.859C265.435 342.574 266.391 343.002 267.404 343.064C275.208 343.064 295.234 342.832 310.245 342.566C309.58 335.925 308.617 329.649 307.422 323.672L265.146 326.66C264.694 326.71 264.259 326.862 263.874 327.103C263.489 327.345 263.163 327.67 262.921 328.055Z" fill="#AA8581"/>
<path d="M260.13 304.11C259.644 304.88 259.445 305.797 259.566 306.7L260.695 315.4C260.772 316.558 261.264 317.649 262.082 318.473C262.9 319.297 263.988 319.797 265.145 319.883C273.315 319.883 292.676 319.351 306.391 318.92C304.928 312.453 302.986 306.104 300.58 299.926L262.123 302.881C261.722 302.932 261.337 303.067 260.993 303.279C260.65 303.491 260.355 303.774 260.13 304.11V304.11Z" fill="#AA8581"/>
<path d="M259.27 311.018C259.251 310.53 259.088 310.059 258.803 309.662C258.518 309.266 258.122 308.963 257.666 308.789C257.209 308.616 256.712 308.58 256.236 308.688C255.759 308.795 255.325 309.039 254.986 309.391C254.648 309.743 254.42 310.187 254.332 310.667C254.244 311.147 254.299 311.643 254.49 312.092C254.681 312.541 255 312.925 255.407 313.194C255.814 313.464 256.291 313.607 256.78 313.608C257.114 313.604 257.444 313.533 257.751 313.4C258.058 313.267 258.335 313.075 258.567 312.834C258.799 312.593 258.98 312.308 259.101 311.996C259.222 311.685 259.279 311.352 259.27 311.018V311.018Z" fill="#513834"/>
<path d="M263.423 336.219C263.404 335.731 263.241 335.26 262.956 334.864C262.671 334.467 262.275 334.164 261.819 333.99C261.362 333.817 260.865 333.782 260.388 333.889C259.912 333.996 259.478 334.24 259.139 334.592C258.801 334.944 258.573 335.388 258.485 335.868C258.396 336.348 258.451 336.844 258.642 337.293C258.833 337.743 259.152 338.126 259.56 338.395C259.967 338.665 260.444 338.809 260.932 338.809C261.267 338.805 261.597 338.734 261.904 338.601C262.21 338.468 262.488 338.276 262.72 338.035C262.951 337.794 263.133 337.509 263.254 337.197C263.374 336.886 263.432 336.553 263.423 336.219V336.219Z" fill="#513834"/>
<path d="M266.742 358.339C266.722 357.851 266.56 357.38 266.274 356.984C265.989 356.587 265.594 356.284 265.137 356.111C264.681 355.937 264.183 355.902 263.707 356.009C263.231 356.116 262.796 356.361 262.458 356.712C262.119 357.064 261.892 357.508 261.803 357.988C261.715 358.469 261.77 358.964 261.961 359.413C262.152 359.863 262.471 360.246 262.878 360.515C263.285 360.785 263.763 360.929 264.251 360.929C264.585 360.925 264.915 360.854 265.222 360.721C265.529 360.588 265.806 360.396 266.038 360.155C266.27 359.914 266.451 359.629 266.572 359.318C266.693 359.006 266.75 358.673 266.742 358.339V358.339Z" fill="#513834"/>
<path d="M270.894 379.921C270.875 379.433 270.712 378.962 270.427 378.566C270.142 378.169 269.746 377.866 269.29 377.693C268.833 377.519 268.336 377.484 267.86 377.591C267.383 377.698 266.949 377.943 266.61 378.295C266.272 378.646 266.044 379.09 265.956 379.57C265.868 380.051 265.922 380.546 266.114 380.995C266.305 381.445 266.624 381.828 267.031 382.098C267.438 382.367 267.915 382.511 268.404 382.511C268.738 382.507 269.068 382.436 269.375 382.303C269.682 382.171 269.959 381.978 270.191 381.737C270.422 381.496 270.604 381.211 270.725 380.9C270.846 380.588 270.903 380.255 270.894 379.921Z" fill="#513834"/>
<path d="M274.214 404.563C274.194 404.075 274.032 403.603 273.747 403.207C273.461 402.811 273.066 402.507 272.609 402.334C272.153 402.161 271.656 402.125 271.179 402.232C270.703 402.34 270.268 402.584 269.93 402.936C269.592 403.288 269.364 403.732 269.276 404.212C269.187 404.692 269.242 405.188 269.433 405.637C269.624 406.086 269.943 406.47 270.35 406.739C270.758 407.009 271.235 407.153 271.723 407.153C272.058 407.149 272.388 407.078 272.695 406.945C273.001 406.812 273.279 406.619 273.51 406.379C273.742 406.138 273.924 405.853 274.044 405.541C274.165 405.23 274.223 404.897 274.214 404.563Z" fill="#513834"/>
<path d="M277.533 426.71C277.514 426.222 277.351 425.751 277.066 425.354C276.781 424.958 276.385 424.654 275.929 424.481C275.472 424.308 274.975 424.272 274.498 424.379C274.022 424.487 273.588 424.731 273.249 425.083C272.911 425.435 272.683 425.879 272.595 426.359C272.507 426.839 272.561 427.335 272.752 427.784C272.944 428.233 273.262 428.617 273.67 428.886C274.077 429.156 274.554 429.3 275.043 429.3C275.377 429.296 275.707 429.225 276.014 429.092C276.321 428.959 276.598 428.766 276.83 428.525C277.061 428.285 277.243 428 277.364 427.688C277.485 427.376 277.542 427.044 277.533 426.71Z" fill="#513834"/>
<path d="M222.939 310.752C222.906 310.427 222.942 310.098 223.044 309.786C223.146 309.475 223.311 309.189 223.53 308.945C223.749 308.701 224.016 308.506 224.314 308.371C224.613 308.236 224.936 308.165 225.263 308.162C225.946 308.186 226.594 308.466 227.08 308.946C227.566 309.426 227.854 310.07 227.887 310.752C227.919 311.078 227.883 311.407 227.782 311.718C227.68 312.03 227.514 312.316 227.295 312.56C227.077 312.803 226.81 312.999 226.511 313.134C226.213 313.268 225.89 313.34 225.562 313.343C224.88 313.318 224.231 313.039 223.745 312.559C223.26 312.079 222.972 311.434 222.939 310.752V310.752Z" fill="#513834"/>
<path d="M220.348 335.859C220.31 335.536 220.342 335.209 220.44 334.9C220.538 334.591 220.701 334.306 220.918 334.064C221.134 333.822 221.4 333.629 221.697 333.498C221.994 333.366 222.315 333.3 222.64 333.302C223.322 333.317 223.975 333.589 224.467 334.062C224.959 334.536 225.255 335.177 225.296 335.859C225.329 336.184 225.293 336.513 225.191 336.825C225.089 337.136 224.924 337.422 224.705 337.666C224.486 337.909 224.219 338.105 223.921 338.24C223.622 338.375 223.299 338.446 222.972 338.449C222.287 338.432 221.634 338.155 221.146 337.674C220.659 337.192 220.373 336.543 220.348 335.859V335.859Z" fill="#513834"/>
<path d="M218.389 357.939C218.357 357.617 218.392 357.293 218.492 356.986C218.592 356.678 218.755 356.395 218.971 356.155C219.187 355.914 219.45 355.721 219.744 355.588C220.039 355.455 220.358 355.385 220.681 355.382C221.364 355.397 222.016 355.669 222.508 356.142C223 356.616 223.296 357.257 223.337 357.939C223.37 358.265 223.334 358.593 223.232 358.905C223.13 359.216 222.965 359.502 222.746 359.746C222.527 359.99 222.26 360.185 221.962 360.32C221.663 360.455 221.34 360.526 221.013 360.529C220.328 360.512 219.675 360.235 219.187 359.754C218.7 359.273 218.414 358.623 218.389 357.939V357.939Z" fill="#513834"/>
<path d="M215.563 379.491C215.531 379.166 215.567 378.837 215.669 378.526C215.771 378.214 215.936 377.928 216.155 377.684C216.373 377.441 216.641 377.245 216.939 377.11C217.237 376.976 217.56 376.904 217.888 376.901C218.57 376.926 219.219 377.205 219.705 377.685C220.191 378.165 220.479 378.81 220.511 379.491C220.544 379.817 220.508 380.146 220.406 380.457C220.304 380.769 220.139 381.055 219.92 381.299C219.701 381.542 219.434 381.738 219.136 381.872C218.837 382.007 218.514 382.078 218.187 382.081C217.504 382.057 216.856 381.778 216.37 381.298C215.884 380.818 215.596 380.173 215.563 379.491Z" fill="#513834"/>
<path d="M213.741 404.064C213.714 403.739 213.753 403.412 213.857 403.103C213.961 402.794 214.127 402.509 214.344 402.267C214.562 402.024 214.827 401.829 215.123 401.692C215.419 401.556 215.74 401.482 216.066 401.474C216.752 401.497 217.404 401.776 217.895 402.255C218.387 402.734 218.682 403.379 218.723 404.064C218.75 404.388 218.71 404.716 218.607 405.025C218.503 405.334 218.337 405.618 218.119 405.861C217.902 406.103 217.637 406.299 217.341 406.435C217.045 406.571 216.724 406.646 216.398 406.654C215.712 406.63 215.06 406.352 214.568 405.873C214.077 405.394 213.782 404.749 213.741 404.064V404.064Z" fill="#513834"/>
<path d="M211.814 426.147C211.791 425.826 211.835 425.503 211.943 425.199C212.052 424.895 212.222 424.617 212.444 424.383C212.666 424.149 212.934 423.963 213.232 423.838C213.529 423.713 213.849 423.652 214.172 423.657C214.857 423.681 215.51 423.959 216.001 424.438C216.492 424.917 216.787 425.562 216.828 426.247C216.856 426.572 216.816 426.899 216.712 427.208C216.609 427.517 216.443 427.801 216.225 428.044C216.007 428.286 215.742 428.482 215.446 428.618C215.15 428.755 214.83 428.829 214.504 428.837C213.793 428.829 213.114 428.542 212.611 428.04C212.109 427.537 211.822 426.858 211.814 426.147V426.147Z" fill="#513834"/>
<path d="M245.321 288.5C245.321 288.5 256.645 349.335 253.125 351.593C249.605 353.851 232.834 352.855 232.834 352.855L241.834 287.803L245.321 288.5Z" fill="#C14081"/>
<path d="M237.152 286.809C237.152 286.809 255.883 351.031 253.126 351.462C250.37 351.894 232.835 352.724 232.835 352.724L231.673 285.979L237.152 286.809Z" fill="#E5619D"/>
<path d="M212.578 392.874L225.629 290.631L231.673 291.063L227.389 389.918L212.578 392.874Z" fill="#C14081"/>
<path d="M225.262 292.953L202.812 389.949L216.063 394.996L227.387 389.949L217.457 385.898L215.863 384.636L229.944 293.584L225.262 292.953Z" fill="#E5619D"/>
<path d="M181.557 287.675C185.21 290.996 300.281 289.767 304.432 285.55C308.583 281.333 306.856 218.074 314.993 208.644C331.033 190.081 320.472 155.845 306.956 152.193C293.44 148.54 226.456 140.404 212.309 153.886C185.774 179.09 171.826 278.809 181.557 287.675Z" fill="#70534D"/>
<path d="M309.385 153.024C298.293 147.811 262.891 147.047 257.379 164.015C241.338 214.19 224.734 217.976 216.863 231.259C203.911 253.142 182.259 280.736 179.004 280.437C179.09 283.056 179.983 285.584 181.561 287.676C185.214 290.997 300.285 289.768 304.437 285.551C308.588 281.334 306.861 218.076 314.997 208.645C330.207 191.211 321.706 159.765 309.385 153.024Z" fill="#49322E"/>
<path d="M299.885 266.488H177.01C177.01 266.488 175.05 274.557 177.574 278.94H302.608C303.279 274.595 302.308 270.156 299.885 266.488V266.488Z" fill="#8C6C67"/>
<path d="M295.47 251.71H177.642C177.642 251.71 174.62 259.747 177.111 264.13H299.521C300.517 259.116 297.196 256.359 295.47 251.71Z" fill="#8C6C67"/>
<path d="M290.554 236.902H179.069C179.069 236.902 176.047 244.938 178.505 249.321H294.738C294.959 247.073 294.7 244.803 293.979 242.663C293.257 240.522 292.09 238.558 290.554 236.902Z" fill="#8C6C67"/>
<path d="M286.963 222.09H181.755C181.755 222.09 177.04 230.159 179.464 234.509H290.052C290.435 232.338 290.359 230.111 289.827 227.971C289.295 225.832 288.319 223.828 286.963 222.09V222.09Z" fill="#8C6C67"/>
<path d="M289.688 207.282H184.447C184.447 207.282 179.731 215.351 182.189 219.701H288.161C289.204 215.645 289.717 211.47 289.688 207.282V207.282Z" fill="#8C6C67"/>
<path d="M291.149 192.47H190.391C190.391 192.47 183.251 200.539 185.675 204.889H289.787C290.763 200.823 291.22 196.651 291.149 192.47V192.47Z" fill="#8C6C67"/>
<path d="M294.638 177.69H195.906C195.906 177.69 188.999 185.726 191.356 190.109H291.981C293.365 186.092 294.257 181.922 294.638 177.69V177.69Z" fill="#8C6C67"/>
<path d="M297.894 162.884H201.952C201.952 162.884 195.31 170.92 197.535 175.303H295.304C296.651 171.279 297.521 167.111 297.894 162.884V162.884Z" fill="#8C6C67"/>
<path d="M303.005 148.774H211.413C211.413 148.774 204.007 155.914 205.634 159.799H298.987C300.751 156.293 302.099 152.593 303.005 148.774V148.774Z" fill="#8C6C67"/>
<path d="M187.836 278.94H228.385C234.148 275.385 239.505 271.209 244.359 266.488H187.338C187.338 266.488 185.578 274.557 187.836 278.94Z" fill="#AA8581"/>
<path d="M187.603 264.266H246.849C250.57 260.392 253.989 256.24 257.077 251.846H187.968C187.968 251.846 185.278 259.749 187.603 264.266Z" fill="#AA8581"/>
<path d="M188.798 249.321H258.538L259.866 247.362C262.004 243.978 263.966 240.487 265.744 236.902H189.362C189.362 236.902 186.573 244.938 188.798 249.321Z" fill="#AA8581"/>
<path d="M189.661 234.379H266.973C268.868 230.341 270.52 226.194 271.922 221.959H191.687C191.687 221.959 187.602 230.161 189.661 234.379Z" fill="#AA8581"/>
<path d="M192.089 219.701H272.688C273.945 215.624 274.965 211.477 275.744 207.282H194.247C194.247 207.282 189.897 215.351 192.089 219.701Z" fill="#AA8581"/>
<path d="M195.207 204.889H276.172C276.837 200.778 277.258 196.631 277.434 192.47H199.458C199.458 192.47 193.048 200.539 195.207 204.889Z" fill="#AA8581"/>
<path d="M200.287 190.109H277.499C277.591 185.963 277.414 181.814 276.968 177.69H204.372C204.372 177.69 198.195 185.726 200.287 190.109Z" fill="#AA8581"/>
<path d="M205.835 175.303H276.638C276.088 171.104 275.222 166.953 274.047 162.884H209.82C209.82 162.884 203.809 170.92 205.835 175.303Z" fill="#AA8581"/>
<path d="M213.108 159.799H273.085C271.817 156.006 270.251 152.32 268.402 148.774H218.256C218.256 148.774 211.614 155.914 213.108 159.799Z" fill="#AA8581"/>
<path d="M190.395 192.169H288.43C288.43 192.169 249.076 196.552 228.486 195.49C207.897 194.427 190.395 192.169 190.395 192.169Z" fill="#BC9693"/>
<path d="M181.79 272.831C181.79 272.443 181.674 272.063 181.457 271.74C181.24 271.417 180.932 271.166 180.572 271.018C180.212 270.871 179.817 270.834 179.436 270.913C179.055 270.991 178.706 271.181 178.433 271.458C178.16 271.735 177.976 272.088 177.905 272.47C177.833 272.852 177.876 273.247 178.03 273.604C178.183 273.962 178.44 274.265 178.766 274.477C179.093 274.688 179.475 274.797 179.864 274.791C180.119 274.791 180.372 274.74 180.608 274.641C180.844 274.542 181.058 274.397 181.237 274.215C181.417 274.032 181.558 273.816 181.653 273.579C181.747 273.341 181.794 273.087 181.79 272.831Z" fill="#513834"/>
<path d="M182.89 257.885C182.883 257.506 182.765 257.137 182.549 256.825C182.334 256.512 182.031 256.271 181.678 256.13C181.326 255.989 180.939 255.956 180.568 256.034C180.196 256.112 179.856 256.298 179.59 256.568C179.324 256.839 179.144 257.182 179.072 257.555C179.001 257.928 179.041 258.313 179.187 258.663C179.334 259.013 179.581 259.312 179.897 259.522C180.213 259.732 180.584 259.844 180.964 259.844C181.219 259.844 181.473 259.794 181.709 259.695C181.944 259.596 182.158 259.451 182.338 259.269C182.517 259.086 182.658 258.87 182.753 258.633C182.848 258.395 182.894 258.141 182.89 257.885V257.885Z" fill="#513834"/>
<path d="M184.281 243.511C184.288 243.12 184.178 242.737 183.965 242.41C183.752 242.083 183.447 241.826 183.087 241.674C182.728 241.522 182.331 241.48 181.948 241.555C181.565 241.629 181.213 241.816 180.937 242.092C180.661 242.368 180.474 242.721 180.399 243.104C180.325 243.487 180.366 243.883 180.519 244.243C180.671 244.602 180.927 244.907 181.254 245.12C181.582 245.333 181.965 245.443 182.355 245.437C182.866 245.437 183.356 245.233 183.717 244.872C184.078 244.511 184.281 244.021 184.281 243.511V243.511Z" fill="#513834"/>
<path d="M185.942 228.302C185.948 227.911 185.838 227.528 185.626 227.201C185.413 226.874 185.107 226.617 184.748 226.465C184.389 226.313 183.992 226.271 183.609 226.346C183.226 226.42 182.873 226.608 182.597 226.884C182.321 227.16 182.134 227.512 182.06 227.895C181.985 228.278 182.027 228.674 182.179 229.034C182.331 229.393 182.588 229.699 182.915 229.911C183.242 230.124 183.626 230.234 184.016 230.228C184.527 230.228 185.017 230.025 185.378 229.664C185.739 229.302 185.942 228.812 185.942 228.302Z" fill="#513834"/>
<path d="M188.702 212.794C188.702 212.413 188.589 212.04 188.377 211.724C188.166 211.407 187.865 211.16 187.513 211.014C187.161 210.869 186.774 210.83 186.4 210.905C186.026 210.979 185.683 211.162 185.414 211.432C185.144 211.701 184.961 212.044 184.887 212.418C184.812 212.791 184.85 213.179 184.996 213.531C185.142 213.883 185.389 214.183 185.706 214.395C186.022 214.607 186.395 214.72 186.776 214.72C187.287 214.72 187.777 214.517 188.138 214.155C188.499 213.794 188.702 213.304 188.702 212.794V212.794Z" fill="#513834"/>
<path d="M193.98 198.679C193.972 198.165 193.761 197.675 193.395 197.314C193.028 196.954 192.535 196.752 192.021 196.752C191.51 196.752 191.02 196.956 190.659 197.317C190.298 197.678 190.095 198.168 190.095 198.679C190.095 199.189 190.298 199.679 190.659 200.04C191.02 200.402 191.51 200.605 192.021 200.605C192.535 200.605 193.028 200.403 193.395 200.043C193.761 199.682 193.972 199.192 193.98 198.679V198.679Z" fill="#513834"/>
<path d="M197.565 184.566C197.571 184.176 197.461 183.792 197.248 183.465C197.036 183.138 196.73 182.882 196.371 182.729C196.011 182.577 195.615 182.535 195.232 182.61C194.848 182.684 194.496 182.872 194.22 183.147C193.944 183.423 193.757 183.776 193.682 184.159C193.608 184.542 193.649 184.938 193.802 185.298C193.954 185.657 194.21 185.963 194.538 186.175C194.865 186.388 195.248 186.498 195.639 186.492C196.149 186.492 196.639 186.289 197.001 185.927C197.362 185.566 197.565 185.077 197.565 184.566V184.566Z" fill="#513834"/>
<path d="M204.472 168.791C204.472 168.41 204.359 168.038 204.148 167.721C203.936 167.405 203.635 167.158 203.283 167.012C202.931 166.866 202.544 166.828 202.17 166.902C201.797 166.977 201.453 167.16 201.184 167.43C200.915 167.699 200.731 168.042 200.657 168.416C200.583 168.789 200.621 169.177 200.767 169.528C200.912 169.88 201.159 170.181 201.476 170.393C201.793 170.604 202.165 170.717 202.546 170.717C203.057 170.717 203.547 170.514 203.908 170.153C204.269 169.792 204.472 169.302 204.472 168.791Z" fill="#513834"/>
<path d="M214.735 152.754C214.741 152.365 214.632 151.983 214.421 151.656C214.209 151.33 213.906 151.074 213.548 150.92C213.191 150.767 212.796 150.723 212.414 150.795C212.032 150.867 211.679 151.051 211.402 151.323C211.125 151.596 210.935 151.945 210.856 152.326C210.778 152.707 210.815 153.102 210.962 153.462C211.109 153.822 211.36 154.13 211.683 154.347C212.006 154.564 212.386 154.68 212.775 154.68C213.031 154.684 213.285 154.637 213.523 154.543C213.76 154.448 213.976 154.307 214.159 154.127C214.341 153.948 214.486 153.734 214.585 153.498C214.684 153.263 214.735 153.009 214.735 152.754V152.754Z" fill="#513834"/>
<path d="M298.289 152.756C298.289 152.375 298.176 152.003 297.964 151.686C297.752 151.37 297.451 151.123 297.1 150.977C296.748 150.831 296.36 150.793 295.987 150.867C295.613 150.942 295.27 151.125 295 151.394C294.731 151.664 294.548 152.007 294.473 152.38C294.399 152.754 294.437 153.141 294.583 153.493C294.729 153.845 294.975 154.146 295.292 154.358C295.609 154.569 295.981 154.682 296.362 154.682C296.615 154.682 296.866 154.632 297.1 154.536C297.333 154.439 297.546 154.297 297.724 154.118C297.903 153.939 298.045 153.727 298.142 153.493C298.239 153.26 298.289 153.009 298.289 152.756Z" fill="#513834"/>
<path d="M293.608 168.53C293.608 168.011 293.401 167.512 293.034 167.145C292.666 166.777 292.168 166.571 291.648 166.571C291.177 166.633 290.744 166.864 290.43 167.221C290.117 167.579 289.944 168.038 289.944 168.514C289.944 168.989 290.117 169.448 290.43 169.806C290.744 170.163 291.177 170.394 291.648 170.456C292.162 170.456 292.656 170.254 293.022 169.894C293.389 169.534 293.599 169.044 293.608 168.53V168.53Z" fill="#513834"/>
<path d="M290.289 183.474C290.289 183.216 290.238 182.962 290.14 182.724C290.041 182.486 289.897 182.27 289.715 182.088C289.533 181.906 289.317 181.762 289.08 181.664C288.842 181.565 288.587 181.515 288.33 181.515C287.858 181.576 287.425 181.808 287.112 182.165C286.798 182.522 286.625 182.982 286.625 183.457C286.625 183.933 286.798 184.392 287.112 184.749C287.425 185.107 287.858 185.338 288.33 185.4C288.844 185.4 289.337 185.198 289.704 184.838C290.07 184.477 290.28 183.987 290.289 183.474V183.474Z" fill="#513834"/>
<path d="M287.234 198.943C287.234 198.554 287.119 198.174 286.902 197.852C286.685 197.529 286.377 197.277 286.017 197.13C285.657 196.983 285.261 196.946 284.88 197.025C284.5 197.103 284.151 197.293 283.878 197.57C283.605 197.847 283.421 198.2 283.349 198.582C283.278 198.964 283.321 199.359 283.475 199.716C283.628 200.074 283.884 200.377 284.211 200.589C284.537 200.8 284.92 200.909 285.308 200.903C285.564 200.903 285.817 200.852 286.053 200.753C286.289 200.654 286.503 200.509 286.682 200.327C286.861 200.144 287.003 199.928 287.097 199.691C287.192 199.453 287.239 199.199 287.234 198.943V198.943Z" fill="#513834"/>
<path d="M286.136 213.887C286.136 213.5 286.021 213.121 285.806 212.799C285.591 212.476 285.285 212.225 284.927 212.077C284.569 211.929 284.175 211.89 283.795 211.966C283.415 212.041 283.066 212.228 282.791 212.502C282.517 212.776 282.331 213.125 282.255 213.505C282.18 213.885 282.218 214.279 282.367 214.637C282.515 214.995 282.766 215.301 283.088 215.516C283.411 215.731 283.789 215.846 284.177 215.846C284.435 215.851 284.692 215.803 284.932 215.706C285.172 215.61 285.39 215.465 285.572 215.282C285.755 215.1 285.899 214.882 285.996 214.642C286.093 214.402 286.141 214.146 286.136 213.887Z" fill="#513834"/>
<path d="M285.569 228.568C285.576 228.178 285.465 227.795 285.253 227.468C285.04 227.14 284.734 226.884 284.375 226.732C284.016 226.579 283.619 226.538 283.236 226.612C282.853 226.687 282.501 226.874 282.225 227.15C281.949 227.426 281.761 227.778 281.687 228.161C281.612 228.544 281.654 228.941 281.806 229.3C281.959 229.66 282.215 229.965 282.542 230.178C282.869 230.391 283.253 230.501 283.643 230.494C284.154 230.494 284.644 230.291 285.005 229.93C285.366 229.569 285.569 229.079 285.569 228.568Z" fill="#513834"/>
<path d="M289.156 242.948C289.15 242.568 289.031 242.199 288.816 241.887C288.6 241.574 288.297 241.333 287.945 241.192C287.592 241.051 287.206 241.018 286.834 241.096C286.463 241.174 286.123 241.36 285.857 241.631C285.591 241.901 285.411 242.244 285.339 242.617C285.267 242.99 285.307 243.375 285.454 243.725C285.601 244.075 285.848 244.374 286.164 244.584C286.48 244.794 286.851 244.907 287.23 244.907C287.486 244.907 287.739 244.856 287.975 244.757C288.211 244.658 288.425 244.513 288.604 244.331C288.783 244.148 288.925 243.932 289.019 243.695C289.114 243.457 289.161 243.203 289.156 242.948V242.948Z" fill="#513834"/>
<path d="M293.041 258.188C293.048 257.798 292.938 257.414 292.725 257.087C292.512 256.76 292.207 256.504 291.847 256.351C291.488 256.199 291.091 256.157 290.708 256.232C290.325 256.306 289.973 256.494 289.697 256.77C289.421 257.046 289.234 257.398 289.159 257.781C289.084 258.164 289.126 258.561 289.279 258.92C289.431 259.279 289.687 259.585 290.014 259.798C290.342 260.01 290.725 260.121 291.115 260.114C291.626 260.114 292.116 259.911 292.477 259.55C292.838 259.189 293.041 258.699 293.041 258.188V258.188Z" fill="#513834"/>
<path d="M296.927 273.131C296.934 272.743 296.824 272.361 296.613 272.034C296.402 271.708 296.098 271.451 295.741 271.298C295.383 271.145 294.988 271.101 294.606 271.173C294.224 271.245 293.872 271.429 293.594 271.701C293.317 271.974 293.127 272.323 293.049 272.704C292.97 273.085 293.007 273.48 293.154 273.84C293.302 274.2 293.553 274.508 293.876 274.725C294.199 274.942 294.579 275.057 294.968 275.057C295.223 275.062 295.477 275.015 295.715 274.92C295.952 274.826 296.169 274.684 296.351 274.505C296.534 274.326 296.678 274.112 296.777 273.876C296.876 273.64 296.927 273.387 296.927 273.131V273.131Z" fill="#513834"/>
<g style="mix-blend-mode:multiply" opacity="0.7">
<path d="M270.859 289.464C270.859 289.464 267.903 241.115 307.389 254.332L302.275 286.21L270.859 289.464Z" fill="#754B46"/>
</g>
<path d="M233.135 298.667L217.925 290.1L223.604 280.569L237.984 279.075L243.696 291.627L233.135 298.667Z" fill="#FF88C4"/>
<path d="M285.507 269.644C285.507 269.644 283.282 275.854 285.507 275.987C300.816 276.917 356.409 302.718 377.132 284.587C391.545 272.002 381.25 254.502 373.612 251.912C365.176 249.09 309.916 271.902 285.507 269.644Z" fill="#6B6B38"/>
<path d="M377.195 250.982C374.538 250.086 366.7 251.912 356.472 254.735C356.857 257.986 356.454 261.282 355.298 264.344C354.142 267.407 352.267 270.148 349.83 272.334C337.078 284.554 307.82 278.975 284.474 273.563C284.307 274.858 284.474 276.02 285.304 276.053C300.613 276.983 359.261 303.548 379.984 285.451C394.497 272.766 384.833 253.473 377.195 250.982Z" fill="#515028"/>
<path d="M301.149 243.312C306.529 247.064 329.045 168.531 312.141 158.37C295.237 148.208 287.234 233.582 301.149 243.312Z" fill="#515028"/>
<path d="M311.277 159.232C319.314 154.882 377.065 247.428 380.419 254.302C383.773 261.176 363.582 264.264 344.254 255.664C333.461 250.915 337.778 245.27 328.181 246.698C315.461 248.558 312.904 221.793 303.672 218.804C285.041 212.728 299.189 165.707 311.277 159.232Z" fill="#6B6B38"/>
<path d="M382.544 255.364C379.223 248.49 319.446 154.881 311.277 159.065C299.188 165.707 282.783 213.557 301.314 219.601C302.609 220.032 306.029 219.966 307.092 221.128C307.508 220.308 308.159 219.629 308.961 219.178C309.763 218.727 310.681 218.524 311.598 218.596C312.516 218.667 313.391 219.008 314.115 219.577C314.838 220.146 315.376 220.917 315.66 221.792C322.535 240.62 330.239 221.527 343.722 245.535C349.335 255.497 355.08 260.544 362.22 262.138C374.674 264.064 384.902 260.179 382.544 255.364Z" fill="#515028"/>
<path d="M329.737 245.702L348.069 231.589L351.124 235.839L334.021 249.487L329.737 245.702Z" fill="#513A31"/>
<path d="M331.037 258.253L336.084 277.778L330.97 278.476L325.789 260.112L331.037 258.253Z" fill="#513A31"/>
<path d="M297.761 284.186L300.285 271.501C300.285 271.501 375.936 262.204 378.892 268.181C381.848 274.158 380.154 296.506 370.025 298.067C359.896 299.627 297.761 284.186 297.761 284.186Z" fill="#513834"/>
<path d="M301.941 285.151L306.524 277.846C306.524 277.846 372.445 267.087 375.401 272.997C378.356 278.908 380.15 296.541 370.021 298.234C359.892 299.928 301.941 285.151 301.941 285.151Z" fill="#8C6C67"/>
<path d="M382.711 253.634C379.723 255.959 361.358 257.353 357.572 254.63C353.786 251.907 311.909 192.169 331.37 186.291C350.83 180.414 382.711 253.634 382.711 253.634Z" fill="#8C6C67"/>
<path d="M339.174 190.713C339.975 190.497 340.802 190.396 341.631 190.414C337.447 187.093 333.428 185.599 329.875 186.662C310.381 192.539 352.291 251.68 356.077 254.403C358.265 255.439 360.664 255.95 363.085 255.897C353.653 244.042 321.706 195.992 339.174 190.713Z" fill="#513834"/>
<g style="mix-blend-mode:multiply" opacity="0.7">
<path d="M340.829 231.388C343.253 229.761 358.364 217.342 367.829 223.552C367.829 223.552 354.545 200.872 355.142 199.244L329.737 215.449L340.829 231.388Z" fill="#754B46"/>
</g>
<path d="M322.266 227.238C330.302 229.363 342.191 217.276 355.21 215.416C368.228 213.556 379.32 221.559 378.456 214.586C376.763 200.639 340.763 138.576 304.1 147.409C281.285 152.888 322.266 227.238 322.266 227.238Z" fill="#513834"/>
<path d="M236.485 194.529C274.875 196.289 296.793 149.169 296.793 149.169C296.793 149.169 267.635 140.203 219.847 151.925C213.57 153.618 209.153 193.433 236.485 194.529Z" fill="#49322E"/>
<path d="M235.559 192.77C273.086 194.563 295.17 148.739 295.17 148.739C295.17 148.739 269.068 137.847 221.578 149.668C215.368 151.362 208.859 191.508 235.559 192.77Z" fill="#A37674"/>
<path d="M221.574 149.668C220.651 150.074 219.899 150.791 219.449 151.694C231.172 149.303 240.769 152.524 247.112 160.095C254.916 169.459 253.754 180.849 242.263 192.604C275.705 189.283 295.166 148.739 295.166 148.739C295.166 148.739 269.064 137.847 221.574 149.668Z" fill="#8C6461"/>
<path d="M216.962 177.658L235.493 150.263L218.058 180.414L216.962 177.658Z" fill="#513834"/>
<path d="M226.224 191.209L244.29 151.561L229.744 192.869L226.224 191.209Z" fill="#513834"/>
<path d="M248.276 192.141L251.132 154.286L252.593 191.211L248.276 192.141Z" fill="#513834"/>
<path d="M267.308 183.936L259.836 153.22L269.6 181.877L267.308 183.936Z" fill="#513834"/>
<path d="M281.221 170.885L264.816 149.069L283.513 168.163L281.221 170.885Z" fill="#513834"/>
<path d="M291.184 157.601L266.476 146.377L292.645 155.31L291.184 157.601Z" fill="#513834"/>
<path d="M215.765 159.995L234.528 148.24L215.698 162.685L215.765 159.995Z" fill="#513834"/>
<path d="M247.282 510.823L247.98 450.487L243.629 447.73L235.327 511.985L247.282 510.823Z" fill="#513A31"/>
<path d="M238.516 456.496C238.516 455.6 246.586 416.881 246.586 416.881L251.633 451.15L238.516 456.496Z" fill="#634B40"/>
<path d="M253.656 465.994C253.423 465.098 246.848 417.579 246.848 417.579L259.567 465.662L253.656 465.994Z" fill="#634B40"/>
<path d="M169.867 520.35V532.769C169.867 532.769 192.018 545.72 226.058 540.34L169.867 520.35Z" fill="#D19479"/>
<path d="M164.358 459.32C175.365 464.291 185.845 470.354 195.641 477.418C211.216 488.011 227.257 500.662 235.493 511.986C235.493 511.986 170.103 518.461 145.827 510.126L164.358 459.32Z" fill="#70574C"/>
<path d="M230.909 535.193L210.385 528.718L232.802 526.559L230.909 535.193Z" fill="#D19479"/>
<path d="M261.43 509.064L253.725 461.745L295.868 479.178L317.753 473.899L335.155 503.785C335.155 503.785 276.806 509.795 261.43 509.064Z" fill="#70574C"/>
<path d="M292.612 525.329C294.166 531.733 296.335 537.971 299.088 543.958C299.088 543.958 330.305 542.364 342.028 533.83L292.612 525.329Z" fill="#D19479"/>
<path d="M317.751 522.509L345.282 528.586L343.688 516.034L317.751 522.509Z" fill="#D19479"/>
<g style="mix-blend-mode:multiply" opacity="0.7">
<path d="M341.631 377.731L340.701 372.352C340.524 371.379 339.998 370.504 339.221 369.893C338.444 369.281 337.47 368.974 336.483 369.031H334.922C334.524 367.57 334.126 366.075 333.76 364.648C334.645 364.387 335.424 363.852 335.985 363.12C336.36 362.605 336.614 362.012 336.729 361.386C336.844 360.759 336.817 360.115 336.649 359.501L333.959 349.804L330.174 345.521C329.532 345.303 328.858 345.202 328.181 345.222H327.982C327.683 344.226 327.351 343.196 327.019 342.233H327.351C314.233 327.124 301.148 310.986 286.536 291.361L274.88 291.726L272.09 294.117C298.259 326.991 317.82 351.498 341.631 377.731Z" fill="#754B46"/>
</g>
<path d="M274.78 288.206L284.743 279.539C325.624 335.16 353.553 362.555 401.972 414.258C406.223 418.774 396.127 425.282 392.806 422.028C341.232 371.488 316.391 340.34 274.78 288.206Z" fill="#442F28"/>
<path d="M283.91 282.824L278.298 287.672C320.441 339.474 350.33 367.201 400.144 415.849C353.817 366.604 323.762 335.854 283.91 282.824Z" fill="#E0A246"/>
<path d="M303.573 284.19L307.06 278.246C307.06 278.246 370.988 268.715 370.158 277.183C368.365 299.465 303.573 284.19 303.573 284.19Z" fill="#BC9693"/>
<path d="M375.136 271.634C375.933 275.154 370.819 294.049 366.468 297.834C362.118 301.62 364.608 302.948 370.819 301.62C377.029 300.292 383.239 287.308 379.719 274.324C376.199 261.341 375.136 271.634 375.136 271.634Z" fill="#513834"/>
<path d="M323.93 219.533C330.572 221.292 340.07 211.496 350.498 209.836C360.926 208.176 374.176 214.12 373.479 208.408C372.117 196.985 340.568 143.622 310.945 150.861C292.581 155.378 323.93 219.533 323.93 219.533Z" fill="#BC9693"/>
<path d="M318.086 198.713C316.923 199.61 317.92 203.163 319.979 202.698C323.798 201.834 343.225 190.743 338.809 191.573C333.727 192.503 321.772 195.824 318.086 198.713Z" fill="#D8B4B2"/>
<path d="M322.731 210.072C321.569 210.968 322.565 214.521 324.624 214.056C328.476 213.16 347.871 202.102 343.454 202.899C338.24 203.862 326.451 207.149 322.731 210.072Z" fill="#D8B4B2"/>
<path d="M313.8 183.271C312.637 184.068 313.202 187.223 315.228 187.521C318.283 187.92 337.378 178.29 332.862 178.755C327.382 179.319 317.486 180.648 313.8 183.271Z" fill="#D8B4B2"/>
<path d="M309.017 171.519C307.788 172.25 308.685 174.541 310.843 174.84C314.164 175.437 334.455 167.468 329.64 167.634C323.961 167.966 313.068 169.128 309.017 171.519Z" fill="#D8B4B2"/>
<path d="M305.795 161.324C304.499 161.954 305.031 164.644 307.19 165.109C310.51 165.939 332.993 158.468 328.112 158.169C322.366 158.003 310.012 159.165 305.795 161.324Z" fill="#D8B4B2"/>
<path d="M310.48 150.531C308.839 150.908 307.403 151.893 306.461 153.287C319.081 151.029 333.726 163.515 340.103 182.476C343.709 192.545 343.709 203.554 340.103 213.623C343.546 211.976 347.218 210.857 350.995 210.303C361.722 208.609 375.238 214.653 374.541 208.842C373.013 197.352 340.7 143.159 310.48 150.531Z" fill="#8C6C67"/>
<path d="M303.84 162.287C312.839 158.103 331.271 153.886 341.2 159.498C333.031 157.373 323.533 157.372 303.84 162.287Z" fill="#513834"/>
<g style="mix-blend-mode:multiply" opacity="0.5">
<path d="M277.035 164.376C296.932 163.235 316.678 160.233 336.016 155.41C326.053 148.503 315.093 144.751 304.101 147.407C303.044 147.656 302.049 148.12 301.179 148.769H295.168C288.643 146.501 281.838 145.138 274.943 144.718L271.39 126.421C261.194 127.185 251.464 128.28 242.464 129.742L240.737 141.729C240.108 141.424 239.498 141.08 238.911 140.7C238.568 141.109 238.288 141.568 238.081 142.061C238.833 142.814 239.597 143.511 240.372 144.153L240.106 146.013C238.512 146.245 236.785 146.544 235.258 146.843C231.184 147.171 227.143 147.814 223.169 148.769H211.546C209.677 150.595 208.058 152.661 206.731 154.912C203.327 156.061 199.999 157.426 196.768 158.996C211.579 164.376 242.099 166.733 277.035 164.376Z" fill="#AA3529"/>
</g>
<path d="M226.492 88.271C226.492 86.4869 225.976 84.7409 225.007 83.2428C224.038 81.7447 222.657 80.5581 221.031 79.8257C219.404 79.0933 217.6 78.8462 215.836 79.1141C214.072 79.3819 212.422 80.1534 211.086 81.3358C209.75 82.5182 208.784 84.0611 208.303 85.7793C207.823 87.4975 207.849 89.3179 208.378 91.0217C208.907 92.7255 209.917 94.2402 211.287 95.3839C212.656 96.5276 214.327 97.2518 216.098 97.4692C217.385 97.5502 218.675 97.3761 219.895 96.9573C221.114 96.5384 222.239 95.883 223.205 95.0284C224.171 94.1738 224.958 93.1369 225.522 91.9773C226.087 90.8177 226.416 89.5582 226.492 88.271V88.271Z" fill="#543C36"/>
<path d="M184.748 139.437L212.411 97.2317L225.396 98.5268L197.832 139.437H184.748Z" fill="#775650"/>
<path d="M213.506 97.3677C213.517 105.58 211.498 113.668 207.627 120.911C204.307 127.993 199.545 134.304 193.646 139.44H197.831L225.361 98.53L213.506 97.3677Z" fill="#543C36"/>
<path d="M215.733 99.1634C220.382 116.265 229.98 135.325 240.109 143.627L242.334 141.767L228.021 98.9309L215.733 99.1634Z" fill="#E5619D"/>
<path d="M251.098 146.482C241.136 150.334 224.531 120.282 222.405 101.421C240.04 74.5237 280.954 101.222 280.954 101.222C280.954 101.222 275.009 137.151 251.098 146.482Z" fill="#9B7A75"/>
<g style="mix-blend-mode:multiply" opacity="0.7">
<path d="M226.689 109.587C256.312 109.587 268.002 118.387 270.393 129.113C275.5 120.496 279.073 111.058 280.954 101.22C280.954 101.22 240.04 74.6545 222.405 101.419C222.764 104.189 223.319 106.93 224.066 109.621L226.689 109.587Z" fill="#754B46"/>
</g>
<path d="M281.519 100.556L260.862 141.035L261.892 142.064L289.821 111.05L281.519 100.556Z" fill="#E5619D"/>
<path d="M327.978 142.53L296.03 98.2319L292.709 91.5906C291.945 75.7843 285.602 56.4248 256.743 55.5947C234.028 54.9305 215.563 70.5045 215.264 93.6494L209.552 102.25L276.835 102.516L280.953 138.08L327.978 142.53Z" fill="#775650"/>
<path d="M217.891 85.4462C222.341 70.8354 229.215 60.7405 246.219 58.084C246.219 58.084 220.813 83.6199 217.891 85.4462Z" fill="#AD827D"/>
<path d="M296.03 98.23L292.709 91.5887C292.144 80.0993 288.591 66.7502 275.639 59.9761C275.916 60.8333 276.126 61.7104 276.27 62.5995C278.993 78.6383 261.093 95.0091 236.418 99.1267C227.684 100.588 236.717 102.281 236.717 102.281L276.934 102.447L280.952 138.078L327.977 142.66L296.03 98.23Z" fill="#543C36"/>
<path d="M251.299 148.569C255.78 147.438 259.81 144.972 262.856 141.496C262.841 141.23 262.768 140.97 262.642 140.734C262.515 140.499 262.339 140.295 262.125 140.135C258.339 141.893 254.288 143.015 250.137 143.455C246.144 143.913 242.118 142.936 238.779 140.699C238.436 141.109 238.156 141.568 237.949 142.061C242.631 146.809 247.38 149.267 251.299 148.569Z" fill="#543C36"/>
<path d="M347.507 227.733L358.034 224.91C358.034 224.91 372.613 252.87 367.765 253.07C362.916 253.269 347.507 227.733 347.507 227.733Z" fill="#BC9693"/>
<path d="M356.208 250.518C364.312 252.483 372.806 252.126 380.717 249.489C393.303 245.039 389.417 255.067 379.122 256.13C372.23 257.031 365.235 256.761 358.433 255.333L356.208 250.518Z" fill="#513834"/>
<path d="M361.29 192.77L360.892 207.779C360.892 207.779 372.415 212.628 372.415 206.152C372.415 199.677 361.29 192.77 361.29 192.77Z" fill="#9E7672"/>
<path d="M299.882 85.2157C299.619 83.4513 298.853 81.8002 297.674 80.4607C296.496 79.1213 294.956 78.1505 293.239 77.665C291.522 77.1796 289.702 77.2001 287.997 77.724C286.291 78.2479 284.773 79.2529 283.625 80.6184C282.477 81.984 281.748 83.6519 281.525 85.4218C281.302 87.1918 281.595 88.9886 282.368 90.5961C283.141 92.2037 284.362 93.5537 285.885 94.4843C287.407 95.4148 289.165 95.8863 290.949 95.8418C293.528 95.5807 295.903 94.3248 297.571 92.3408C299.239 90.3568 300.068 87.8009 299.882 85.2157Z" fill="#543C36"/>
<path d="M184.447 207.282H288.692C288.692 207.282 246.848 211.698 224.963 210.602C203.078 209.507 184.447 207.282 184.447 207.282Z" fill="#BC9693"/>
<path d="M184.447 222.423H288.692C288.692 222.423 246.848 226.807 224.963 225.744C203.078 224.681 184.447 222.423 184.447 222.423Z" fill="#BC9693"/>
<path d="M184.284 236.999H288.528C288.528 236.999 246.684 241.382 224.799 240.319C202.914 239.257 184.284 236.999 184.284 236.999Z" fill="#BC9693"/>
<path d="M184.284 251.846H288.528C288.528 251.846 246.684 256.229 224.799 255.167C202.914 254.104 184.284 251.846 184.284 251.846Z" fill="#BC9693"/>
<path d="M184.284 266.686H288.528C288.528 266.686 246.684 271.102 224.799 270.007C202.914 268.911 184.284 266.686 184.284 266.686Z" fill="#BC9693"/>
<path d="M321.37 211.133C328.318 205.698 336.462 202.001 345.127 200.35C353.791 198.698 362.725 199.139 371.185 201.636C356.241 199.51 341.595 201.901 321.37 211.133Z" fill="#513834"/>
<path d="M317.519 199.046C324.468 193.614 332.613 189.919 341.277 188.267C349.941 186.616 358.874 187.055 367.334 189.549C352.39 187.557 337.744 189.948 317.519 199.046Z" fill="#513834"/>
<path d="M311.373 184.566C318.171 179.749 326.025 176.631 334.277 175.476C342.528 174.32 350.937 175.16 358.797 177.925C344.948 175.435 331 176.929 311.373 184.566Z" fill="#513834"/>
<path d="M306.926 172.217C317.686 167.203 339.605 162.255 351.46 168.897C341.863 166.373 330.572 166.373 306.926 172.217Z" fill="#513834"/>
<path d="M249.935 106.363C251.231 109.684 262.987 124.427 271.156 107.492L249.935 106.363Z" fill="#543330"/>
<path d="M245.121 106.102C243.826 109.622 232.336 124.732 224.365 107.231L245.121 106.102Z" fill="#543330"/>
<path d="M238.976 137.546C238.86 137.595 238.736 137.62 238.61 137.62C238.485 137.62 238.361 137.595 238.245 137.546C238.13 137.484 238.029 137.399 237.949 137.296C237.869 137.193 237.811 137.074 237.78 136.948C237.336 135.463 237.216 133.9 237.428 132.365C237.64 130.829 238.179 129.357 239.009 128.048C240.208 126.603 241.743 125.475 243.481 124.763C245.218 124.051 247.104 123.776 248.972 123.964C250.977 123.773 252.998 124.062 254.869 124.807C256.74 125.551 258.407 126.731 259.732 128.248C261.245 130.415 261.917 133.059 261.625 135.686C261.607 135.924 261.538 136.156 261.422 136.365C261.306 136.574 261.147 136.756 260.955 136.898C260.762 137.04 260.542 137.138 260.308 137.187C260.074 137.236 259.832 137.233 259.599 137.18C259.336 137.098 259.111 136.927 258.959 136.697C258.808 136.467 258.741 136.192 258.769 135.918C259.09 133.892 258.64 131.818 257.507 130.107C256.444 128.962 255.127 128.083 253.661 127.541C252.196 126.998 250.624 126.808 249.072 126.986C247.687 126.834 246.285 127.01 244.981 127.5C243.678 127.991 242.507 128.782 241.566 129.808C240.561 131.446 240.217 133.405 240.603 135.287C240.682 135.76 240.597 136.245 240.361 136.662C240.125 137.079 239.754 137.403 239.308 137.579L238.976 137.546Z" fill="#543330"/>
<path d="M244.953 124.201C239.142 128.883 234.559 137.185 243.791 149.671C253.023 162.156 243.027 172.915 236.02 175.904C236.02 175.904 249.105 162.256 239.009 152.128C229.81 142.963 230.773 126.824 244.953 124.201Z" fill="#F4D4D3"/>
<path d="M257.71 125.656C262.027 130.703 265.249 136.946 257.245 148.901C249.242 160.855 253.094 174.835 258.441 178.222C258.441 178.222 251.965 163.611 260.732 155.509C270.628 146.31 268.868 129.242 257.71 125.656Z" fill="#F4D4D3"/>
<path d="M244.056 148.039C237.049 139.139 235.289 129.974 244.621 124.031C241.4 131.602 238.079 137.413 244.056 148.039Z" fill="#F4D4D3"/>
<path d="M258.11 141.398C263.025 134.358 263.655 127.717 255.453 124.562C258.84 129.643 262.095 133.362 258.11 141.398Z" fill="#F4D4D3"/>
<path d="M238.147 157.668C230.011 146.212 227.952 134.424 238.712 126.886C234.926 136.549 231.107 143.987 238.147 157.668Z" fill="#F4D4D3"/>
<path d="M266.109 156.773C271.987 144.221 271.854 132.499 259.899 127.219C265.411 135.82 270.625 142.262 266.109 156.773Z" fill="#F4D4D3"/>
<path d="M263.72 176.965C255.683 165.375 254.023 153.72 265.513 146.746C261.196 156.077 256.912 163.217 263.72 176.965Z" fill="#F4D4D3"/>
<path d="M242.232 121.175C245.938 122.094 249.826 121.956 253.457 120.776C255.184 119.348 248.077 105.966 248.077 105.966C248.077 105.966 240.439 119.249 242.232 121.175Z" fill="#BC9693"/>
<path d="M254.021 119.982C254.021 119.484 252.692 119.351 251.43 119.75C250.168 120.148 249.272 120.846 249.404 121.344C249.537 121.842 250.733 121.975 251.995 121.609C253.257 121.244 254.253 120.514 254.021 119.982Z" fill="#543330"/>
<path d="M246.152 121.241C246.152 120.709 245.321 120.078 244.059 119.813C242.798 119.547 241.668 119.813 241.536 120.311C241.403 120.809 242.366 121.473 243.628 121.739C244.89 122.004 246.019 121.772 246.152 121.241Z" fill="#543330"/>
<path d="M254.258 107.926C254.258 107.926 259.604 116.626 267.542 108.59L254.258 107.926Z" fill="#30201C"/>
<path d="M240.904 107.83C240.904 107.83 236.52 116.663 229.447 108.826L240.904 107.83Z" fill="#30201C"/>
<path d="M281.153 98.7949H213.903V102.846H281.153V98.7949Z" fill="#FFC466"/>
<path d="M295.17 85.6102C295.294 84.5828 295.187 83.5407 294.858 82.5595C294.529 81.5784 293.986 80.6829 293.268 79.9377C292.55 79.1925 291.675 78.6163 290.707 78.2512C289.738 77.8861 288.701 77.7411 287.67 77.8266C286.638 77.9121 285.639 78.2261 284.744 78.7457C283.849 79.2654 283.081 79.9776 282.495 80.8309C281.91 81.6842 281.522 82.657 281.359 83.6789C281.196 84.7008 281.263 85.7462 281.554 86.7391C281.43 87.7665 281.537 88.8087 281.866 89.7898C282.195 90.771 282.738 91.6665 283.456 92.4116C284.174 93.1568 285.049 93.733 286.017 94.0981C286.986 94.4633 288.023 94.6082 289.054 94.5227C290.086 94.4372 291.085 94.1232 291.98 93.6036C292.875 93.0839 293.643 92.3717 294.229 91.5184C294.814 90.6652 295.202 89.6923 295.365 88.6704C295.528 87.6485 295.461 86.6032 295.17 85.6102V85.6102Z" fill="#775650"/>
<path d="M325.986 223.851C325.941 223.377 325.759 222.927 325.463 222.554C325.167 222.182 324.77 221.904 324.319 221.753C323.867 221.602 323.382 221.585 322.922 221.704C322.461 221.824 322.046 222.074 321.725 222.426C321.404 222.777 321.192 223.213 321.114 223.683C321.037 224.152 321.097 224.634 321.288 225.069C321.479 225.505 321.792 225.876 322.19 226.137C322.588 226.398 323.052 226.538 323.528 226.54C324.209 226.506 324.85 226.204 325.31 225.7C325.77 225.197 326.013 224.532 325.986 223.851V223.851Z" fill="#FFC466"/>
<path d="M378.625 214.652C378.573 214.187 378.389 213.747 378.093 213.385C377.798 213.023 377.404 212.754 376.959 212.61C376.514 212.467 376.037 212.455 375.585 212.577C375.134 212.698 374.727 212.947 374.414 213.295C374.101 213.642 373.895 214.072 373.821 214.534C373.747 214.996 373.808 215.469 373.997 215.896C374.186 216.324 374.494 216.688 374.885 216.944C375.276 217.201 375.733 217.339 376.2 217.342C376.536 217.325 376.866 217.242 377.169 217.097C377.473 216.953 377.745 216.75 377.971 216.5C378.196 216.25 378.37 215.958 378.482 215.641C378.594 215.324 378.643 214.988 378.625 214.652V214.652Z" fill="#FFC466"/>
<path d="M305.431 274.588C305.431 273.945 305.176 273.329 304.721 272.874C304.266 272.419 303.65 272.164 303.007 272.164C302.364 272.164 301.747 272.419 301.292 272.874C300.838 273.329 300.582 273.945 300.582 274.588C300.582 275.231 300.838 275.848 301.292 276.302C301.747 276.757 302.364 277.012 303.007 277.012C303.65 277.012 304.266 276.757 304.721 276.302C305.176 275.848 305.431 275.231 305.431 274.588V274.588Z" fill="#FFC466"/>
<path d="M281.953 297.306L291.949 288.904L285.208 278.112L273.319 288.107L281.953 297.306Z" fill="#FFC466"/>
<path d="M277.068 271.471C275.241 280.337 291.082 277.581 291.082 277.581L291.414 266.291C291.414 266.291 278.894 262.638 277.068 271.471Z" fill="#BC9693"/>
<path d="M248.878 506.307C200.691 509.993 177.145 509.993 144.766 503.352L142.74 510.624C142.74 510.624 176.746 521.15 249.01 512.649L248.878 506.307Z" fill="#E0A246"/>
<path d="M260.097 504.48C303.967 503.052 327.446 500.628 355.741 495.614L358.232 502.654C358.232 502.654 322.996 512.383 260.662 510.856L260.097 504.48Z" fill="#E0A246"/>
<path d="M168.242 314.075C168.242 314.075 187.503 318.525 187.902 301.722L171.496 302.918L168.242 314.075Z" fill="#513834"/>
<path d="M296.296 101.554L285.469 103.978C285.469 103.978 288.093 136.388 288.591 136.587C290.716 137.384 318.944 138.413 318.944 138.413L296.296 101.554Z" fill="#775650"/>
<path d="M295.601 86.6439C295.601 83.8214 294.438 81.53 293.01 81.53C291.582 81.53 290.453 83.8214 290.453 86.6439C290.453 89.4664 291.615 91.7908 293.01 91.7908C294.405 91.7908 295.601 89.4996 295.601 86.6439Z" fill="#AD827D"/>
<g style="mix-blend-mode:multiply" opacity="0.5">
<path d="M246.549 79.3693C260.338 79.8265 273.888 75.6918 285.072 67.6144C283.375 65.4449 281.373 63.5322 279.128 61.936C271.444 67.4042 262.288 70.4249 252.859 70.6028C242.63 70.304 239.11 65.4558 239.808 58.084C234.851 59.9135 230.328 62.7516 226.524 66.4188C226.225 74.0562 231.671 78.9709 246.549 79.3693Z" fill="#75302D"/>
</g>
<path d="M277.268 7.01206C277.003 4.58799 275.741 2.89435 274.346 2.96076C272.951 3.02718 271.855 4.8535 271.689 7.27757C269.697 39.5543 261.726 67.0493 241.568 66.3851C220.779 65.5218 214.602 36.4994 213.539 3.85741C213.539 1.93143 212.609 0.304228 211.514 0.0385755C210.418 -0.227077 209.388 0.901937 209.056 2.72829C208.193 7.76462 207.727 12.8609 207.661 17.9702C207.097 51.1767 212.311 78.1735 241.336 79.369C270.361 80.5644 277.434 54.0323 277.866 20.9254C277.99 16.2793 277.791 11.6304 277.268 7.01206Z" fill="#543C36"/>
<path d="M212.809 3.85542C213.839 36.3646 219.916 65.5197 240.273 66.3831C240.805 66.3831 241.303 66.3831 241.834 66.3831C221.908 65.0216 215.964 36.132 214.901 3.95494C214.901 2.02896 214.038 0.401964 212.942 0.136312C212.694 0.0863675 212.438 0.103075 212.198 0.184752C211.959 0.266429 211.746 0.409994 211.58 0.601049C212.36 1.50744 212.795 2.6599 212.809 3.85542V3.85542Z" fill="#30201C"/>
<path d="M277.267 7.00997C276.968 4.5859 275.772 2.89226 274.411 2.95867C274.043 2.97505 273.692 3.1155 273.414 3.35714C274.446 4.30197 275.065 5.61341 275.141 7.00997C275.696 11.626 275.93 16.2749 275.839 20.9233C275.307 53.2665 268.632 79.3005 241.732 79.3337H242.031C270.492 80.5291 277.433 53.9972 277.964 20.8903C278.037 16.2532 277.804 11.6164 277.267 7.00997V7.00997Z" fill="#30201C"/>
<path d="M242.667 66.3877C262.826 67.2179 270.763 39.5569 272.789 7.28027C272.739 6.44577 272.921 5.61382 273.313 4.87572C273.706 4.13763 274.294 3.5219 275.014 3.09623C274.817 3.04703 274.612 3.04703 274.416 3.09623C273.054 3.09623 271.925 4.98916 271.759 7.41323C269.767 39.2914 261.996 66.587 242.402 66.4874L242.667 66.3877Z" fill="#30201C"/>
<path d="M208.723 17.969C208.816 12.8598 209.293 7.76468 210.151 2.72708C210.191 2.1996 210.357 1.68935 210.634 1.23882C210.911 0.788291 211.292 0.410625 211.745 0.13707C211.745 0.13707 211.745 0.13707 211.745 0.13707C210.649 -0.161789 209.62 1.00043 209.287 2.82679C208.425 7.86312 207.958 12.9592 207.893 18.0685C207.328 51.275 212.542 78.2719 241.567 79.4674H242.431C213.372 78.0395 208.192 51.0095 208.723 17.969Z" fill="#30201C"/>
<path d="M279.793 133.893L325.456 137.413L329.508 143.092L280.623 139.04L279.793 133.893Z" fill="#E0A246"/>
<path d="M201.752 135.79L198.796 139.309L182.59 140.671L185.545 134.993L201.752 135.79Z" fill="#FFC466"/>
<path d="M310.079 166.572C311.069 166.572 311.872 165.769 311.872 164.778C311.872 163.788 311.069 162.985 310.079 162.985C309.088 162.985 308.285 163.788 308.285 164.778C308.285 165.769 309.088 166.572 310.079 166.572Z" fill="#513834"/>
<path d="M312.271 177.923C313.262 177.923 314.065 177.12 314.065 176.13C314.065 175.14 313.262 174.337 312.271 174.337C311.281 174.337 310.478 175.14 310.478 176.13C310.478 177.12 311.281 177.923 312.271 177.923Z" fill="#513834"/>
<path d="M317.952 191.774C318.943 191.774 319.746 190.971 319.746 189.981C319.746 188.99 318.943 188.188 317.952 188.188C316.962 188.188 316.159 188.99 316.159 189.981C316.159 190.971 316.962 191.774 317.952 191.774Z" fill="#513834"/>
<path d="M322.099 205.187C323.089 205.187 323.892 204.384 323.892 203.393C323.892 202.403 323.089 201.6 322.099 201.6C321.109 201.6 320.306 202.403 320.306 203.393C320.306 204.384 321.109 205.187 322.099 205.187Z" fill="#513834"/>
<path d="M326.552 216.244C327.543 216.244 328.345 215.442 328.345 214.451C328.345 213.461 327.543 212.658 326.552 212.658C325.562 212.658 324.759 213.461 324.759 214.451C324.759 215.442 325.562 216.244 326.552 216.244Z" fill="#513834"/>
<path d="M361.689 249.586C362.679 249.586 363.482 248.783 363.482 247.793C363.482 246.802 362.679 246 361.689 246C360.698 246 359.896 246.802 359.896 247.793C359.896 248.783 360.698 249.586 361.689 249.586Z" fill="#513834"/>
<path d="M373.579 248.622C374.569 248.622 375.372 247.82 375.372 246.829C375.372 245.839 374.569 245.036 373.579 245.036C372.588 245.036 371.785 245.839 371.785 246.829C371.785 247.82 372.588 248.622 373.579 248.622Z" fill="#513834"/>
<path d="M368.593 277.943C369.583 277.943 370.386 277.141 370.386 276.15C370.386 275.16 369.583 274.357 368.593 274.357C367.603 274.357 366.8 275.16 366.8 276.15C366.8 277.141 367.603 277.943 368.593 277.943Z" fill="#513834"/>
<path d="M352.292 277.943C353.282 277.943 354.085 277.141 354.085 276.15C354.085 275.16 353.282 274.357 352.292 274.357C351.301 274.357 350.498 275.16 350.498 276.15C350.498 277.141 351.301 277.943 352.292 277.943Z" fill="#513834"/>
<path d="M337.609 279.341C338.599 279.341 339.402 278.538 339.402 277.548C339.402 276.558 338.599 275.755 337.609 275.755C336.619 275.755 335.816 276.558 335.816 277.548C335.816 278.538 336.619 279.341 337.609 279.341Z" fill="#513834"/>
<path d="M323.499 280.435C324.489 280.435 325.292 279.632 325.292 278.642C325.292 277.652 324.489 276.849 323.499 276.849C322.508 276.849 321.706 277.652 321.706 278.642C321.706 279.632 322.508 280.435 323.499 280.435Z" fill="#513834"/>
<path d="M308.816 283.222C309.807 283.222 310.61 282.419 310.61 281.428C310.61 280.438 309.807 279.635 308.816 279.635C307.826 279.635 307.023 280.438 307.023 281.428C307.023 282.419 307.826 283.222 308.816 283.222Z" fill="#513834"/>
<path d="M345.349 231.886C352.054 227.777 359.973 226.111 367.765 227.17C367.765 227.17 352.821 229.395 347.275 235.206L345.349 231.886Z" fill="#513834"/>
<path d="M362.919 269.042C363.349 278.08 361.134 287.047 356.542 294.843C356.542 294.843 361.59 278.24 359.166 269.374L362.919 269.042Z" fill="#513834"/>
<path d="M345.482 267.951C346.326 276.027 344.594 284.163 340.534 291.195C340.534 291.195 344.652 276.086 341.862 267.951H345.482Z" fill="#513834"/>
<path d="M331.102 270.708C331.453 274.02 331.143 277.369 330.191 280.561C329.239 283.753 327.664 286.724 325.556 289.304C325.556 289.304 330.04 277.383 327.416 270.409L331.102 270.708Z" fill="#513834"/>
<path d="M242.4 77.2099C242.4 74.5866 241.039 72.4946 239.345 72.4946C237.651 72.4946 236.323 74.5866 236.323 77.2099C236.323 79.8332 237.685 81.8921 239.345 81.8921C241.006 81.8921 242.4 79.8 242.4 77.2099Z" fill="#FFC466"/>
<path d="M275.94 8.57007C275.94 7.10897 275.177 5.91357 274.213 5.91357C273.25 5.91357 272.52 7.10897 272.52 8.57007C272.52 10.0312 273.284 11.2266 274.213 11.2266C275.143 11.2266 275.94 10.0312 275.94 8.57007Z" fill="#FFC466"/>
<path d="M212.843 5.25098C212.843 3.78988 212.079 2.59448 211.116 2.59448C210.153 2.59448 209.422 3.78988 209.422 5.25098C209.422 6.71207 210.186 7.90747 211.116 7.90747C212.046 7.90747 212.843 6.71207 212.843 5.25098Z" fill="#FFC466"/>
<path d="M276.239 270.901L278.73 266.12C278.73 266.12 270.826 266.551 276.239 270.901Z" fill="#BC9693"/>
<path d="M276.938 276.982L275.975 271.802C275.975 271.802 269.964 276.916 276.938 276.982Z" fill="#BC9693"/>
<path d="M281.754 279.274L277.205 276.65C277.205 276.65 277.271 284.554 281.754 279.274Z" fill="#BC9693"/>
<path d="M19.8727 197.906L16.7252 189.56C16.7252 189.56 86.5168 157.5 91.1495 162.291C95.7823 167.082 101.037 181.127 91.8137 185.841C82.5905 190.555 19.8727 197.906 19.8727 197.906Z" fill="#8C6C67"/>
<path d="M91.7688 185.521C92.8215 184.996 93.7602 184.269 94.5315 183.381C95.3027 182.493 95.8912 181.462 96.2632 180.346C87.2757 184.516 77.7507 187.413 67.9634 188.952C48.222 192.236 30.8189 190.748 24.7134 185.687C19.8495 187.859 16.774 189.275 16.774 189.275L19.9215 197.621C19.9215 197.621 82.5456 190.234 91.7688 185.521Z" fill="#513834"/>
<path d="M64.5303 191.133L62.9379 214.404L57.7039 213.859L58.8232 191.842L64.5303 191.133Z" fill="#513A31"/>
<path d="M93.161 182.675C93.161 182.675 96.7423 174.042 89.2776 161.775C86.8298 157.737 89.7808 157.598 91.6205 158.508C93.4601 159.417 100.571 175.845 95.6511 181.861L93.161 182.675Z" fill="#513834"/>
<path d="M88.0336 164.139C90.1661 163.799 93.3147 178.588 91.6683 180.579C90.0219 182.57 59.3111 186.473 57.4097 183.357C55.5084 180.241 81.0717 165.233 88.0336 164.139Z" fill="#BC9693"/>
<path d="M21.1148 194.558C21.5713 194.676 22.0519 194.658 22.4988 194.508C22.9457 194.358 23.3397 194.083 23.6335 193.714C23.9272 193.345 24.1083 192.9 24.1545 192.43C24.2008 191.961 24.1104 191.489 23.8943 191.07C23.6782 190.651 23.3456 190.304 22.9366 190.07C22.5275 189.835 22.0595 189.725 21.5889 189.75C21.1183 189.776 20.665 189.937 20.2839 190.215C19.9028 190.492 19.6102 190.874 19.4411 191.314C19.3374 191.637 19.2986 191.977 19.3267 192.315C19.3548 192.653 19.4493 192.982 19.6047 193.284C19.7602 193.585 19.9736 193.853 20.2327 194.071C20.4919 194.29 20.7916 194.456 21.1148 194.558V194.558Z" fill="#FFC466"/>
<path d="M6.82833 203.047C5.42452 200.873 4.99148 198.703 5.67712 198.252C6.36277 197.8 8.17235 199.134 9.5235 201.239C10.8746 203.343 10.5223 204.092 9.77798 204.568C9.03363 205.045 8.10948 205.205 6.82833 203.047Z" fill="#8C6C67"/>
<path d="M4.32509 204.87C2.94651 202.703 2.48479 200.518 3.19136 200.057C3.89794 199.597 5.69138 200.942 7.0451 203.05C8.39881 205.158 8.0375 205.889 7.2721 206.374C6.50671 206.86 5.73158 207.049 4.32509 204.87Z" fill="#8C6C67"/>
<path d="M17.3892 203.432L17.8126 193.197C17.8126 193.197 1.74169 190.977 1.28628 196.442C0.830864 201.907 6.56771 205.469 17.3892 203.432Z" fill="#BC9693"/>
<path d="M31.4302 185.443C31.0775 186.377 31.5488 187.42 32.4829 187.773C33.4171 188.126 34.4602 187.654 34.8129 186.72C35.1656 185.786 34.6943 184.742 33.7602 184.39C32.8261 184.037 31.7829 184.509 31.4302 185.443Z" fill="#513834"/>
<path d="M52.9207 186.606C52.568 187.54 53.0395 188.583 53.9737 188.936C54.9078 189.289 55.9509 188.817 56.3036 187.883C56.6563 186.949 56.185 185.906 55.2509 185.553C54.3167 185.2 53.2734 185.672 52.9207 186.606Z" fill="#513834"/>
<path d="M67.096 184.169C66.7433 185.103 67.2145 186.146 68.1486 186.499C69.0827 186.852 70.1258 186.38 70.4785 185.446C70.8312 184.512 70.36 183.469 69.4259 183.116C68.4918 182.763 67.4487 183.235 67.096 184.169Z" fill="#513834"/>
<path d="M84.6973 179.026C84.3446 179.96 84.8161 181.003 85.7502 181.356C86.6843 181.709 87.7274 181.237 88.0801 180.303C88.4329 179.369 87.9616 178.325 87.0274 177.973C86.0933 177.62 85.05 178.091 84.6973 179.026Z" fill="#513834"/>
<path d="M80.1211 187.33C80.1211 187.33 80.9994 174.956 72.8967 167.602C72.8967 167.602 78.4996 180.06 76.0254 187.752L80.1211 187.33Z" fill="#513834"/>
<path d="M62.4231 191.25C62.4231 191.25 63.7756 180.559 57.461 174.345C57.461 174.345 61.4809 185.025 59.099 191.713L62.4231 191.25Z" fill="#513834"/>
<path d="M49.6338 191.376C49.6338 191.376 50.5968 183.042 44.7788 179.02C44.7788 179.02 48.6293 186.737 46.6578 192.149L49.6338 191.376Z" fill="#513834"/>
</svg>
