<svg width="300" height="127" viewBox="0 0 300 127" fill="none" xmlns="http://www.w3.org/2000/svg">
<path d="M269.683 122.653H30.3691C15.8761 122.653 4.09731 110.925 4.09731 96.4321V30.3686C4.09731 15.8756 15.8761 4.09686 30.3691 4.09686H269.683C284.176 4.09686 295.903 15.8756 295.903 30.3686V96.4321C295.903 110.925 284.176 122.653 269.683 122.653Z" fill="url(#paint0_linear_72_295)"/>
<path opacity="0.2" d="M269.683 4.09686H30.3691C15.8761 4.09686 4.09731 15.8756 4.09731 30.3686V37.231C4.09731 22.738 15.8761 11.0105 30.3691 11.0105H269.683C284.176 11.0105 295.903 22.738 295.903 37.231V30.3686C295.903 15.8756 284.176 4.09686 269.683 4.09686Z" fill="white"/>
<path fill-rule="evenodd" clip-rule="evenodd" d="M300 30.3687V96.4322C300 113.127 286.378 126.75 269.682 126.75H30.3687C13.6224 126.75 0 113.127 0 96.4322V30.3687C0 13.6224 13.6224 0 30.3687 0H269.682C286.378 0 300 13.6224 300 30.3687ZM30.3687 4.09696C15.8757 4.09696 4.09696 15.8757 4.09696 30.3687V96.4322C4.09696 110.925 15.8757 122.653 30.3687 122.653H269.682C284.175 122.653 295.903 110.925 295.903 96.4322V30.3687C295.903 15.8757 284.175 4.09696 269.682 4.09696H30.3687Z" fill="url(#paint1_linear_72_295)"/>
<path opacity="0.1" d="M150 82.2463C91.2089 82.2463 38.7166 69.8018 4.09731 50.29V96.4321C4.09731 110.925 15.8761 122.653 30.3691 122.653H269.683C284.176 122.653 295.903 110.925 295.903 96.4321V50.29C261.284 69.8018 208.792 82.2463 150 82.2463Z" fill="black"/>
<path opacity="0.1" d="M269.683 116.61H30.3691C15.8761 116.61 4.09731 104.831 4.09731 90.3379V96.4321C4.09731 110.925 15.8761 122.653 30.3691 122.653H269.683C284.176 122.653 295.903 110.925 295.903 96.4321V90.3379C295.903 104.831 284.176 116.61 269.683 116.61Z" fill="black"/>
<path fill-rule="evenodd" clip-rule="evenodd" d="M137.197 53.6189C137.982 55.1894 138.375 56.9477 138.375 58.8938C138.375 60.8399 137.982 62.5981 137.197 64.1686C136.412 65.7391 135.422 66.9853 134.227 67.9071C131.735 69.819 129.157 70.775 126.494 70.775H120.912V75.845C120.912 76.5278 120.878 77.0399 120.809 77.3813C120.775 77.7227 120.639 78.1153 120.4 78.5592C119.99 79.3786 118.829 79.7883 116.917 79.7883C114.835 79.7883 113.605 79.242 113.23 78.1495C113.059 77.6374 112.974 76.8521 112.974 75.7938V50.9559C112.974 50.239 112.991 49.7097 113.025 49.3683C113.059 49.0269 113.196 48.6343 113.435 48.1905C113.879 47.4052 115.056 47.0126 116.968 47.0126H126.545C129.174 47.0126 131.735 47.9685 134.227 49.8804C135.422 50.8022 136.412 52.0484 137.197 53.6189ZM129.208 61.8641C130.062 61.2154 130.488 60.2253 130.488 58.8938C130.488 57.5964 130.062 56.6063 129.208 55.9235C128.32 55.2406 127.416 54.8992 126.494 54.8992H120.912V62.8371H126.545C127.433 62.8371 128.32 62.5127 129.208 61.8641Z" fill="white"/>
<path d="M149.232 73.1819H161.421C162.411 73.1819 163.128 73.3014 163.571 73.5404C164.015 73.7794 164.306 74.1379 164.442 74.6159C164.613 75.0938 164.698 75.7254 164.698 76.5107C164.698 77.2959 164.613 77.9276 164.442 78.4056C164.306 78.8835 164.049 79.2079 163.674 79.3786C163.128 79.6859 162.359 79.8395 161.369 79.8395H145.238C143.155 79.8395 141.926 79.2762 141.55 78.1495C141.38 77.6715 141.294 76.9033 141.294 75.845V50.9559C141.294 50.239 141.311 49.7097 141.345 49.3683C141.38 49.0269 141.516 48.6343 141.755 48.1905C142.199 47.4052 143.377 47.0126 145.289 47.0126C147.371 47.0126 148.6 47.5589 148.976 48.6514C149.147 49.1635 149.232 49.9317 149.232 50.9559V73.1819Z" fill="white"/>
<path fill-rule="evenodd" clip-rule="evenodd" d="M186.566 49.3171L198.652 74.3086C199.164 75.3328 199.42 76.101 199.42 76.6131C199.42 77.6715 198.549 78.6445 196.808 79.5322C195.784 80.0443 194.981 80.3004 194.401 80.3004C193.821 80.3004 193.343 80.1639 192.967 79.8907C192.591 79.6176 192.318 79.3274 192.148 79.0201C192.011 78.747 191.789 78.3031 191.482 77.6886L189.126 72.8234H176.733L174.377 77.6886C174.104 78.3031 173.882 78.7299 173.711 78.9689C173.541 79.242 173.267 79.5322 172.892 79.8395C172.516 80.1126 172.038 80.2492 171.458 80.2492C170.878 80.2492 170.075 79.9931 169.051 79.481C167.344 78.6616 166.49 77.7057 166.49 76.6131C166.49 76.101 166.729 75.3328 167.207 74.3086L179.345 49.2659C179.652 48.5831 180.147 48.0369 180.83 47.6272C181.513 47.2175 182.23 47.0126 182.981 47.0126C184.585 47.0126 185.78 47.7808 186.566 49.3171ZM182.929 60.0716L179.959 66.2171H185.9L182.929 60.0716Z" fill="white"/>
<path d="M221.236 47.6272C222.704 48.6514 223.438 49.6415 223.438 50.5974C223.438 51.1437 223.097 51.9289 222.414 52.9532L212.735 67.4462V75.9986C212.735 76.6814 212.701 77.1935 212.633 77.535C212.598 77.8764 212.462 78.269 212.223 78.7129C211.984 79.1567 211.574 79.464 210.994 79.6347C210.448 79.8395 209.696 79.942 208.74 79.942C207.785 79.942 207.016 79.8395 206.436 79.6347C205.856 79.464 205.446 79.1567 205.207 78.7129C204.968 78.2349 204.831 77.8252 204.797 77.4838C204.763 77.1423 204.746 76.6132 204.746 75.8962V67.4462L195.067 52.9532C194.384 51.9289 194.043 51.1437 194.043 50.5974C194.043 49.6415 194.691 48.7197 195.989 47.832C197.32 46.9443 198.259 46.5005 198.805 46.5005C199.386 46.5005 199.847 46.62 200.188 46.859C200.666 47.2004 201.195 47.815 201.776 48.7026L208.74 59.8156L215.654 48.7026C216.235 47.815 216.73 47.2175 217.139 46.9102C217.549 46.6371 218.044 46.5005 218.624 46.5005C219.171 46.5005 220.041 46.8761 221.236 47.6272Z" fill="white"/>
<g opacity="0.2">
<path fill-rule="evenodd" clip-rule="evenodd" d="M135.456 48.2417C136.941 49.3171 138.119 50.8535 139.041 52.6971C139.962 54.592 140.423 56.6405 140.423 58.8938C140.423 61.1471 139.962 63.2468 139.041 65.0905C138.119 66.9341 136.89 68.4192 135.456 69.5459C132.639 71.748 129.618 72.8235 126.494 72.8235H122.96V75.845C122.96 76.6644 122.909 77.2277 122.858 77.6374C122.789 78.2519 122.584 78.8835 122.243 79.5322C121.014 81.8368 117.941 81.8368 116.917 81.8368C113.127 81.8368 111.745 80.198 111.284 78.8152C111.028 78.0471 110.925 77.0741 110.925 75.7938V50.956C110.925 50.1366 110.925 49.5732 110.976 49.1123C111.079 48.5319 111.301 47.9173 111.642 47.2687C112.82 44.9641 115.944 44.9641 116.968 44.9641H126.545C129.618 44.9641 132.639 46.0396 135.456 48.2417ZM116.968 47.0126C115.056 47.0126 113.878 47.4052 113.435 48.1905C113.196 48.6343 113.059 49.0269 113.025 49.3683C112.991 49.7097 112.974 50.239 112.974 50.956V75.7938C112.974 76.8522 113.059 77.6374 113.23 78.1495C113.605 79.242 114.834 79.7883 116.917 79.7883C118.829 79.7883 119.99 79.3786 120.399 78.5592C120.638 78.1153 120.775 77.7228 120.809 77.3813C120.877 77.0399 120.912 76.5278 120.912 75.845V70.775H126.494C129.157 70.775 131.734 69.819 134.227 67.9071C135.422 66.9853 136.412 65.7391 137.197 64.1686C137.982 62.5981 138.375 60.8399 138.375 58.8938C138.375 56.9478 137.982 55.1895 137.197 53.619C136.412 52.0485 135.422 50.8023 134.227 49.8805C131.734 47.9685 129.174 47.0126 126.545 47.0126H116.968ZM120.912 54.8993H126.494C127.415 54.8993 128.32 55.2407 129.208 55.9235C130.061 56.6063 130.488 57.5964 130.488 58.8938C130.488 60.2253 130.061 61.2154 129.208 61.8641C128.32 62.5128 127.433 62.8371 126.545 62.8371H120.912V54.8993ZM122.96 60.7886H126.545C126.989 60.7886 127.467 60.6009 127.979 60.2253C128.081 60.1229 128.44 59.8668 128.44 58.8938C128.44 57.9208 128.081 57.6647 127.928 57.5623C127.45 57.1526 126.972 56.9477 126.494 56.9477H122.96V60.7886Z" fill="black"/>
<path fill-rule="evenodd" clip-rule="evenodd" d="M150.922 47.9856V48.0368L150.973 48.088C151.178 48.805 151.28 49.7269 151.28 50.956V71.1334H161.42C162.752 71.1334 163.725 71.3383 164.493 71.6968C165.415 72.2089 166.08 72.9771 166.388 74.0014C166.644 74.6671 166.746 75.4865 166.746 76.5107C166.746 77.5349 166.644 78.3543 166.388 79.0201C166.029 80.3004 165.21 80.915 164.647 81.2222C163.776 81.6831 162.701 81.888 161.369 81.888H145.237C141.448 81.888 140.065 80.198 139.604 78.8152C139.348 78.0983 139.245 77.1253 139.245 75.845V50.956C139.245 50.1366 139.245 49.5732 139.297 49.1123C139.399 48.5319 139.621 47.9173 139.962 47.2687C141.14 44.9641 144.264 44.9641 145.288 44.9641C149.078 44.9641 150.461 46.6029 150.922 47.9856ZM141.755 48.1905C141.516 48.6343 141.379 49.0269 141.345 49.3683C141.311 49.7097 141.294 50.239 141.294 50.956V75.845C141.294 76.9034 141.379 77.6715 141.55 78.1495C141.925 79.2762 143.155 79.8395 145.237 79.8395H161.369C162.359 79.8395 163.127 79.6859 163.674 79.3786C164.049 79.2079 164.305 78.8836 164.442 78.4056C164.612 77.9276 164.698 77.2959 164.698 76.5107C164.698 75.7254 164.612 75.0939 164.442 74.6159C164.305 74.1379 164.015 73.7794 163.571 73.5404C163.127 73.3015 162.41 73.1819 161.42 73.1819H149.232V50.956C149.232 49.9317 149.146 49.1635 148.976 48.6514C148.6 47.5589 147.371 47.0126 145.288 47.0126C143.377 47.0126 142.199 47.4052 141.755 48.1905Z" fill="black"/>
<path fill-rule="evenodd" clip-rule="evenodd" d="M188.358 48.3954L188.409 48.4466L200.495 73.438C201.161 74.7695 201.468 75.7426 201.468 76.6132C201.468 78.508 200.188 80.0955 197.73 81.3758C196.398 82.0416 195.323 82.3489 194.401 82.3489C193.377 82.3489 192.506 82.0928 191.789 81.5295C191.174 81.0857 190.696 80.5906 190.355 80.0443C190.184 79.7029 189.945 79.225 189.638 78.6104V78.5592L187.846 74.8719H178.013L176.221 78.5592V78.6104C175.913 79.2762 175.657 79.7371 175.452 80.0443C175.145 80.5565 174.735 81.0174 174.121 81.4271C173.404 82.0075 172.516 82.2977 171.458 82.2977C170.536 82.2977 169.512 81.9904 168.18 81.3246C165.671 80.0956 164.442 78.508 164.442 76.6132C164.442 75.7426 164.698 74.7695 165.415 73.438L177.501 48.3954C177.979 47.337 178.73 46.5005 179.754 45.886C180.744 45.2714 181.82 44.9641 182.981 44.9641C185.336 44.9641 187.282 46.1932 188.358 48.3954ZM180.83 47.6272C180.147 48.0369 179.652 48.5831 179.345 49.2659L167.207 74.3086C166.729 75.3329 166.49 76.101 166.49 76.6132C166.49 77.7057 167.344 78.6616 169.051 79.481C170.075 79.9931 170.877 80.2492 171.458 80.2492C172.038 80.2492 172.516 80.1126 172.892 79.8395C173.267 79.5322 173.54 79.242 173.711 78.9689C173.882 78.7299 174.104 78.3031 174.377 77.6886L176.733 72.8235H189.126L191.482 77.6886C191.789 78.3031 192.011 78.747 192.148 79.0201C192.318 79.3274 192.591 79.6176 192.967 79.8907C193.342 80.1639 193.82 80.3004 194.401 80.3004C194.981 80.3004 195.784 80.0443 196.808 79.5322C198.549 78.6445 199.42 77.6715 199.42 76.6132C199.42 76.101 199.164 75.3329 198.651 74.3086L186.565 49.3171C185.78 47.7808 184.585 47.0126 182.981 47.0126C182.229 47.0126 181.512 47.2175 180.83 47.6272ZM182.929 60.0717L185.9 66.2171H179.959L182.929 60.0717Z" fill="black"/>
<path fill-rule="evenodd" clip-rule="evenodd" d="M222.311 45.886H222.362L222.414 45.9372C224.462 47.3711 225.486 48.9075 225.486 50.5975C225.486 51.5705 225.026 52.6972 224.104 54.0799L214.783 68.0608V75.9986C214.783 76.7668 214.732 77.3813 214.681 77.791C214.578 78.4056 214.373 79.0202 214.015 79.6859C213.554 80.6077 212.683 81.2735 211.608 81.6319C210.84 81.8368 209.918 81.9905 208.74 81.9905C207.562 81.9905 206.589 81.8368 205.821 81.6319C204.746 81.2735 203.926 80.6077 203.414 79.6347C203.056 78.969 202.851 78.3544 202.748 77.7398C202.697 77.3301 202.697 76.7156 202.697 75.8962V68.0608L193.377 54.0799C192.403 52.6972 191.994 51.5705 191.994 50.5975C191.994 48.9075 192.967 47.4223 194.862 46.142C196.603 44.9642 197.781 44.452 198.805 44.452C199.795 44.452 200.632 44.691 201.314 45.169C202.083 45.6811 202.8 46.4493 203.516 47.6272L208.74 55.9235L213.964 47.5759C214.681 46.4493 215.346 45.6811 216.012 45.2202C216.763 44.7081 217.634 44.452 218.624 44.452C219.597 44.452 220.724 44.913 222.311 45.886ZM217.139 46.9102C216.729 47.2175 216.234 47.815 215.654 48.7026L208.74 59.8156L201.775 48.7026C201.195 47.815 200.666 47.2004 200.188 46.859C199.846 46.62 199.385 46.5005 198.805 46.5005C198.259 46.5005 197.32 46.9443 195.988 47.832C194.691 48.7197 194.042 49.6415 194.042 50.5975C194.042 51.1437 194.384 51.929 195.066 52.9532L204.746 67.4462V75.8962C204.746 76.6132 204.763 77.1424 204.797 77.4838C204.831 77.8252 204.967 78.2349 205.206 78.7129C205.445 79.1567 205.855 79.464 206.436 79.6347C207.016 79.8396 207.784 79.942 208.74 79.942C209.696 79.942 210.447 79.8396 210.993 79.6347C211.574 79.464 211.984 79.1567 212.223 78.7129C212.462 78.269 212.598 77.8764 212.632 77.535C212.7 77.1936 212.735 76.6814 212.735 75.9986V67.4462L222.414 52.9532C223.097 51.929 223.438 51.1437 223.438 50.5975C223.438 49.6415 222.704 48.6514 221.236 47.6272C220.041 46.8761 219.17 46.5005 218.624 46.5005C218.044 46.5005 217.549 46.6371 217.139 46.9102Z" fill="black"/>
</g>
<path d="M74.2578 58.3817L44.9645 41.4817C40.9188 39.1259 35.8488 42.045 35.8488 46.7565V80.5564C35.8488 85.2167 40.9188 88.1358 44.9645 85.7801L74.2578 68.8801C78.3035 66.5756 78.3035 60.7374 74.2578 58.3817Z" fill="white"/>
<path opacity="0.2" fill-rule="evenodd" clip-rule="evenodd" d="M45.9887 39.6892L75.282 56.5892C77.7914 58.0743 79.3278 60.6861 79.3278 63.6564C79.3278 66.5755 77.7914 69.1873 75.282 70.6725L45.9887 87.5724C44.7597 88.2894 43.3257 88.6479 41.943 88.6479C37.4363 88.6479 33.8003 85.0118 33.8003 80.5564V46.7564C33.8003 42.2498 37.4363 38.6137 41.943 38.6137C43.3257 38.6137 44.7597 38.9722 45.9887 39.6892ZM35.8488 46.7564V80.5564C35.8488 84.09 38.7679 86.5994 41.943 86.5994C42.9672 86.5994 43.9915 86.3434 44.9645 85.78L74.2578 68.8801C78.3035 66.5755 78.3035 60.7373 74.2578 58.3816L44.9645 41.4816C43.9915 40.9183 42.9672 40.6622 41.943 40.6622C38.7679 40.6622 35.8488 43.2228 35.8488 46.7564Z" fill="black"/>
<defs>
<linearGradient id="paint0_linear_72_295" x1="359422" y1="-16580.2" x2="359422" y2="-84126.6" gradientUnits="userSpaceOnUse">
<stop stop-color="#00AAC9"/>
<stop offset="1" stop-color="#01C3F6"/>
</linearGradient>
<linearGradient id="paint1_linear_72_295" x1="367108" y1="-16716.7" x2="367108" y2="-90959.8" gradientUnits="userSpaceOnUse">
<stop stop-color="#AEB6D6"/>
<stop offset="1" stop-color="#CDD4EC"/>
</linearGradient>
</defs>
</svg>
