<svg width="111" height="47" viewBox="0 0 111 47" fill="none" xmlns="http://www.w3.org/2000/svg">
<path d="M99.7828 45.3815H11.2367C5.87426 45.3815 1.51611 41.0423 1.51611 35.6799V11.2364C1.51611 5.874 5.87426 1.51587 11.2367 1.51587H99.7828C105.145 1.51587 109.484 5.874 109.484 11.2364V35.6799C109.484 41.0423 105.145 45.3815 99.7828 45.3815Z" fill="url(#paint0_linear_6_110)"/>
<path opacity="0.2" d="M99.7828 1.51587H11.2367C5.87426 1.51587 1.51611 5.874 1.51611 11.2364V13.7755C1.51611 8.41309 5.87426 4.07391 11.2367 4.07391H99.7828C105.145 4.07391 109.484 8.41309 109.484 13.7755V11.2364C109.484 5.874 105.145 1.51587 99.7828 1.51587Z" fill="white"/>
<path fill-rule="evenodd" clip-rule="evenodd" d="M111 11.2364V35.6799C111 41.8571 105.96 46.8974 99.7825 46.8974H11.2364C5.04029 46.8974 0 41.8571 0 35.6799V11.2364C0 5.04027 5.04029 0 11.2364 0H99.7825C105.96 0 111 5.04027 111 11.2364ZM11.2364 1.51588C5.87402 1.51588 1.51588 5.874 1.51588 11.2364V35.6799C1.51588 41.0423 5.87402 45.3815 11.2364 45.3815H99.7825C105.145 45.3815 109.484 41.0423 109.484 35.6799V11.2364C109.484 5.874 105.145 1.51588 99.7825 1.51588H11.2364Z" fill="url(#paint1_linear_6_110)"/>
<path opacity="0.1" d="M55.5002 30.4311C33.7474 30.4311 14.3253 25.8267 1.51611 18.6073V35.6798C1.51611 41.0423 5.87426 45.3815 11.2367 45.3815H99.7828C105.145 45.3815 109.484 41.0423 109.484 35.6798V18.6073C96.6752 25.8267 77.2531 30.4311 55.5002 30.4311Z" fill="black"/>
<path opacity="0.1" d="M99.7828 43.1456H11.2367C5.87426 43.1456 1.51611 38.7875 1.51611 33.425V35.6799C1.51611 41.0423 5.87426 45.3815 11.2367 45.3815H99.7828C105.145 45.3815 109.484 41.0423 109.484 35.6799V33.425C109.484 38.7875 105.145 43.1456 99.7828 43.1456Z" fill="black"/>
<defs>
<linearGradient id="paint0_linear_6_110" x1="132986" y1="-6134.67" x2="132986" y2="-31126.8" gradientUnits="userSpaceOnUse">
<stop stop-color="#00AAC9"/>
<stop offset="1" stop-color="#01C3F6"/>
</linearGradient>
<linearGradient id="paint1_linear_6_110" x1="135830" y1="-6185.18" x2="135830" y2="-33655.1" gradientUnits="userSpaceOnUse">
<stop stop-color="#AEB6D6"/>
<stop offset="1" stop-color="#CDD4EC"/>
</linearGradient>
</defs>
</svg>
